<svg xmlns="http://www.w3.org/2000/svg" viewBox="0 0 763.28 55.47"><defs><style>.cls-1{fill:#fff;}</style></defs><g id="Layer_2" data-name="Layer 2"><g id="Слой_1" data-name="Слой 1"><path class="cls-1" d="M.45,24.88c47.8,7.62,95.86-.6,143.07-8.35,24.79-4.07,49.65-8.06,74.75-9.63a360.2,360.2,0,0,1,75.67,3.57c50.17,7.43,98.65,22.76,148.14,33.4,48.22,10.37,98.67,16.64,147.47,6.34,48-10.11,94.12-39.11,144.68-31.31a95.52,95.52,0,0,1,16.89,4.22c.76.27,1.09-.94.33-1.2C704.4,5.56,657,29.13,612.58,42.85a256.65,256.65,0,0,1-75.31,11.38c-25.46.06-50.83-3.08-75.83-7.73-49.81-9.28-98.23-24.78-148-34-24.48-4.55-49.32-7.58-74.26-7.53-24.27,0-48.43,3-72.39,6.62C118.18,19,69.26,29.81,19.86,25.94Q10.28,25.19.78,23.67C0,23.55-.34,24.75.45,24.88Z"/><path class="cls-1" d="M739.88,42.05a43.74,43.74,0,0,1,23-17.38c.76-.25.44-1.45-.33-1.21a45.14,45.14,0,0,0-23.72,18c-.44.67.64,1.3,1.08.63Z"/><path class="cls-1" d="M739.68.91A57.27,57.27,0,0,0,762,20.18c.72.35,1.36-.73.63-1.08A56.07,56.07,0,0,1,740.76.28c-.45-.66-1.54,0-1.08.63Z"/></g></g></svg>