<svg xmlns="http://www.w3.org/2000/svg" viewBox="0 0 85.91 86.88"><defs><style>.cls-1{fill:#fff;}</style></defs><g id="Layer_2" data-name="Layer 2"><g id="Layer_1-2" data-name="Layer 1"><g id="Layer_2-2" data-name="Layer 2"><g id="Слой_1" data-name="Слой 1"><path class="cls-1" d="M85.91,38.07c0,6.09-1.38,12.13-3,18A53.69,53.69,0,0,1,79.3,66.21a38.19,38.19,0,0,1-36.25,20.6C35,86.2,27.41,82.93,21.71,80.14c-5.22-2.55-10.56-5.57-14.3-10.33a30.48,30.48,0,0,1-4.5-8.27,46.61,46.61,0,0,1,7.41-45.46C20.67,3.61,38.09-2.47,53.71.94h0a43.38,43.38,0,0,1,27.2,19.42A32.53,32.53,0,0,1,85.91,38.07ZM2.56,45.38A43.31,43.31,0,0,0,5.3,60.65a28,28,0,0,0,4.1,7.6c3.42,4.36,8.47,7.2,13.42,9.62,5.5,2.68,12.78,5.84,20.42,6.42A35.6,35.6,0,0,0,77,65.09a51.38,51.38,0,0,0,3.48-9.69c3-11.4,5.22-22.61-1.73-33.7A41.37,41.37,0,0,0,53.17,3.41C38.45.19,22,5.93,12.3,17.69A43.61,43.61,0,0,0,2.56,45.38Z"/><rect class="cls-1" x="23.58" y="42.11" width="39.7" height="2.53" transform="translate(-0.15 86.6) rotate(-89.73)"/><path class="cls-1" d="M63,41.73l-1.65,1.92c-8.43-7.28-11.16-11.1-17.84-21.26A96,96,0,0,1,25.71,42.78L24,40.9c8.37-7.57,12-11.79,18.45-21.49l1.06-1.6,1,1.6C51.91,30.56,54.36,34.32,63,41.73Z"/></g></g></g></g></svg>