<svg xmlns="http://www.w3.org/2000/svg" viewBox="0 0 86.91 85.87"><defs><style>.cls-1{fill:#201600;}</style></defs><g id="Layer_2" data-name="Layer 2"><g id="Слой_1" data-name="Слой 1"><path class="cls-1" d="M48.84,85.87c-6.09,0-12.13-1.38-18-2.94A53.34,53.34,0,0,1,20.7,79.27,38.16,38.16,0,0,1,.1,43C.71,35,4,27.37,6.77,21.67c2.55-5.21,5.57-10.56,10.33-14.3A30.82,30.82,0,0,1,25.37,2.9a46.65,46.65,0,0,1,45.46,7.42C83.3,20.63,89.39,38.06,86,53.68h0A43.36,43.36,0,0,1,66.55,80.9,32.4,32.4,0,0,1,48.84,85.87ZM41.53,2.52A43.25,43.25,0,0,0,26.26,5.27a28.39,28.39,0,0,0-7.6,4.09C14.3,12.79,11.46,17.84,9,22.79,6.36,28.28,3.2,35.57,2.62,43.21A35.58,35.58,0,0,0,21.82,77a51.91,51.91,0,0,0,9.69,3.49c11.43,3.05,22.61,5.22,33.7-1.73A41.44,41.44,0,0,0,83.5,53.14C86.72,38.42,81,22,69.22,12.27A43.65,43.65,0,0,0,41.53,2.52Z"/><rect class="cls-1" x="39.74" y="21.02" width="2.53" height="39.7" transform="translate(-0.06 81.68) rotate(-89.73)"/><path class="cls-1" d="M42.65,60.42l-1.92-1.64C48,50.3,51.83,47.62,62,40.94a94.68,94.68,0,0,1-20.38-17.8l1.87-1.69c7.57,8.37,11.79,12,21.5,18.44L66.57,41,65,42C53.82,49.32,50.07,51.79,42.65,60.42Z"/></g></g></svg>