<svg xmlns="http://www.w3.org/2000/svg" viewBox="0 0 86.91 85.87"><defs><style>.cls-1{fill:#B0C3B3;}</style></defs><g id="Layer_2" data-name="Layer 2"><g id="Слой_1" data-name="Слой 1"><path class="cls-1" d="M38.07,0c6.09,0,12.13,1.38,18,3A53.34,53.34,0,0,1,66.21,6.61a38.16,38.16,0,0,1,20.6,36.25c-.61,8.07-3.88,15.64-6.67,21.34-2.55,5.22-5.57,10.56-10.33,14.3A30.55,30.55,0,0,1,61.54,83a46.64,46.64,0,0,1-45.46-7.41C3.61,65.24-2.47,47.82.94,32.2h0A43.38,43.38,0,0,1,20.36,5,32.48,32.48,0,0,1,38.07,0Zm7.31,83.35a43.47,43.47,0,0,0,15.27-2.74,28.12,28.12,0,0,0,7.6-4.1c4.36-3.42,7.2-8.47,9.62-13.42,2.68-5.5,5.84-12.78,6.42-20.42a35.59,35.59,0,0,0-19.2-33.8A51,51,0,0,0,55.4,5.39C44,2.34,32.79.17,21.7,7.12A41.39,41.39,0,0,0,3.41,32.74C.19,47.46,5.93,63.88,17.69,73.61A43.64,43.64,0,0,0,45.38,83.35Z"/><rect class="cls-1" x="42.11" y="22.62" width="2.53" height="39.7" transform="translate(0.7 85.65) rotate(-89.73)"/><path class="cls-1" d="M41.73,22.92l1.92,1.65C36.37,33,32.55,35.73,22.39,42.41c8.81,6,13.07,9.7,20.39,17.79L40.9,61.9c-7.57-8.37-11.79-12-21.49-18.45l-1.6-1.06,1.6-1C30.56,34,34.32,31.55,41.73,22.92Z"/></g></g></svg>