<svg xmlns="http://www.w3.org/2000/svg" viewBox="0 0 87.1 85.93"><defs><style>.cls-1{fill:#fff;}</style></defs><g id="Layer_2" data-name="Layer 2"><g id="Layer_1-2" data-name="Layer 1"><ellipse class="cls-1" cx="44.3" cy="43.09" rx="42.8" ry="41.93"/><path d="M38.6,0C69.77,1.38,87.74,16.34,86.69,40.16c-1.17,26.58-14.52,46-41.58,45.77C19.9,85.68-.13,65.78,0,40.85.12,18.53,17.66,0,38.6,0Zm9,83.15c10-.56,21.11-3.4,27.4-15.1a97.41,97.41,0,0,0,7.73-17.8c5.55-18.37-4.11-37-22.32-43.2a107.51,107.51,0,0,0-18-4.16c-10-1.57-18.72,1.66-26.15,8.44C3.41,23.13-.64,39.85,5.51,56,11.85,72.57,27.36,83.13,47.62,83.15Z"/><path d="M20.34,60.94C27.65,54.82,35,48.7,42.74,42.19l-19.39-18,1.37-1.57c7.31,4.94,13.07,11.85,20,17.75L63.11,24.16l1.48,1.59C59.37,31.8,52.83,36.6,46.71,42.53L63.35,64.41c-10.56-3-12.15-13.51-18.73-19.94L21.91,62.92Z"/></g></g></svg>