<svg xmlns="http://www.w3.org/2000/svg" viewBox="0 0 145.95 141.64"><defs><style>.cls-1{fill:#1c1c1c;}</style></defs><g id="Layer_2" data-name="Layer 2"><g id="Слой_1" data-name="Слой 1"><path class="cls-1" d="M6.3,7.11C47.13,56.86,95.6,98.94,143.78,141.32c1.2,1.06,3-.7,1.77-1.77C97.37,97.17,48.9,55.09,8.06,5.34,7,4.1,5.28,5.87,6.3,7.11Z"/><path class="cls-1" d="M2.18,137.45C26.67,116.64,52,96.51,75.54,74.62c23.15-21.53,41.84-47.8,61.51-72.42,1-1.24-.76-3-1.77-1.77C115.61,25,96.91,51.32,73.77,72.85c-23.53,21.89-48.88,42-73.36,62.83-1.22,1,.55,2.81,1.77,1.77Z"/></g></g></svg>