<svg xmlns="http://www.w3.org/2000/svg" viewBox="0 0 1691.55 112.41"><defs><style>.cls-1{fill:#678187;}</style></defs><g id="Layer_2" data-name="Layer 2"><g id="Слой_1" data-name="Слой 1"><path class="cls-1" d="M344.89,111.73c-1,0-1.93,0-2.89-.12-12.52-1-29.37-9.79-39.11-31.16-.31-.67-.61-1.36-.9-2a65.79,65.79,0,0,1-16.23,19.06c-6.44,5.13-12.41,7.7-18.27,7.88h-.63c-10.7,0-19.69-8.4-23.92-16.86a52.54,52.54,0,0,1-4.21-12.59l-7.35,13.4-.17.09c-11.56,6-25.26.72-38.35-5.85l-19.48-9.79A16.28,16.28,0,0,1,165,65c-3.57,7.72-9.58,14.82-15.42,21.25-11.53,12.69-27.94,23-39.42,13.72-3.79-3.06-5.87-7.65-7.39-11.94a60.17,60.17,0,0,1-11,7.49c-12.22,6.45-29.18,6.43-35.28-4.85l-.15-.28C43.25,98.91,24,96.86,12.22,85.51.94,74.7-3.07,56.24,2.46,40.62l1.15.4c-5.38,15.19-1.49,33.12,9.44,43.62,11.48,11,30.13,13,42.74,4.59-1.91-4.43-1.91-9.45-1.91-13.92V55.09c0-3.78,1.63-8.72,4.37-10.45a4.08,4.08,0,0,1,4.11-.21A7.15,7.15,0,0,1,65,46.85c4.45,6,6.15,13.89,4.79,22.09A31.84,31.84,0,0,1,57.32,89.65c.07.13.14.26.2.39,5.76,10.63,21.95,10.54,33.65,4.36a59.53,59.53,0,0,0,11.12-7.65l-.66-2c-12-36.47-3.92-49.7,3.17-56.48a10,10,0,0,1,7.84-1.49,14.18,14.18,0,0,1,8.85,6c2.88,4.51,3.66,10.44,2.37,18.14A63.07,63.07,0,0,1,103.7,87.12c1.49,4.26,3.49,8.89,7.17,11.85,10.83,8.73,26.61-1.3,37.76-13.59,6.05-6.66,12.29-14.06,15.71-22.06q-.19-.62-.36-1.26a16.93,16.93,0,0,1,2.88-14.75l.88-1.08.19,1.37a29.92,29.92,0,0,1-2.29,15.77,15.37,15.37,0,0,0,8.25,9.28l19.52,9.8c12.73,6.4,26,11.54,37.08,6L238.36,74c-1-5.31-1.43-10.66-1.85-15.68-.35-4.21.49-9.63,3.16-12.25a5.29,5.29,0,0,1,4.45-1.55,5.17,5.17,0,0,1,4.22,2.8c1.91,3.66.58,10-1.65,14l-7.05,12.86A52.33,52.33,0,0,0,244,87.94c4.13,8.29,13,16.52,23.42,16.19,5.59-.17,11.33-2.66,17.56-7.62A64.86,64.86,0,0,0,301.41,77c-6-15.16-7.28-32.15-8.41-47.28l0-.34.28-.2a7.37,7.37,0,0,1,8.13-.54c5.15,2.71,9.41,11,9.31,18.11a66.45,66.45,0,0,1-7.95,30.33c.4,1,.81,1.94,1.25,2.9,9.52,20.89,25.93,29.43,38.11,30.45,17.25,1.45,34.84-10.72,40.92-28.3.15-.46.31-.91.45-1.38a8,8,0,0,1-3-.85,46.48,46.48,0,0,1-24.21-38.46c-.22-5.38,2.24-11.41,5.71-14a6.91,6.91,0,0,1,6.57-1.12c2.29.76,4,2.61,5.46,4.5,11.31,14.39,15.42,32.81,11.05,48.8a10.37,10.37,0,0,0,4-1,5,5,0,0,1-.36-3.59,2,2,0,0,1,2.2-1.26l.2,0,.15.13a2.84,2.84,0,0,1,.61,4A4.71,4.71,0,0,1,390.69,79a3.8,3.8,0,0,0,.9.93c13.33,9.68,33,2.79,44.27-9.44.4-.43.79-.87,1.17-1.31-13.86-8.76-21.89-27-17.75-42.93l.06-.23.2-.13c4.18-2.66,9.35-3,14.59-1a22.09,22.09,0,0,1,13.13,14.26c2.45,9.28-.68,20.19-8.4,29.68a33.17,33.17,0,0,0,6.07,2.74c16.37,5.46,36.2-2.63,44.73-17.52L474.73,31.33l.19-.33a8.46,8.46,0,0,1,7.17-4,11.82,11.82,0,0,1,10,4.71c4.77,6.78,2,15.54.56,19a31.5,31.5,0,0,1-1.58,3.32L511.5,85.21c2.09,3.19,4.45,6.8,8,8.68,4,2.13,8.89,1.76,13.56,1a129.07,129.07,0,0,0,45.48-16.19,118.69,118.69,0,0,1-34.94-37.16l-.21-.35.24-.32c2.85-3.93,7.45-6.15,12.94-6.24h.35a23.73,23.73,0,0,1,18.22,8.7c7.94,10.2,7.68,24.55,6.79,34.45l0,.31-.26.16-.84.51a114.5,114.5,0,0,0,17.79,9.65c3.9,1.69,8.12,3.21,12.39,3,6.84-.3,14.89-5.95,17.89-16-3.95-4.27-7.64-8.67-11.17-12.86-8.37-10-10.57-18-6.55-23.93l.13-.18.21-.06a16.1,16.1,0,0,1,14.7,3.18l.13.12,0,.16c2.89,9.21,6.16,19.65,4.55,30a25.05,25.05,0,0,1-.71,3.24c7,7.5,14.77,14.57,23.84,19.45,13,7,32.15,9.6,45.53-.39,10.11-7.55,15.61-20.36,17.13-40.08-9.72-9.08-16-21.52-21.59-32.55l-.26-.5.48-.29a11.51,11.51,0,0,1,8.94-1.16,17.26,17.26,0,0,1,10.3,7.63c3.88,6.45,3.92,14.39,3.66,21.33-.06,1.73-.16,3.41-.27,5l.87.78C728.2,62.6,743.3,68.2,756,62.31a25.58,25.58,0,0,0,10.72-9.53A89,89,0,0,1,747.4,12.42l-.15-.81.82.09a28,28,0,0,1,23.85,22.65,27.39,27.39,0,0,1-3.71,18.31,85.53,85.53,0,0,0,13.17,12.42c13.38,10.15,33.75,16,46.85,5a23.37,23.37,0,0,0,4.16-4.53,114.59,114.59,0,0,1-19.84-64V0l1.05,1.13c8.56,9.25,18.26,19.72,22.84,32.54,3.38,9.49,3.59,22.45-2.59,31.87,5.7,8.27,20,22.88,20,22.88-8.21-4.24-15-13.6-20.71-21.81A25.74,25.74,0,0,1,829,71c-13.61,11.47-34.62,5.47-48.37-5a85.77,85.77,0,0,1-13.11-12.3,26.88,26.88,0,0,1-11,9.68c-13.2,6.1-28.81.35-38.43-8.06l-.21-.18c-1.65,19.56-7.29,32.37-17.53,40-12.14,9.07-30.53,9.26-46.83.49-9-4.85-16.76-11.8-23.69-19.19-2.8,8.2-9.56,15.8-18.75,16.2-4.56.2-8.89-1.39-12.93-3.13a116.76,116.76,0,0,1-18.47-10.08,130.17,130.17,0,0,1-46.41,16.64c-4.88.75-10,1.13-14.31-1.17-3.84-2-6.4-5.94-8.46-9.08L490.4,55.24c-9,15-29.16,23.11-45.85,17.54a34.43,34.43,0,0,1-6.48-2.94c-.42.5-.87,1-1.32,1.49C425.1,84,404.76,91,390.87,80.93a5.2,5.2,0,0,1-1.22-1.29,12.07,12.07,0,0,1-4.93,1.14c-.17.57-.36,1.14-.56,1.71-5.91,17.12-22.45,29.24-39.27,29.24M60.45,45.18a2.78,2.78,0,0,0-1.55.49c-2.35,1.48-3.81,6-3.81,9.42V75.31c0,4.27,0,9,1.71,13.21A30.61,30.61,0,0,0,68.56,68.75c1.31-7.88-.31-15.4-4.57-21.19a6.12,6.12,0,0,0-2.15-2,3.21,3.21,0,0,0-1.39-.35m49.88-17.4a8.2,8.2,0,0,0-4.77,1.45C98.78,35.72,91,48.57,102.79,84.39c.15.48.32,1,.48,1.48a61.88,61.88,0,0,0,19.4-35.12c1.23-7.39.51-13-2.2-17.28A12.88,12.88,0,0,0,112.4,28a10.73,10.73,0,0,0-2.07-.21m256-.69a5.9,5.9,0,0,0-3.56,1.27c-3.19,2.4-5.43,8-5.23,13A45.23,45.23,0,0,0,381.06,78.8a7.1,7.1,0,0,0,2.76.75c4.4-15.69.39-33.85-10.76-48-1.36-1.74-2.9-3.44-4.88-4.1a5.89,5.89,0,0,0-1.9-.33M544.87,41.31a117.57,117.57,0,0,0,34.84,36.75c.36-.21.71-.43,1.06-.65.85-9.69,1-23.54-6.57-33.29A22.44,22.44,0,0,0,557,35.88h-.34c-5,.08-9.1,2-11.74,5.42M390.58,75a.71.71,0,0,0-.74.5,3.73,3.73,0,0,0,.28,2.51,3.51,3.51,0,0,0,.77-.77,1.59,1.59,0,0,0-.31-2.24M294.23,30c1.15,15.32,2.36,31.09,7.92,45.61a65.09,65.09,0,0,0,7.33-28.85c.09-6.71-3.87-14.51-8.67-17a6.12,6.12,0,0,0-6.58.27m317.83,9.64c-4.36,6.74,1.16,15.82,6.6,22.29,3.36,4,6.87,8.18,10.62,12.26.19-.77.35-1.57.47-2.39,1.56-10-1.62-20.22-4.45-29.27a15.14,15.14,0,0,0-13.24-2.89M243.49,45.74a4.08,4.08,0,0,0-3,1.24c-2.38,2.33-3.12,7.48-2.8,11.28.38,4.51.78,9.31,1.58,14.08l6.33-11.55c2.1-3.84,3.29-9.7,1.63-12.86A4,4,0,0,0,244,45.76l-.51,0M420.4,26.81c-3.89,15.48,4,33.06,17.41,41.45,7.56-9.22,10.64-19.79,8.28-28.74a20.82,20.82,0,0,0-12.4-13.44c-4.78-1.86-9.49-1.6-13.29.73M813.77,3.1a113.51,113.51,0,0,0,19.34,61.36c5.68-9,5.41-21.33,2.18-30.38C831,22,822,12,813.77,3.1M166.9,49.32a16,16,0,0,0-1.82,12.12,28.45,28.45,0,0,0,1.82-12.12m309.26-18,14.16,21.6c.45-.85.85-1.73,1.22-2.62,2.8-6.81,2.64-13.48-.43-17.85a10.69,10.69,0,0,0-9-4.19,7.25,7.25,0,0,0-6,3.06m220.33-9.73c5.33,10.53,11.35,22.28,20.36,31,.09-1.31.16-2.65.21-4,.26-6.77.22-14.5-3.49-20.67A16.07,16.07,0,0,0,704,20.82a10.52,10.52,0,0,0-7.53.75M748.76,13a87.78,87.78,0,0,0,18.63,38.68,26.24,26.24,0,0,0,3.34-17.14,26.81,26.81,0,0,0-22-21.54"/><path class="cls-1" d="M1671.56,66.22c6.18-9.42,6-22.37,2.59-31.87-4.58-12.82-14.28-23.29-22.84-32.54l-1-1.13V2.23a114.56,114.56,0,0,0,19.84,64,24,24,0,0,1-4.15,4.54c-13.11,11-33.48,5.14-46.86-5a86,86,0,0,1-13.17-12.42A27.38,27.38,0,0,0,1609.63,35a28,28,0,0,0-23.85-22.65l-.82-.09.15.81a89,89,0,0,0,19.33,40.36A25.76,25.76,0,0,1,1593.71,63c-12.7,5.88-27.79.28-37.12-7.87l-.88-.79c.11-1.64.21-3.32.27-5.05.27-6.94.22-14.88-3.66-21.33a17.26,17.26,0,0,0-10.3-7.63,11.51,11.51,0,0,0-8.94,1.16l-.48.29.26.5c5.58,11,11.87,23.47,21.59,32.55-1.52,19.72-7,32.53-17.12,40.08-13.39,10-32.52,7.4-45.54.4-9.07-4.89-16.86-12-23.84-19.45a25.8,25.8,0,0,0,.71-3.24c1.61-10.34-1.66-20.78-4.55-30l0-.16-.13-.12a16.1,16.1,0,0,0-14.7-3.18l-.21.06-.13.18c-4,5.93-1.82,14,6.55,23.93,3.53,4.19,7.22,8.59,11.17,12.86-3,10-11,15.67-17.89,16-4.26.18-8.48-1.35-12.39-3a115.4,115.4,0,0,1-17.79-9.66l.84-.51.26-.16,0-.3c.89-9.91,1.15-24.26-6.79-34.46a23.72,23.72,0,0,0-18.22-8.7h-.35c-5.49.09-10.08,2.3-12.94,6.23l-.24.33.21.34a118.69,118.69,0,0,0,34.94,37.16,129,129,0,0,1-45.48,16.19c-4.67.72-9.55,1.09-13.56-1-3.57-1.89-5.93-5.5-8-8.69l-20.42-31.15a31.5,31.5,0,0,0,1.58-3.32c1.42-3.46,4.21-12.22-.56-19a11.84,11.84,0,0,0-10-4.71,8.46,8.46,0,0,0-7.17,4l-.19.33,14.93,22.78c-8.53,14.89-28.36,23-44.73,17.52a33.13,33.13,0,0,1-6.07-2.73c7.72-9.5,10.86-20.41,8.4-29.69a22.09,22.09,0,0,0-13.13-14.26c-5.24-2-10.41-1.7-14.59,1l-.2.12L1257,27c-4.14,16,3.89,34.17,17.75,42.93-.38.44-.77.88-1.17,1.31-11.29,12.24-30.94,19.12-44.27,9.44a3.71,3.71,0,0,1-.89-.92,5.32,5.32,0,0,0,1.18-1.13,2.84,2.84,0,0,0-.62-4l-.15-.14-.2,0a2,2,0,0,0-2.2,1.25,5,5,0,0,0,.36,3.59,10.33,10.33,0,0,1-4,1c4.37-16,.26-34.41-11-48.8-1.49-1.89-3.17-3.74-5.46-4.5a6.92,6.92,0,0,0-6.57,1.12c-3.47,2.62-5.93,8.64-5.71,14a46.46,46.46,0,0,0,24.21,38.46,8.17,8.17,0,0,0,3,.86c-.14.46-.29.92-.45,1.37-6.08,17.58-23.67,29.75-40.92,28.3-12.18-1-28.58-9.56-38.11-30.45-.44-1-.85-1.93-1.25-2.9a66.44,66.44,0,0,0,8-30.32c.1-7.12-4.16-15.41-9.31-18.12a7.37,7.37,0,0,0-8.13.54l-.28.2,0,.34c1.13,15.13,2.4,32.12,8.41,47.28a64.74,64.74,0,0,1-16.4,19.54c-6.23,5-12,7.45-17.56,7.62-10.39.33-19.29-7.9-23.42-16.19a52.33,52.33,0,0,1-4.39-13.7l7.05-12.86c2.23-4.07,3.57-10.36,1.65-14a5.17,5.17,0,0,0-4.22-2.8,5.32,5.32,0,0,0-4.45,1.55c-2.67,2.62-3.51,8-3.16,12.25.42,5,.87,10.38,1.85,15.68l-7.87,14.36c-11,5.59-24.34.45-37.08-5.94l-19.52-9.81a15.37,15.37,0,0,1-8.25-9.27,29.94,29.94,0,0,0,2.29-15.77l-.19-1.37-.88,1.07a17,17,0,0,0-2.88,14.76c.11.42.23.84.36,1.25-3.42,8-9.65,15.4-15.71,22.07-11.15,12.28-26.93,22.31-37.75,13.58-3.69-3-5.69-7.59-7.18-11.85a63.14,63.14,0,0,0,20.17-36.16c1.28-7.7.5-13.64-2.38-18.15a14.18,14.18,0,0,0-8.85-6A10,10,0,0,0,942.51,29c-7.09,6.78-15.14,20-3.17,56.48.22.64.43,1.3.66,2a58.28,58.28,0,0,1-11.12,7.65c-11.7,6.18-27.89,6.27-33.64-4.36l-.21-.39a31.84,31.84,0,0,0,12.44-20.7c1.36-8.21-.34-16-4.79-22.1a7.23,7.23,0,0,0-2.61-2.42,4.08,4.08,0,0,0-4.11.21c-2.74,1.73-4.37,6.67-4.37,10.45V76c0,4.48,0,9.49,1.91,13.92-12.61,8.39-31.26,6.42-42.73-4.59-.35-.34-.69-.69-1-1a4.11,4.11,0,0,1-1.45-1c-1.51-1.74-3.12-3.4-4.64-5.14a36.33,36.33,0,0,0,6.27,8.07C861.75,97.55,881,99.6,894,91l.15.28c6.1,11.28,23.06,11.3,35.28,4.85a60.17,60.17,0,0,0,11-7.49c1.52,4.29,3.6,8.88,7.4,11.94,11.47,9.25,27.88-1,39.41-13.72,5.84-6.43,11.85-13.53,15.42-21.25a16.3,16.3,0,0,0,8.44,8.8l19.48,9.79c13.08,6.57,26.78,11.83,38.35,5.85l.16-.08,7.35-13.41a52.13,52.13,0,0,0,4.22,12.59c4.22,8.47,13.21,16.86,23.91,16.86h.63c5.86-.19,11.84-2.76,18.27-7.88a65.83,65.83,0,0,0,16.23-19.07c.29.69.59,1.38.9,2.06,9.74,21.36,26.59,30.1,39.11,31.15,1,.08,1.92.12,2.89.12,16.82,0,33.36-12.12,39.28-29.23.19-.57.38-1.15.55-1.72a12.07,12.07,0,0,0,4.93-1.14,5.43,5.43,0,0,0,1.22,1.3c13.89,10.07,34.23,3,45.88-9.61.45-.49.9-1,1.33-1.49a33.44,33.44,0,0,0,6.47,2.94c16.69,5.57,36.88-2.52,45.86-17.54l20.08,30.64c2.06,3.14,4.62,7,8.46,9.09,4.32,2.29,9.43,1.91,14.31,1.16a130.22,130.22,0,0,0,46.42-16.64,115.86,115.86,0,0,0,18.46,10.08c4,1.75,8.37,3.34,12.93,3.13,9.19-.4,16-8,18.75-16.19,6.93,7.38,14.67,14.33,23.69,19.18,16.3,8.78,34.69,8.58,46.83-.49,10.24-7.64,15.88-20.45,17.54-40l.2.18c9.62,8.41,25.23,14.16,38.43,8.06a26.88,26.88,0,0,0,11-9.68,86.81,86.81,0,0,0,13.11,12.31c13.75,10.43,34.76,16.43,48.37,5a25,25,0,0,0,4.1-4.4c5.7,8.21,12.51,17.57,20.72,21.81C1691.55,89.1,1677.26,74.49,1671.56,66.22ZM892.81,76V55.77c0-3.37,1.46-7.94,3.81-9.42a2.85,2.85,0,0,1,1.55-.48,3.19,3.19,0,0,1,1.39.34,6.12,6.12,0,0,1,2.15,2c4.26,5.79,5.88,13.31,4.57,21.19a30.66,30.66,0,0,1-11.75,19.78C892.81,85,892.81,80.26,892.81,76Zm47.69,9.08c-11.76-35.82-4-48.67,2.77-55.16A8.2,8.2,0,0,1,948,28.46a10.73,10.73,0,0,1,2.07.21,12.88,12.88,0,0,1,8.07,5.48c2.71,4.24,3.44,9.9,2.2,17.29A61.92,61.92,0,0,1,941,86.55C940.82,86.05,940.65,85.55,940.5,85.07ZM1004.61,50a28.5,28.5,0,0,1-1.82,12.13A16.05,16.05,0,0,1,1004.61,50Zm70.82,8.94c-.32-3.8.42-8.95,2.8-11.28a4.12,4.12,0,0,1,3-1.24l.51,0a3.92,3.92,0,0,1,3.26,2.16c1.66,3.16.47,9-1.63,12.87L1077,73C1076.21,68.25,1075.81,63.45,1075.43,58.94Zm56.51-28.31a6.12,6.12,0,0,1,6.58-.27c4.8,2.52,8.76,10.32,8.67,17a65.08,65.08,0,0,1-7.32,28.85C1134.3,61.72,1133.09,46,1131.94,30.63Zm89.59,49.6a7.1,7.1,0,0,1-2.76-.75A45.2,45.2,0,0,1,1195.21,42c-.21-5,2-10.6,5.22-13a5.63,5.63,0,0,1,5.46-.94c2,.66,3.52,2.36,4.88,4.1C1221.93,46.38,1225.93,64.54,1221.53,80.23Zm6.3-1.58a3.76,3.76,0,0,1-.28-2.52.71.71,0,0,1,.74-.5,1.59,1.59,0,0,1,.31,2.24A3.78,3.78,0,0,1,1227.83,78.65Zm47.69-9.7c-13.46-8.4-21.3-26-17.41-41.46,3.8-2.33,8.51-2.59,13.29-.73a20.85,20.85,0,0,1,12.4,13.44C1286.16,49.15,1283.08,59.72,1275.52,69ZM1328,53.58,1313.88,32a7.22,7.22,0,0,1,6-3.06,10.7,10.7,0,0,1,9,4.2c3.07,4.36,3.23,11,.43,17.84C1328.88,51.85,1328.48,52.73,1328,53.58Zm89.39,25.16A117.57,117.57,0,0,1,1382.58,42c2.64-3.42,6.8-5.34,11.74-5.42h.34a22.44,22.44,0,0,1,17.25,8.23c7.6,9.75,7.42,23.6,6.57,33.3Zm50-6.31c-.13.82-.29,1.62-.48,2.39-3.74-4.08-7.26-8.26-10.62-12.26-5.43-6.46-10.95-15.55-6.59-22.28A15.06,15.06,0,0,1,1463,43.17C1465.84,52.21,1469,62.44,1467.47,72.43Zm87.3-23.18c0,1.37-.12,2.71-.21,4-9-8.73-15-20.48-20.36-31a10.52,10.52,0,0,1,7.53-.75,16.05,16.05,0,0,1,9.55,7.09C1555,34.75,1555,42.48,1554.77,49.25Zm50.33,3.12a87.78,87.78,0,0,1-18.63-38.68,26.81,26.81,0,0,1,22,21.54A26.18,26.18,0,0,1,1605.1,52.37Zm65.72,12.77a113.48,113.48,0,0,1-19.34-61.36c8.21,8.88,17.22,18.92,21.53,31C1676.23,43.81,1676.5,56.1,1670.82,65.14Z"/></g></g></svg>