<svg xmlns="http://www.w3.org/2000/svg" viewBox="0 0 138.53 78.81"><defs><style>.cls-1{fill:#1c1c1c;}</style></defs><g id="Layer_2" data-name="Layer 2"><g id="Слой_1" data-name="Слой 1"><path class="cls-1" d="M136,0a262.77,262.77,0,0,1-67.35,4.2C46.53,2.79,24.4.44,2.19,2.24c-1.59.13-1.61,2.63,0,2.5C25.05,2.9,47.8,5.45,70.6,6.85a262.18,262.18,0,0,0,66.1-4.41c1.58-.3.91-2.71-.66-2.41Z"/><path class="cls-1" d="M135.75,76.37a243.69,243.69,0,0,0-66.1-4.74c-22.8,1.51-45.54,4.26-68.41,2.27-1.6-.14-1.59,2.36,0,2.5,22.22,1.93,44.34-.6,66.5-2.14a244.44,244.44,0,0,1,67.35,4.52c1.56.33,2.23-2.08.66-2.41Z"/><path class="cls-1" d="M1.57,44.42A251.39,251.39,0,0,1,69.88,39.9C92.36,41.44,114.79,44,137.33,42c1.59-.14,1.61-2.64,0-2.5-23.19,2-46.26-.77-69.38-2.27A250.63,250.63,0,0,0,.91,42c-1.58.32-.92,2.73.66,2.41Z"/></g></g></svg>