<svg xmlns="http://www.w3.org/2000/svg" viewBox="0 0 142.15 113.25"><defs><style>.cls-1{fill:#ec8e4b;}.cls-2{fill:#e9e68f;}.cls-3{fill:#1a3f56;opacity:0.9;}.cls-4{fill:#7d7c79;}</style></defs><g id="Layer_2" data-name="Layer 2"><g id="Слой_1" data-name="Слой 1"><path class="cls-1" d="M17.05,37.05c9.23,6.55,18.47,25.07,23.33,46.74-2.09,5.38-4-1.52-4,.75,0,5-9.62-3.89-11.82-6.55S20.59,70.31,19,65.54a97.48,97.48,0,0,1-4.41-16c-.92-5.67-.76-11.94,1-14.07s5.2,2.11,5.7,7.75"/><path class="cls-2" d="M50.42,83.18l36.77,6.34c3.38.59,6.84,1.17,10.21.55a21,21,0,0,0,7.91-3.56c3.93-2.68,7.66-7.2,6.28-11.75-.77-2.51-2.93-4.32-5.08-5.82A54.78,54.78,0,0,0,58.81,62c-3.87,1.29-7.7,3.09-10.48,6.08S44,75.5,45.23,79.4a161.12,161.12,0,0,0,16.32,2.76"/><path class="cls-3" d="M42.73,106.54c11.14-26.85,15-51,18.44-81.26.28-2.51.51-5.22-.23-7.24-1-2.72-3.33-3.19-5.41-3.43-4.85-.55-10.05-1-14.67,2.92C35.6,22,32.29,31.26,31.23,40.21S31,58,31.79,66.55c1.44,15.13,3.36,31.56,10.94,40"/><path class="cls-4" d="M46.59,35.76l.3-.09c6.84-1.91,24.46-1.09,25.44-1,5-.3,12.55,1.27,22.58,4.66,7.47,2.53,13.57,5.18,13.63,5.2,9,4.26,21.15,11.47,28.47,21.64,4.4,6.12,4.94,10.35,5,10.53v0a28.4,28.4,0,0,1-3.29,17.11,21.38,21.38,0,0,1-4.48,5.69,26.73,26.73,0,0,1-17.12,8.86,29.05,29.05,0,0,1-9.08-.27c-12-.8-26.15-12.87-26.75-13.4C75.33,90.86,69.51,85,65.67,80.77c-4.16-4.59-7-8.33-7-8.37-6.46-7.66-11.79-35.17-12-36.34Zm94.71,41v0s-.55-4.28-4.88-10.27c-7.24-10-19.31-17.15-28.16-21.36C108,45,84,34.6,72.36,35.31h0c-.18,0-17.94-.86-24.94.93C48,39.35,53.19,64.87,59.2,72c0,0,2.83,3.77,7,8.34,3.82,4.22,9.61,10,15.46,13.82l0,0c.14.13,14.39,12.46,26.4,13.25h.05a28.81,28.81,0,0,0,8.9.27A26,26,0,0,0,133.71,99l0,0C133.84,98.92,142.82,91.48,141.3,76.78Z"/><path class="cls-4" d="M42.85,113.25l-.28-.52A314.49,314.49,0,0,1,16.26,45.5c-1-5-1.48-13.31,2.17-24.51A66.34,66.34,0,0,1,23.27,9.65,16.84,16.84,0,0,1,35.2.53,22.22,22.22,0,0,1,42.81.17C61,2.32,65.65,9.18,66,9.77c7.89,8.76,8.84,22.52,8.87,23,.89,6.78-3.31,22-3.57,22.91-1.86,13.6-27.08,55.27-28.16,57ZM42.41.79a23.09,23.09,0,0,0-7.09.4A15.92,15.92,0,0,0,23.87,10v0c-.11.18-10.43,18.31-6.94,35.38a313.59,313.59,0,0,0,26,66.53C45.82,107,68.94,68.24,70.65,55.6v-.05c0-.16,4.44-16,3.55-22.68v0c0-.14-.87-14-8.72-22.65l0,0C65.41,10.08,61,3,42.72.83Z"/><path class="cls-4" d="M45.68,93.05l-.18,0c-7-1-18.65-8.45-18.77-8.52C17,79.19,10.44,69.89,6.66,63A75.34,75.34,0,0,1,.72,49.27,17.56,17.56,0,0,1,5.32,31.8c5.73-5.88,11-6.16,14.47-5.36A14.32,14.32,0,0,1,26,29.61,43.26,43.26,0,0,1,37.25,40.33a48.4,48.4,0,0,1,6.13,11.44,48.61,48.61,0,0,1,3,12.79c1,3.62,1.2,9.47.56,17.4-.47,5.91-1.25,10.83-1.26,10.88ZM16.12,26.62c-3,.21-6.67,1.58-10.54,5.55h0a16.91,16.91,0,0,0-3.36,4.63A16.57,16.57,0,0,0,1.1,49.12,74.26,74.26,0,0,0,7,62.78c3.76,6.81,10.25,16,19.91,21.3.13.08,11.49,7.32,18.45,8.44.33-2.15,2.92-19.86.67-27.85v-.06a47.43,47.43,0,0,0-3-12.67,47.82,47.82,0,0,0-6.07-11.3A42.44,42.44,0,0,0,25.76,30l0,0a14.1,14.1,0,0,0-6-3.09A12.27,12.27,0,0,0,16.12,26.62Z"/></g></g></svg>