<svg xmlns="http://www.w3.org/2000/svg" viewBox="0 0 90.67 22.25"><defs><style>.cls-1{fill:#121212;}.cls-2{fill:#3659df;}</style></defs><g id="Layer_2" data-name="Layer 2"><g id="Слой_1" data-name="Слой 1"><rect class="cls-1" y="0.43" width="4.89" height="21.39"/><path class="cls-1" d="M25,15.56c0,3.79-3.09,6.26-6.91,6.26h-9V.43h8.38c3.73,0,6.75,2.41,6.75,6.11a5.37,5.37,0,0,1-1.86,4.19A5.53,5.53,0,0,1,25,15.56M14,5V8.8h3.49a1.8,1.8,0,0,0,1.86-1.89A1.79,1.79,0,0,0,17.49,5Zm6.12,10.18a1.94,1.94,0,0,0-2-2H14v4.1h4.1a1.94,1.94,0,0,0,2-2"/><polygon class="cls-1" points="40.72 17.11 40.72 21.82 28.18 21.82 28.18 0.43 33.08 0.43 33.08 17.11 40.72 17.11"/><path class="cls-1" d="M42.39,17l4.22-2.44a4.49,4.49,0,0,0,4.49,3c2.33,0,2.91-.92,2.91-1.74,0-1.31-1.23-1.83-4.43-2.72s-6.3-2.41-6.3-6.51S46.76,0,50.46,0a8.3,8.3,0,0,1,7.83,4.83L54.16,7.24a3.75,3.75,0,0,0-3.7-2.47c-1.53,0-2.29.76-2.29,1.62S48.69,8,52,9.05s6.88,2.11,6.88,6.63c0,4.12-3.3,6.57-7.95,6.57-4.49,0-7.36-2.14-8.56-5.29"/><rect class="cls-2" x="62.02" y="2.34" width="28.65" height="2.93"/><rect class="cls-2" x="62.01" y="7.23" width="21.49" height="2.93"/><rect class="cls-2" x="62.02" y="12.11" width="25.4" height="2.93"/><rect class="cls-2" x="62.05" y="17" width="17.91" height="2.93"/></g></g></svg>