<svg xmlns="http://www.w3.org/2000/svg" viewBox="0 0 148.38 35.06"><defs><style>.cls-1{fill:none;stroke:#201600;stroke-miterlimit:10;stroke-width:2px;}.cls-2{fill:#201600;}.cls-3{fill:#121212;}.cls-4{fill:#3659df;}</style></defs><g id="Layer_2" data-name="Layer 2"><g id="Слой_1" data-name="Слой 1"><circle class="cls-1" cx="130.76" cy="11.25" r="5.93"/><path class="cls-2" d="M124.4,26.81c-.17-1.41,1.43-2.26,2.51-2.79a9.42,9.42,0,0,1,4.44-.88,9.3,9.3,0,0,1,7.22,4.11c.9,1.33,3.06.08,2.16-1.26a11.94,11.94,0,0,0-9.92-5.36,12.1,12.1,0,0,0-5.76,1.54c-1.65.94-3.4,2.56-3.15,4.64a1.29,1.29,0,0,0,1.25,1.25,1.26,1.26,0,0,0,1.25-1.25Z"/><circle class="cls-1" cx="130.86" cy="17.53" r="16.53"/><rect class="cls-3" y="7.7" width="4.89" height="21.39"/><path class="cls-3" d="M25,22.83c0,3.79-3.09,6.27-6.91,6.27h-9V7.7h8.38c3.73,0,6.75,2.42,6.75,6.12A5.35,5.35,0,0,1,22.38,18,5.53,5.53,0,0,1,25,22.83M14,12.29v3.79h3.49a1.81,1.81,0,0,0,1.86-1.9,1.78,1.78,0,0,0-1.86-1.89Zm6.12,10.18a1.93,1.93,0,0,0-2-2H14v4.09h4.1a1.93,1.93,0,0,0,2-2"/><polygon class="cls-3" points="40.72 24.39 40.72 29.1 28.18 29.1 28.18 7.7 33.08 7.7 33.08 24.39 40.72 24.39"/><path class="cls-3" d="M42.39,24.24l4.22-2.45a4.48,4.48,0,0,0,4.49,3c2.33,0,2.91-.92,2.91-1.74,0-1.32-1.23-1.84-4.43-2.72s-6.3-2.42-6.3-6.51,3.48-6.51,7.18-6.51a8.3,8.3,0,0,1,7.83,4.83l-4.13,2.41A3.75,3.75,0,0,0,50.46,12c-1.53,0-2.29.77-2.29,1.62s.52,1.65,3.85,2.66S58.9,18.43,58.9,23c0,4.13-3.3,6.58-7.95,6.58-4.49,0-7.36-2.14-8.56-5.29"/><rect class="cls-4" x="62.02" y="9.62" width="28.65" height="2.93"/><rect class="cls-4" x="62.01" y="14.5" width="21.49" height="2.93"/><rect class="cls-4" x="62.02" y="19.39" width="25.4" height="2.93"/><rect class="cls-4" x="62.05" y="24.27" width="17.91" height="2.93"/></g></g></svg>