<svg xmlns="http://www.w3.org/2000/svg" viewBox="0 0 70.27 55.99"><defs><style>.cls-1{fill:#484f61;}.cls-2{fill:#4b4a4a;}.cls-3,.cls-5{opacity:0.73;}.cls-4,.cls-5{fill:#777978;}.cls-5{isolation:isolate;}</style></defs><g id="Layer_2" data-name="Layer 2"><g id="Слой_1" data-name="Слой 1"><path class="cls-1" d="M61.63,34.52A19.53,19.53,0,0,0,54.8,25.3c-3.59-2.46-8.06-3.18-12.39-3.61-3.79-.38-7.81-.53-11.2,1.19s-5.79,6-4.22,9.45a10.26,10.26,0,0,0,2.7,3.28A49.17,49.17,0,0,0,59.6,47.9c7.61.38,3.61-9.32,2-13.38"/><path class="cls-2" d="M23,17.68l.15,0c3.38-.94,12.09-.54,12.58-.51,2.45-.15,6.2.63,11.16,2.3C50.61,20.68,53.63,22,53.66,22c4.43,2.11,10.45,5.67,14.07,10.7a12.28,12.28,0,0,1,2.45,5.21v0a14,14,0,0,1-1.63,8.46,10.41,10.41,0,0,1-2.22,2.81,13.17,13.17,0,0,1-8.46,4.38,14.33,14.33,0,0,1-4.49-.13c-6-.4-12.93-6.36-13.23-6.62A43,43,0,0,1,32.45,40C30.39,37.68,29,35.83,29,35.81c-3.2-3.79-5.83-17.39-5.94-18ZM69.85,38v0a12.29,12.29,0,0,0-2.41-5.07c-3.58-5-9.55-8.48-13.92-10.56-.11,0-12-5.19-17.75-4.84h0c-.09,0-8.87-.42-12.33.46.3,1.53,2.88,14.15,5.84,17.67,0,0,1.4,1.86,3.45,4.12a42.6,42.6,0,0,0,7.64,6.83h0c.07.06,7.11,6.16,13.05,6.55h0a14.38,14.38,0,0,0,4.4.13A12.86,12.86,0,0,0,66.1,49l0,0S70.6,45.23,69.85,38Z"/><g class="cls-3"><path class="cls-4" d="M21.18,56,21,55.73A156,156,0,0,1,8,22.5,23.72,23.72,0,0,1,9.1,10.38a32,32,0,0,1,2.4-5.61A8.34,8.34,0,0,1,17.4.26,11.3,11.3,0,0,1,21.16.08c9,1.06,11.29,4.46,11.47,4.75C36.53,9.16,37,16,37,16.21c.44,3.35-1.64,10.87-1.77,11.33-.92,6.72-13.39,27.32-13.92,28.19ZM21,.4a11.25,11.25,0,0,0-3.5.2A7.88,7.88,0,0,0,11.8,4.93h0C11.74,5,6.63,14,8.36,22.43A155.26,155.26,0,0,0,21.2,55.32c1.45-2.42,12.88-21.58,13.72-27.83v0c0-.08,2.2-7.9,1.76-11.21h0c0-.07-.43-6.9-4.31-11.2l0,0S30.14,1.48,21.11.42C21.11.41,21.06.41,21,.4Z"/></g><path class="cls-5" d="M22.58,46h-.09c-3.47-.51-9.22-4.18-9.28-4.21-4.81-2.63-8-7.22-9.92-10.62a36.73,36.73,0,0,1-2.93-6.8,8.67,8.67,0,0,1,2.28-8.63c2.83-2.91,5.45-3,7.15-2.65a7.13,7.13,0,0,1,3.05,1.57A21.3,21.3,0,0,1,18.42,20a24.08,24.08,0,0,1,3,5.65A24.2,24.2,0,0,1,23,31.92c.5,1.79.59,4.68.28,8.6-.23,2.92-.62,5.35-.62,5.38ZM8,13.16A8.07,8.07,0,0,0,2.75,15.9h0a8.44,8.44,0,0,0-1.66,2.29,8.22,8.22,0,0,0-.55,6.09A36.87,36.87,0,0,0,3.44,31C5.29,34.39,8.51,39,13.28,41.56c.06,0,5.68,3.62,9.12,4.18.16-1.07,1.44-9.82.33-13.77h0v0a23.5,23.5,0,0,0-1.48-6.26,23.58,23.58,0,0,0-3-5.59,21.23,21.23,0,0,0-5.53-5.25h0a7,7,0,0,0-3-1.53A6.45,6.45,0,0,0,8,13.16Z"/></g></g></svg>