<svg xmlns="http://www.w3.org/2000/svg" viewBox="0 0 85.3 58.3"><defs><style>.cls-1{fill:#cf875e;}.cls-2{fill:#4b4a4a;}.cls-3,.cls-5{opacity:0.73;}.cls-4,.cls-5{fill:#777978;}.cls-5{isolation:isolate;}</style></defs><g id="Layer_2" data-name="Layer 2"><g id="Слой_1" data-name="Слой 1"><path class="cls-1" d="M40.78,37.31c6.33-11,20.32-18.69,35.3-19.27,3,4.48-1.9,5.17-.45,5.85,3.2,1.52-4.73,12.38-6.94,14.7s-5.83,3.33-9.26,4.24c-3.63,1-7.39,1.93-11.23,1.59s-7.81-2.37-8.76-5.48,2.57-6.7,6.29-5.77"/><path class="cls-2" d="M34.67,43.19l0-.15c.86-3.49,5.61-11,5.87-11.47,1.1-2.25,3.68-5.21,7.68-8.79,3-2.66,5.66-4.69,5.68-4.71,4.11-2.88,10.32-6.46,16.62-7.15a12.48,12.48,0,0,1,5.87.44h0a14.41,14.41,0,0,1,6.72,5.71,10.74,10.74,0,0,1,1.39,3.39,13.5,13.5,0,0,1-.36,9.75,14.51,14.51,0,0,1-2.38,3.93c-3.35,5.1-12.18,8.32-12.56,8.45a44.05,44.05,0,0,1-10,3.4c-3.06.69-5.41,1-5.43,1-5,.94-18.43-3.56-19-3.75ZM76.32,11.67h0a12.66,12.66,0,0,0-5.73-.41c-6.22.69-12.36,4.24-16.42,7.09-.1.08-10.68,8.09-13.26,13.38v0c-.05.08-4.84,7.69-5.8,11.22,1.52.5,14.06,4.56,18.69,3.69,0,0,2.37-.31,5.41-1a43.08,43.08,0,0,0,9.94-3.37h0c.09,0,9.07-3.24,12.41-8.33l0,0a14.54,14.54,0,0,0,2.33-3.86,13.19,13.19,0,0,0,.34-9.51v0C84.21,20.47,83.17,14.66,76.32,11.67Z"/><g class="cls-3"><path class="cls-4" d="M39.09,57.29,39,57A159.63,159.63,0,0,1,28.71,21.93,24.36,24.36,0,0,1,30.9,9.66a33.39,33.39,0,0,1,3-5.5A8.54,8.54,0,0,1,40.28.09a11.26,11.26,0,0,1,3.85.16c9.08,1.9,11.11,5.57,11.27,5.89,3.58,4.77,3.45,11.75,3.44,12C59,21.61,56.18,29.09,56,29.55c-1.55,6.78-16.14,26.66-16.76,27.5ZM43.91.55A11.87,11.87,0,0,0,40.32.43a8.07,8.07,0,0,0-6.17,3.91h0c-.06.09-6.08,8.77-5.09,17.53A158.63,158.63,0,0,0,39.17,56.6c1.7-2.33,15.1-20.85,16.53-27.15v0c0-.08,3-7.86,2.81-11.28h0c0-.07.19-7.07-3.38-11.81l0,0s-1.94-3.81-11-5.72Z"/></g><path class="cls-5" d="M45.11,38.61l0,.1c-1.78,4-8.13,9.77-8.2,9.83-4.79,5-11.44,7.34-16.17,8.48a46,46,0,0,1-9.22,1.28A10.63,10.63,0,0,1,4,55.51a10.57,10.57,0,0,1-2.27-2.84C-.8,48.27-.1,45.05,1,43.12A8.92,8.92,0,0,1,3.87,40a26.66,26.66,0,0,1,8.28-5A30.22,30.22,0,0,1,20,33.17a30.08,30.08,0,0,1,8.16.3c2.33,0,5.87.84,10.51,2.53C42.14,37.26,45,38.54,45,38.55ZM.45,45.35A10.16,10.16,0,0,0,2,52.58H2a10.9,10.9,0,0,0,2.21,2.78,10.3,10.3,0,0,0,7.19,2.69,46.23,46.23,0,0,0,9.15-1.28c4.69-1.12,11.29-3.49,16-8.41.07-.06,6.28-5.67,8.1-9.66-1.24-.55-11.41-5-16.56-5h0A29.17,29.17,0,0,0,20,33.42a29.53,29.53,0,0,0-7.77,1.77,26.17,26.17,0,0,0-8.2,5h0a8.77,8.77,0,0,0-2.85,3.09A8,8,0,0,0,.45,45.35Z"/></g></g></svg>