<svg xmlns="http://www.w3.org/2000/svg" viewBox="0 0 81.81 64.87"><defs><style>.cls-1{fill:#b79199;}.cls-2,.cls-5{opacity:0.73;}.cls-3,.cls-5{fill:#777978;}.cls-4{fill:#4b4a4a;}.cls-5{isolation:isolate;}</style></defs><g id="Layer_2" data-name="Layer 2"><g id="Слой_1" data-name="Слой 1"><path class="cls-1" d="M39.47,53.67c11.14-11.8,14.61-22.85,17.35-36.82a3.81,3.81,0,0,0-.46-3.42c-1.15-1.35-3.66-1.74-5.89-2-5.22-.61-10.81-1.19-15.64.31a13.65,13.65,0,0,0-9.65,10c-.88,4.12.26,8.31,1.39,12.41,2,7.22,4.52,15.07,12.9,19.57"/><g class="cls-2"><path class="cls-3" d="M36.15,54.07l0-.18c-.7-4,.8-14.06.88-14.63.12-2.85,1.46-7.11,4-12.66,1.88-4.13,3.75-7.47,3.77-7.5,3-4.88,7.8-11.44,14-15C62.55,1.89,65,1.83,65.11,1.83h0a16.35,16.35,0,0,1,9.6,2.88,12.15,12.15,0,0,1,3,2.9,15.36,15.36,0,0,1,4.08,10.32,16.77,16.77,0,0,1-.68,5.18C80,30,72.24,37.33,71.91,37.65A50.28,50.28,0,0,1,63,45.76c-2.87,2.12-5.18,3.51-5.2,3.52C53.07,52.54,37,54,36.33,54.05Zm29-51.85h0A14.44,14.44,0,0,0,59,4.42C52.8,8,48,14.48,45.09,19.3c-.07.13-7.43,13.3-7.7,20v0c0,.1-1.53,10.22-.91,14.34C38.29,53.48,53.21,52,57.63,49c0,0,2.32-1.4,5.18-3.51a49.18,49.18,0,0,0,8.81-8.05l0,0c.08-.07,8-7.51,9.12-14.35v0a16.55,16.55,0,0,0,.67-5.08,14.94,14.94,0,0,0-4-10.06l0,0C77.39,7.78,73.65,2.21,65.14,2.22Z"/></g><path class="cls-4" d="M44.51,64.87l-.19-.28A181.35,181.35,0,0,1,24.9,27.72c-.91-2.81-1.7-7.54-.33-14.2A38.39,38.39,0,0,1,26.62,6.7a9.72,9.72,0,0,1,6.26-6A13.16,13.16,0,0,1,37.22,0C47.8.06,50.9,3.7,51.15,4c5.09,4.52,6.52,12.35,6.57,12.64,1,3.83-.49,12.83-.57,13.37C57,38,45.17,63.47,44.67,64.56ZM37,.39a13.32,13.32,0,0,0-4,.68,9.19,9.19,0,0,0-6,5.77h0C26.93,7,22.18,18,25.27,27.59A180.85,180.85,0,0,0,44.44,64.08c1.37-3,12.14-26.71,12.31-34.07v0c0-.09,1.52-9.45.58-13.24h0c0-.08-1.39-8-6.46-12.43l0,0S47.81.45,37.2.39Z"/><path class="cls-5" d="M41.15,58.67l-.17,0c-6.76-1.23-17.56-7.86-17.67-7.93C14.2,45.88,8.46,38,5.25,32.25A54.1,54.1,0,0,1,.41,20.81a11.9,11.9,0,0,1,2-10.2A15.19,15.19,0,0,1,6.07,7c6-4.42,11.14-4.35,14.44-3.51a14.27,14.27,0,0,1,5.77,2.91,38.26,38.26,0,0,1,10.25,9.28,36.5,36.5,0,0,1,5.19,9.57,33.22,33.22,0,0,1,2.07,10.49c.74,3,.52,7.71-.63,14.07-.86,4.74-1.95,8.66-2,8.7ZM16.92,3.42A17.74,17.74,0,0,0,6.3,7.3h0a15,15,0,0,0-3.58,3.54A11.53,11.53,0,0,0,.8,20.72,53.33,53.33,0,0,0,5.6,32.07c3.19,5.7,8.88,13.5,17.91,18.3.12.07,10.68,6.55,17.37,7.85.47-1.72,4.19-15.85,2.54-22.43v0a32.44,32.44,0,0,0-2.06-10.39,36,36,0,0,0-5.14-9.46A37.73,37.73,0,0,0,26.05,6.7l0,0a14.26,14.26,0,0,0-5.64-2.83A14,14,0,0,0,16.92,3.42Z"/></g></g></svg>