<svg xmlns="http://www.w3.org/2000/svg" viewBox="0 0 140.71 111.57"><defs><style>.cls-1{fill:#7bb469;}.cls-2{fill:#1f3e54;opacity:0.91;}.cls-3{fill:#ebeca2;}.cls-4{fill:#7d7c79;}</style></defs><g id="Layer_2" data-name="Layer 2"><g id="Слой_1" data-name="Слой 1"><path class="cls-1" d="M59.28,90.23C84,95,103.51,91,127.35,84c2-.58,4.08-1.3,5.25-3.08,1.57-2.38.9-5.71.17-8.6-1.71-6.76-3.66-13.94-8.56-18.68-5.57-5.39-13.88-6.3-20.95-4.32S90,55.79,84,60.18C73.5,67.91,62.19,76.78,59.28,90.23"/><path class="cls-2" d="M48.43,64.21c.08,0,1.55,9.05,5.87,12.35-.52,4,3.38,2.18,7.12,9.88,1.79,3.68,4.94,7.51.88,7C45.76,91.6,23.11,71.23,14.7,56.86c-1.33-2.26-2.53-4.81-2.17-7.42.65-4.71,1.54-9.15,6.24-9.93,2.87-.49,6.73-5.5,9.55-4.78,3.32.85.44,4,10.68,11.1,0,0,10.09,9.83,7.81,11.58"/><path class="cls-3" d="M75.22,28c8.06,16.11,5.67,43.47-6,69.05-7.83,2.79-4.65-5.74-6.67-3.63-4.47,4.65-11-14.06-11.94-18.93s.81-11.47,2.55-17.7c1.85-6.6,3.78-13.43,7.37-19.74s9.31-12,13.83-12.11,5.93,7.62,1.74,13.45"/><path class="cls-4" d="M62.17,93l-.06-.3c-1.19-6.93,1.38-24.19,1.52-25.16.2-4.9,2.51-12.22,6.85-21.77,3.23-7.1,6.45-12.85,6.48-12.9C82.05,24.47,90.37,13.18,101.11,7,107.58,3.27,111.8,3.16,112,3.16h0A28.21,28.21,0,0,1,128.54,8.1a21.23,21.23,0,0,1,5.15,5,26.47,26.47,0,0,1,7,17.75,28.28,28.28,0,0,1-1.18,8.91c-2,11.77-15.29,24.47-15.86,25C119.31,70.2,113,75.34,108.4,78.7c-4.94,3.65-8.9,6-8.94,6.06-8.19,5.6-35.82,8.1-37,8.2ZM112,3.82h0s-4.27.12-10.6,3.78C90.8,13.73,82.57,24.9,77.54,33.19c-.13.22-12.78,22.89-13.24,34.39v0c0,.18-2.63,17.58-1.57,24.66C65.84,92,91.49,89.4,99.1,84.2c.05,0,4-2.41,8.91-6,4.53-3.34,10.84-8.45,15.15-13.84l0,0c.13-.13,13.71-12.93,15.68-24.68v0A28.65,28.65,0,0,0,140,30.82a25.76,25.76,0,0,0-6.86-17.29l0,0C133.09,13.39,126.66,3.79,112,3.82Z"/><path class="cls-4" d="M76.53,111.57l-.33-.48A312.39,312.39,0,0,1,42.81,47.67c-1.56-4.83-2.93-13-.57-24.42a64.33,64.33,0,0,1,3.53-11.72A16.68,16.68,0,0,1,56.53,1.21,22.26,22.26,0,0,1,64,0c18.2.11,23.53,6.37,24,6.91,8.74,7.77,11.2,21.24,11.29,21.73,1.63,6.6-.84,22.07-1,23C97.92,65.28,77.64,109.17,76.78,111ZM63.67.67a22.65,22.65,0,0,0-7,1.18,15.78,15.78,0,0,0-10.33,9.91v0C46.3,12,38.12,31,43.44,47.46a312,312,0,0,0,33,62.76c2.36-5.15,20.88-45.94,21.16-58.6v0c0-.16,2.61-16.25,1-22.77v0c0-.14-2.39-13.67-11.1-21.38l0-.05C87.38,7.28,82.22.79,64,.67Z"/><path class="cls-4" d="M70.76,100.92l-.3-.06c-11.61-2.12-30.2-13.52-30.38-13.64C24.41,78.91,14.54,65.37,9,55.48A92.12,92.12,0,0,1,.7,35.81,20.51,20.51,0,0,1,4.1,18.26,26,26,0,0,1,10.43,12c10.25-7.6,19.16-7.47,24.82-6a24.94,24.94,0,0,1,9.94,5A65.68,65.68,0,0,1,62.82,27a62.47,62.47,0,0,1,8.93,16.46,57.38,57.38,0,0,1,3.56,18c1.27,5.11.9,13.25-1.09,24.19-1.48,8.16-3.36,14.91-3.38,15Zm-41.68-95c-5,0-11.33,1.54-18.27,6.68h0a25.62,25.62,0,0,0-6.17,6.09,19.85,19.85,0,0,0-3.29,17A92.19,92.19,0,0,0,9.61,55.17C15.09,65,24.88,78.4,40.41,86.64c.2.13,18.36,11.27,29.87,13.51.8-3,7.2-27.27,4.37-38.57v-.09a55.52,55.52,0,0,0-3.53-17.87,61.52,61.52,0,0,0-8.84-16.27A64.89,64.89,0,0,0,44.81,11.54l-.05,0A24.82,24.82,0,0,0,29.08,5.89Z"/></g></g></svg>