<svg id="Слой_1" data-name="Слой 1" xmlns="http://www.w3.org/2000/svg" viewBox="0 0 188.83 82.11"><defs><style>.cls-1{fill:#45413c;}</style></defs><path class="cls-1" d="M2.63,28.37V3.89A1.41,1.41,0,0,1,4.18,2.3H6.37A1.55,1.55,0,0,1,8,3.62l3,9.35c.45,1.48,1,3.18,1.4,4.69h.08c.38-1.51.91-3.22,1.36-4.69L16.7,3.62A1.57,1.57,0,0,1,18.29,2.3h2.23A1.4,1.4,0,0,1,22,3.89V28.37a.47.47,0,0,1-.49.53H19.16a.47.47,0,0,1-.49-.53l0-13.77c0-2.76,0-5.41.11-8.14h-.08c-.45,1.7-.94,3.59-1.48,5.3L14.5,20.42a1.62,1.62,0,0,1-1.7,1.29h-1a1.6,1.6,0,0,1-1.7-1.29L7.4,11.76c-.49-1.7-1-3.6-1.44-5.3H5.85C5.92,9.19,6,11.84,6,14.6V28.37c0,.34-.15.53-.49.53H3.16a.48.48,0,0,1-.53-.53" transform="translate(-2.47 -2)"/><path class="cls-1" d="M44,22.13V2.91a.46.46,0,0,1,.49-.49h2.38a.47.47,0,0,1,.53.49V22.17c0,2,1.21,3.63,3.06,3.63h2.5V2.91a.47.47,0,0,1,.53-.49H55.8a.46.46,0,0,1,.49.49V25.8h5.49V2.91a.47.47,0,0,1,.53-.49h2.35a.47.47,0,0,1,.53.49v24a1.83,1.83,0,0,1-2,2H50.35c-4.05,0-6.39-3-6.39-6.81" transform="translate(-2.47 -2)"/><path class="cls-1" d="M87,22.51V8.81C87,4.72,89.63,2,93.49,2s6.24,2.84,6.36,7.26a.44.44,0,0,1-.49.49H96.94a.44.44,0,0,1-.49-.49c-.08-2.65-1.25-4-3-4s-3,1.29-3,3.41V22.7c0,2.12,1.1,3.41,3,3.41s3.1-1.55,3.18-4.31a.44.44,0,0,1,.49-.49h2.42a.47.47,0,0,1,.49.53c-.15,4.58-2.69,7.49-6.54,7.49S87,26.59,87,22.51" transform="translate(-2.47 -2)"/><path class="cls-1" d="M120.36,22.17v-13c0-4.24,2.76-7.11,6.7-7.11a6.49,6.49,0,0,1,6.66,6.85V22.44a6.49,6.49,0,0,1-6.66,6.85c-3.94,0-6.7-2.88-6.7-7.12m9.91.41V8.74a3.21,3.21,0,0,0-3.22-3.52c-1.93,0-3.25,1.44-3.25,3.78V22.32c0,2.35,1.32,3.78,3.25,3.78a3.21,3.21,0,0,0,3.22-3.52" transform="translate(-2.47 -2)"/><path class="cls-1" d="M32.86,23.19a3,3,0,1,1,3-3,3,3,0,0,1-3,3m0-5a2,2,0,1,0,2,2,2,2,0,0,0-2-2" transform="translate(-2.47 -2)"/><path class="cls-1" d="M77,23.19a3,3,0,1,1,3-3,3,3,0,0,1-3,3m0-5a2,2,0,1,0,2,2,2,2,0,0,0-2-2" transform="translate(-2.47 -2)"/><path class="cls-1" d="M110,23.19a3,3,0,1,1,3-3,3,3,0,0,1-3,3m0-5a2,2,0,1,0,2,2,2,2,0,0,0-2-2" transform="translate(-2.47 -2)"/><path class="cls-1" d="M2.93,57.59V43.2a.59.59,0,0,1,.65-.65h.93a.7.7,0,0,1,.74.54l2,6.26c.28.89.59,1.76.87,2.65h0c.28-.89.59-1.76.87-2.65l2-6.26a.7.7,0,0,1,.74-.54h.93a.59.59,0,0,1,.65.65V57.6a.21.21,0,0,1-.22.22H12.3a.21.21,0,0,1-.22-.22l0-8.66c0-1.7,0-3.33,0-5h0l-1,3.07-2,6a.72.72,0,0,1-.74.54H7.93A.72.72,0,0,1,7.19,53l-2-6-1-3.07h0c0,1.7,0,3.33,0,5l0,8.66a.21.21,0,0,1-.22.22H3.14a.22.22,0,0,1-.21-.23" transform="translate(-2.47 -2)"/><path class="cls-1" d="M16,54.11V46.28a3.54,3.54,0,0,1,3.54-3.74H21.8a.21.21,0,0,1,.22.22v.78a.21.21,0,0,1-.22.22H19.54a2.31,2.31,0,0,0-2.24,2.52v3.2h4a.21.21,0,0,1,.22.22v.78a.21.21,0,0,1-.22.22h-4v3.41a2.31,2.31,0,0,0,2.24,2.52H21.8a.21.21,0,0,1,.22.22v.78a.21.21,0,0,1-.22.22H19.54A3.53,3.53,0,0,1,16,54.11" transform="translate(-2.47 -2)"/><path class="cls-1" d="M24,57.59V53.13a3.61,3.61,0,0,1,2.22-3.44l-2.35-6.87c0-.15,0-.24.17-.24h.87a.27.27,0,0,1,.26.17l2.26,6.72h2V42.8a.21.21,0,0,1,.22-.22h.87a.21.21,0,0,1,.22.22v6.68h2L35,42.76a.27.27,0,0,1,.26-.17h.87c.15,0,.22.09.17.24L33.93,49.7a3.6,3.6,0,0,1,2.22,3.44V57.6a.21.21,0,0,1-.22.22h-.87a.21.21,0,0,1-.22-.22V53.14a2.25,2.25,0,0,0-2.17-2.43h-2V57.6a.21.21,0,0,1-.22.22h-.87a.21.21,0,0,1-.22-.22V50.7h-2a2.26,2.26,0,0,0-2.17,2.43v4.46a.21.21,0,0,1-.22.22H24.2a.21.21,0,0,1-.22-.22" transform="translate(-2.47 -2)"/><path class="cls-1" d="M37.31,60V57.11a.57.57,0,0,1,.5-.59c1.15-.3,1.59-1.37,1.59-3.2V46.21a3.49,3.49,0,0,1,3.48-3.7H45A1,1,0,0,1,46,43.6v13h.18a1,1,0,0,1,1.09,1.09V60a.21.21,0,0,1-.22.22h-.83A.21.21,0,0,1,46,60V57.8H38.58V60a.21.21,0,0,1-.22.22h-.83a.2.2,0,0,1-.22-.21m7.42-3.37V43.74H42.88a2.26,2.26,0,0,0-2.17,2.48v7.11c0,1.72-.33,2.67-1.09,3.26Z" transform="translate(-2.47 -2)"/><path class="cls-1" d="M48.49,57.66v-.78a.21.21,0,0,1,.22-.22h3A2.31,2.31,0,0,0,54,54.14V52H51.82a3.53,3.53,0,0,1-3.54-3.74V42.8a.21.21,0,0,1,.22-.22h.87a.21.21,0,0,1,.22.22v5.46a2.31,2.31,0,0,0,2.24,2.52H54v-8a.21.21,0,0,1,.22-.22h.87a.21.21,0,0,1,.22.22V54.13a3.54,3.54,0,0,1-3.54,3.74h-3c-.15,0-.24-.08-.24-.21" transform="translate(-2.47 -2)"/><path class="cls-1" d="M64,42.59h.87a.21.21,0,0,1,.22.22V57.6a.21.21,0,0,1-.22.22H64a.21.21,0,0,1-.22-.22V50.68H59.47V57.6a.21.21,0,0,1-.22.22h-.87a.21.21,0,0,1-.22-.22V42.8a.21.21,0,0,1,.22-.22h.87a.21.21,0,0,1,.22.22v6.68h4.35V42.8a.2.2,0,0,1,.22-.21" transform="translate(-2.47 -2)"/><path class="cls-1" d="M68,57.59V46.31c0-2.35,1.44-3.91,3.59-3.91s3.59,1.57,3.59,3.91V57.6a.21.21,0,0,1-.22.22h-.87a.21.21,0,0,1-.22-.22V52.29H69.3V57.6a.21.21,0,0,1-.22.22h-.87a.22.22,0,0,1-.21-.23m5.87-6.52V46.31c0-1.7-.83-2.7-2.28-2.7s-2.28,1-2.28,2.7v4.76Z" transform="translate(-2.47 -2)"/><path class="cls-1" d="M77.87,57.59V46.28c0-2.28,1.35-3.91,3.52-3.91s3.54,1.63,3.54,3.91v2.35a3.33,3.33,0,0,1-3.54,3.5H79.17v5.46a.21.21,0,0,1-.22.22h-.87a.21.21,0,0,1-.21-.22m3.53-6.67a2.12,2.12,0,0,0,2.24-2.28V46.29c0-1.61-.87-2.7-2.24-2.7s-2.22,1.09-2.22,2.7v4.63Z" transform="translate(-2.47 -2)"/><path class="cls-1" d="M86.7,54V46.41a3.69,3.69,0,0,1,3.7-4,3.63,3.63,0,0,1,3.7,3.81v8A3.63,3.63,0,0,1,90.4,58a3.69,3.69,0,0,1-3.7-4m6.09.22v-8a2.4,2.4,0,0,0-2.39-2.59C89,43.61,88,44.7,88,46.41V54c0,1.72,1,2.8,2.39,2.8a2.39,2.39,0,0,0,2.39-2.58" transform="translate(-2.47 -2)"/><path class="cls-1" d="M94.64,60V57.11a.57.57,0,0,1,.5-.59c1.15-.3,1.59-1.37,1.59-3.2V46.21a3.49,3.49,0,0,1,3.48-3.7h2.07a1,1,0,0,1,1.09,1.09v13h.17a1,1,0,0,1,1.09,1.09V60a.21.21,0,0,1-.22.22h-.83a.21.21,0,0,1-.22-.22V57.8H95.9V60a.21.21,0,0,1-.22.22h-.83a.19.19,0,0,1-.21-.21m7.42-3.37V43.74h-1.85A2.27,2.27,0,0,0,98,46.22v7.11c0,1.72-.33,2.67-1.09,3.26Z" transform="translate(-2.47 -2)"/><path class="cls-1" d="M112.34,42.59h.87a.21.21,0,0,1,.22.22V57.6a.21.21,0,0,1-.22.22h-.87a.21.21,0,0,1-.22-.22V50.68h-4.35V57.6a.21.21,0,0,1-.22.22h-.87a.21.21,0,0,1-.22-.22V42.8a.21.21,0,0,1,.22-.22h.87a.21.21,0,0,1,.22.22v6.68h4.35V42.8a.21.21,0,0,1,.22-.21" transform="translate(-2.47 -2)"/><path class="cls-1" d="M116.3,57.59V46.31c0-2.35,1.44-3.91,3.59-3.91s3.59,1.57,3.59,3.91V57.6a.21.21,0,0,1-.22.22h-.87a.21.21,0,0,1-.22-.22V52.29H117.6V57.6a.21.21,0,0,1-.22.22h-.87a.22.22,0,0,1-.21-.23m5.88-6.52V46.31c0-1.7-.83-2.7-2.28-2.7s-2.28,1-2.28,2.7v4.76Z" transform="translate(-2.47 -2)"/><path class="cls-1" d="M132.75,46.28V57.59a.21.21,0,0,1-.22.22h-.87a.21.21,0,0,1-.22-.22V52h-2.33L127,57.64a.22.22,0,0,1-.24.17h-.89a.18.18,0,0,1-.18-.26l2.24-5.81a3.7,3.7,0,0,1-2.33-3.63V46.28c0-2.28,1.35-3.91,3.59-3.91s3.6,1.63,3.6,3.91m-1.31,0c0-1.61-.8-2.7-2.28-2.7s-2.28,1.09-2.28,2.7v1.83a2.35,2.35,0,0,0,2.28,2.63h2.28Z" transform="translate(-2.47 -2)"/><path class="cls-1" d="M140.4,54.2V42.8a.21.21,0,0,1,.22-.22h.87a.21.21,0,0,1,.22.22V54.2a2.26,2.26,0,0,0,2.18,2.43h2V42.8a.21.21,0,0,1,.22-.22h.87a.21.21,0,0,1,.22.22V56.63h4.09V42.8a.21.21,0,0,1,.22-.22h.87a.21.21,0,0,1,.22.22v14a1,1,0,0,1-1.09,1.09H143.9a3.5,3.5,0,0,1-3.5-3.65" transform="translate(-2.47 -2)"/><path class="cls-1" d="M155.58,57.59V42.8a.21.21,0,0,1,.22-.22h.87a.21.21,0,0,1,.22.22v6.68h2.22l2.26-6.72a.27.27,0,0,1,.26-.17h.87c.15,0,.22.09.17.24l-2.35,6.87a3.59,3.59,0,0,1,2.28,3.68V57.6a.21.21,0,0,1-.22.22h-.87a.21.21,0,0,1-.22-.22V53.38c0-1.59-.89-2.67-2.24-2.67h-2.17V57.6a.21.21,0,0,1-.22.22h-.87a.22.22,0,0,1-.21-.23" transform="translate(-2.47 -2)"/><path class="cls-1" d="M164.54,54V46.41a3.69,3.69,0,0,1,3.7-4,3.63,3.63,0,0,1,3.7,3.81v8a3.63,3.63,0,0,1-3.7,3.8,3.69,3.69,0,0,1-3.7-4m6.09.22v-8a2.4,2.4,0,0,0-2.39-2.59c-1.41,0-2.39,1.09-2.39,2.8V54c0,1.72,1,2.8,2.39,2.8a2.39,2.39,0,0,0,2.39-2.58" transform="translate(-2.47 -2)"/><path class="cls-1" d="M172.55,57.66v-.78a.23.23,0,0,1,.22-.24c1.15-.11,1.85-1.17,1.85-2.83V46.2a3.36,3.36,0,0,1,3.48-3.65h2.06a1,1,0,0,1,1.09,1.09v14a.21.21,0,0,1-.22.22h-.87a.21.21,0,0,1-.22-.22V43.76h-1.85c-1.37,0-2.18.91-2.18,2.43V53.8c0,2.33-1.26,4-3.15,4.07a.19.19,0,0,1-.21-.21" transform="translate(-2.47 -2)"/><path class="cls-1" d="M184.12,57.59V46.31c0-2.35,1.44-3.91,3.59-3.91s3.59,1.57,3.59,3.91V57.6a.21.21,0,0,1-.22.22h-.87a.21.21,0,0,1-.22-.22V52.29h-4.57V57.6a.21.21,0,0,1-.22.22h-.87a.22.22,0,0,1-.21-.23M190,51.07V46.31c0-1.7-.83-2.7-2.28-2.7s-2.28,1-2.28,2.7v4.76Z" transform="translate(-2.47 -2)"/><path class="cls-1" d="M2.47,80.39V72.21A3.44,3.44,0,0,1,6,68.47c2,0,3.48,1.61,3.54,4a.21.21,0,0,1-.22.22H8.47a.2.2,0,0,1-.22-.22c-.07-1.81-.94-2.81-2.24-2.81s-2.24.93-2.24,2.52v8.18C3.77,82,4.6,82.9,6,82.9S8.31,81.81,8.36,80a.2.2,0,0,1,.22-.22h.87c.13,0,.22.07.22.19C9.6,82.46,8.15,84.11,6,84.11a3.42,3.42,0,0,1-3.55-3.72" transform="translate(-2.47 -2)"/><path class="cls-1" d="M11.82,83.69V69.29a.59.59,0,0,1,.65-.65h.93a.7.7,0,0,1,.74.54l2,6.26c.28.89.59,1.76.87,2.65h0c.28-.89.59-1.76.87-2.65l2-6.26a.7.7,0,0,1,.74-.54h.93a.59.59,0,0,1,.65.65v14.4a.21.21,0,0,1-.22.22h-.87a.21.21,0,0,1-.22-.22L21,75c0-1.7,0-3.33,0-5h0l-1,3.07-2,6a.72.72,0,0,1-.74.54h-.48a.73.73,0,0,1-.74-.54l-2-6-1-3.07h0c0,1.7,0,3.33,0,5l0,8.66a.21.21,0,0,1-.22.22H12a.2.2,0,0,1-.18-.22" transform="translate(-2.47 -2)"/><path class="cls-1" d="M24.89,80.21V72.38a3.54,3.54,0,0,1,3.54-3.74h2.26a.21.21,0,0,1,.22.22v.78a.21.21,0,0,1-.22.22H28.43a2.31,2.31,0,0,0-2.24,2.52v3.2h4a.21.21,0,0,1,.22.22v.78a.21.21,0,0,1-.22.22h-4v3.41a2.32,2.32,0,0,0,2.24,2.52H30.7a.21.21,0,0,1,.22.22v.78a.21.21,0,0,1-.22.22H28.44a3.54,3.54,0,0,1-3.55-3.74" transform="translate(-2.47 -2)"/><path class="cls-1" d="M33,80.3V68.9a.21.21,0,0,1,.22-.22h.87a.21.21,0,0,1,.22.22V80.3a2.26,2.26,0,0,0,2.18,2.43h2V68.9a.21.21,0,0,1,.22-.22h.87a.21.21,0,0,1,.22.22V82.73h4.09V68.9a.21.21,0,0,1,.22-.22H45a.21.21,0,0,1,.22.22v14A1,1,0,0,1,44.08,84H36.51A3.49,3.49,0,0,1,33,80.3" transform="translate(-2.47 -2)"/><path class="cls-1" d="M48,83.69V72.4c0-2.35,1.44-3.91,3.59-3.91s3.59,1.57,3.59,3.91V83.69a.21.21,0,0,1-.22.22H54.1a.21.21,0,0,1-.22-.22V78.38H49.31v5.31a.21.21,0,0,1-.22.22h-.87a.21.21,0,0,1-.21-.22m5.87-6.52V72.4c0-1.7-.83-2.7-2.28-2.7s-2.28,1-2.28,2.7v4.76h4.56Z" transform="translate(-2.47 -2)"/><path class="cls-1" d="M63.93,68.69h.87a.21.21,0,0,1,.22.22V83.7a.21.21,0,0,1-.22.22h-.87a.21.21,0,0,1-.22-.22V76.79H59.36V83.7a.21.21,0,0,1-.22.22h-.87a.21.21,0,0,1-.22-.22V68.9a.21.21,0,0,1,.22-.22h.87a.21.21,0,0,1,.22.22v6.68h4.35V68.9a.2.2,0,0,1,.22-.21" transform="translate(-2.47 -2)"/><path class="cls-1" d="M73.94,68.69h.87a.21.21,0,0,1,.22.22V83.7a.21.21,0,0,1-.22.22h-.87a.21.21,0,0,1-.22-.22V76.79H69.37V83.7a.21.21,0,0,1-.22.22h-.87a.21.21,0,0,1-.22-.22V68.9a.21.21,0,0,1,.22-.22h.87a.21.21,0,0,1,.22.22v6.68h4.35V68.9a.2.2,0,0,1,.22-.21" transform="translate(-2.47 -2)"/><path class="cls-1" d="M77.61,80.08V72.51a3.69,3.69,0,0,1,3.7-4,3.63,3.63,0,0,1,3.7,3.8v8a3.63,3.63,0,0,1-3.7,3.81,3.69,3.69,0,0,1-3.7-4m6.09.22v-8a2.4,2.4,0,0,0-2.39-2.59c-1.41,0-2.39,1.09-2.39,2.8v7.57c0,1.72,1,2.8,2.39,2.8A2.39,2.39,0,0,0,83.7,80.3" transform="translate(-2.47 -2)"/><path class="cls-1" d="M87.42,83.69V72.34A3.39,3.39,0,0,1,91,68.64H93.2a.21.21,0,0,1,.22.22v.78a.21.21,0,0,1-.22.22H91c-1.44,0-2.24.91-2.24,2.48V83.69a.21.21,0,0,1-.22.22h-.87a.21.21,0,0,1-.21-.22" transform="translate(-2.47 -2)"/><path class="cls-1" d="M93.92,80.08V72.51a3.69,3.69,0,0,1,3.7-4,3.63,3.63,0,0,1,3.7,3.8v8a3.63,3.63,0,0,1-3.7,3.81,3.69,3.69,0,0,1-3.7-4m6.09.22v-8a2.4,2.4,0,0,0-2.39-2.59c-1.41,0-2.39,1.09-2.39,2.8v7.57c0,1.72,1,2.8,2.39,2.8A2.39,2.39,0,0,0,100,80.3" transform="translate(-2.47 -2)"/><path class="cls-1" d="M108.41,80.08V72.51a3.69,3.69,0,0,1,3.7-4,3.63,3.63,0,0,1,3.7,3.8v8a3.63,3.63,0,0,1-3.7,3.81,3.69,3.69,0,0,1-3.7-4m6.09.22v-8a2.4,2.4,0,0,0-2.39-2.59c-1.41,0-2.39,1.09-2.39,2.8v7.57c0,1.72,1,2.8,2.39,2.8a2.39,2.39,0,0,0,2.39-2.58" transform="translate(-2.47 -2)"/><path class="cls-1" d="M118.22,83.28V72.38a3.54,3.54,0,0,1,3.54-3.74h2.59a.21.21,0,0,1,.22.22v.78a.21.21,0,0,1-.22.22h-2.59a2.31,2.31,0,0,0-2.24,2.52v2.87h2.24A3.51,3.51,0,0,1,125.3,79v1.17a3.51,3.51,0,0,1-3.54,3.76h-2.87a.66.66,0,0,1-.67-.66m3.54-.55A2.29,2.29,0,0,0,124,80.19V79a2.29,2.29,0,0,0-2.24-2.54h-2.24v6.26h2.24Z" transform="translate(-2.47 -2)"/><path class="cls-1" d="M126.9,83.76V83a.21.21,0,0,1,.22-.22h3a2.31,2.31,0,0,0,2.24-2.52V78.1h-2.18a3.53,3.53,0,0,1-3.54-3.74V68.9a.21.21,0,0,1,.22-.22h.87a.21.21,0,0,1,.22.22v5.46a2.31,2.31,0,0,0,2.24,2.52h2.18v-8a.21.21,0,0,1,.22-.22h.87a.21.21,0,0,1,.22.22V80.23A3.54,3.54,0,0,1,130.18,84h-3c-.16,0-.24-.08-.24-.21" transform="translate(-2.47 -2)"/><path class="cls-1" d="M141.29,83.69v-5.2h-2.17a3.38,3.38,0,0,1-3.54-3.63v-6a.21.21,0,0,1,.22-.22h.87a.21.21,0,0,1,.22.22v6a2.13,2.13,0,0,0,2.24,2.41h2.17V68.9a.21.21,0,0,1,.22-.22h.87a.21.21,0,0,1,.22.22V83.69a.21.21,0,0,1-.22.22h-.87a.21.21,0,0,1-.23-.22" transform="translate(-2.47 -2)"/><path class="cls-1" d="M145.19,80.21V72.38a3.54,3.54,0,0,1,3.54-3.74H151a.21.21,0,0,1,.22.22v.78a.21.21,0,0,1-.22.22h-2.26a2.31,2.31,0,0,0-2.24,2.52v3.2h4a.21.21,0,0,1,.22.22v.78a.21.21,0,0,1-.22.22h-4v3.41a2.31,2.31,0,0,0,2.24,2.52H151a.21.21,0,0,1,.22.22v.78A.21.21,0,0,1,151,84h-2.26a3.53,3.53,0,0,1-3.54-3.74" transform="translate(-2.47 -2)"/><path class="cls-1" d="M159.34,68.69h.87a.21.21,0,0,1,.22.22V83.7a.21.21,0,0,1-.22.22h-.87a.21.21,0,0,1-.22-.22V76.79h-4.35V83.7a.21.21,0,0,1-.22.22h-.87a.21.21,0,0,1-.22-.22V68.9a.21.21,0,0,1,.22-.22h.87a.21.21,0,0,1,.22.22v6.68h4.35V68.9a.21.21,0,0,1,.22-.21" transform="translate(-2.47 -2)"/><path class="cls-1" d="M169,68.69h.87a.21.21,0,0,1,.22.22v14.4a.59.59,0,0,1-.65.65h-2.83a3.53,3.53,0,0,1-3.54-3.85V68.9a.21.21,0,0,1,.22-.22h.87a.21.21,0,0,1,.22.22V80.1c0,1.54.87,2.63,2.24,2.63h2.17V68.9a.19.19,0,0,1,.21-.21" transform="translate(-2.47 -2)"/><path class="cls-1" d="M179.53,72.38V83.69a.21.21,0,0,1-.22.22h-.87a.21.21,0,0,1-.22-.22V78.06h-2.33l-2.15,5.68a.22.22,0,0,1-.24.17h-.89a.17.17,0,0,1-.17-.26l2.24-5.81a3.7,3.7,0,0,1-2.33-3.63V72.38c0-2.28,1.35-3.91,3.59-3.91s3.59,1.63,3.59,3.91m-1.31,0c0-1.61-.8-2.7-2.28-2.7s-2.28,1.09-2.28,2.7v1.83a2.35,2.35,0,0,0,2.28,2.63h2.28Z" transform="translate(-2.47 -2)"/></svg>