<svg id="Layer_1" data-name="Layer 1" xmlns="http://www.w3.org/2000/svg" viewBox="0 0 198.56 101.54"><defs><style>.cls-1{fill:#b48f97;}.cls-2,.cls-4,.cls-6{fill:none;stroke-miterlimit:10;}.cls-2{stroke:#b48f97;}.cls-3{fill:#b0c3b3;}.cls-4{stroke:#b0c3b3;}.cls-5{fill:#c0bf75;}.cls-6{stroke:#c0bf75;}.cls-7{fill:#292928;}</style></defs><path class="cls-1" d="M63.71,100.5l-.3-.47A278.56,278.56,0,0,1,33.46,43.22c-1.41-4.33-2.64-11.65-.53-21.89a53.27,53.27,0,0,1,3.22-10.47,14.8,14.8,0,0,1,9.65-9.3A20.42,20.42,0,0,1,52.47.5C68.8.62,73.54,6.24,74,6.71c7.84,7,10,19,10.12,19.48,1.46,5.91-.76,19.78-.88,20.6C82.84,59,64.7,98.34,63.94,100ZM52.18,1.09A21.31,21.31,0,0,0,46,2.14,14.26,14.26,0,0,0,36.67,11c-.05.17-7.43,17.26-2.63,32A278.36,278.36,0,0,0,63.59,99.27c2.11-4.56,18.72-41.13,19-52.48v-.06c0-.18,2.34-14.57.87-20.42-.06-.12-2.16-12.23-9.94-19.14h-.06c-.06-.06-4.68-5.91-21.07-6h-.23" transform="translate(0 0)"/><path class="cls-2" d="M63.71,100.5l-.3-.47A278.56,278.56,0,0,1,33.46,43.22c-1.41-4.33-2.64-11.65-.53-21.89a53.27,53.27,0,0,1,3.22-10.47,14.8,14.8,0,0,1,9.65-9.3A20.42,20.42,0,0,1,52.47.5C68.8.62,73.54,6.24,74,6.71c7.84,7,10,19,10.12,19.48,1.46,5.91-.76,19.78-.88,20.6C82.84,59,64.7,98.34,63.94,100ZM52.18,1.09A21.31,21.31,0,0,0,46,2.14,14.26,14.26,0,0,0,36.67,11c-.05.17-7.43,17.26-2.63,32A278.36,278.36,0,0,0,63.59,99.27c2.11-4.56,18.72-41.13,19-52.48v-.06c0-.18,2.34-14.57.87-20.42-.06-.12-2.16-12.23-9.94-19.14h-.06c-.06-.06-4.68-5.91-21.07-6h-.23" transform="translate(0 0)"/><path class="cls-3" d="M63.3,100.1l-.11-.3C61,94,60.38,78.33,60.32,77.45c-.65-4.39.17-11.17,2.4-20.36,1.64-6.79,3.51-12.35,3.51-12.4,3-8.25,8.48-19.61,16.91-26.86,5.09-4.39,8.77-5.15,9-5.21a25.18,25.18,0,0,1,15.39,1.58,21,21,0,0,1,5.38,3.51A23.47,23.47,0,0,1,122,32.16a24.18,24.18,0,0,1,.47,8c.23,10.77-9.36,24.17-9.71,24.69a77.14,77.14,0,0,1-11.12,14.86c-3.75,4-6.85,6.79-6.91,6.85C88.52,92.9,64.59,99.75,63.6,100ZM92.21,13.21h0c-.06,0-3.75.82-8.72,5.09-8.31,7.19-13.63,18.43-16.74,26.56,0,.24-7.37,22.29-5.85,32.53,0,.18.65,15.92,2.81,22C66.4,98.58,88.52,92,94.37,86.17c.06-.06,3.1-2.81,6.79-6.85a75.05,75.05,0,0,0,11.06-14.74c.12-.18,9.89-13.69,9.65-24.4v-.06a26.12,26.12,0,0,0-.41-7.84,23.52,23.52,0,0,0-8.95-14.1h-.06c-.06-.12-7.37-7.43-20.24-5" transform="translate(0 0)"/><path class="cls-4" d="M63.3,100.1l-.11-.3C61,94,60.38,78.33,60.32,77.45c-.65-4.39.17-11.17,2.4-20.36,1.64-6.79,3.51-12.35,3.51-12.4,3-8.25,8.48-19.61,16.91-26.86,5.09-4.39,8.77-5.15,9-5.21a25.18,25.18,0,0,1,15.39,1.58,21,21,0,0,1,5.38,3.51A23.47,23.47,0,0,1,122,32.16a24.18,24.18,0,0,1,.47,8c.23,10.77-9.36,24.17-9.71,24.69a77.14,77.14,0,0,1-11.12,14.86c-3.75,4-6.85,6.79-6.91,6.85C88.52,92.9,64.59,99.75,63.6,100ZM92.21,13.21h0c-.06,0-3.75.82-8.72,5.09-8.31,7.19-13.63,18.43-16.74,26.56,0,.24-7.37,22.29-5.85,32.53,0,.18.65,15.92,2.81,22C66.4,98.58,88.52,92,94.37,86.17c.06-.06,3.1-2.81,6.79-6.85a75.05,75.05,0,0,0,11.06-14.74c.12-.18,9.89-13.69,9.65-24.4v-.06a26.12,26.12,0,0,0-.41-7.84,23.52,23.52,0,0,0-8.95-14.1h-.06c-.06-.12-7.37-7.43-20.24-5" transform="translate(0 0)"/><path class="cls-5" d="M63.91,99.86l-.23-.06C53.26,97.93,36.59,87.69,36.41,87.57,22.37,80.14,13.53,68,8.56,59.13A81.6,81.6,0,0,1,1.13,41.46a18.23,18.23,0,0,1,3-15.68,24.05,24.05,0,0,1,5.68-5.62C19,13.38,27,13.43,32,14.78a22,22,0,0,1,9,4.51,59.76,59.76,0,0,1,15.8,14.27,54.94,54.94,0,0,1,8,14.75A52.18,52.18,0,0,1,68,64.52c1.17,4.56.82,11.87-1,21.64-1.34,7.32-3,13.35-3,13.46ZM26.58,14.66c-4.56,0-10.18,1.41-16.38,6A21.46,21.46,0,0,0,4.64,26.1,17.91,17.91,0,0,0,1.71,41.34a78,78,0,0,0,7.43,17.5C14.06,67.62,22.84,79.67,36.7,87c.18.12,16.5,10.12,26.8,12.11.7-2.63,6.44-24.45,3.92-34.52v-.11a50.9,50.9,0,0,0-3.16-16,55.63,55.63,0,0,0-8-14.57A56.9,56.9,0,0,0,40.68,19.75l-.06-.05a22.72,22.72,0,0,0-8.71-4.33,20.43,20.43,0,0,0-5.33-.71" transform="translate(0 0)"/><path class="cls-6" d="M63.91,99.86l-.23-.06C53.26,97.93,36.59,87.69,36.41,87.57,22.37,80.14,13.53,68,8.56,59.13A81.6,81.6,0,0,1,1.13,41.46a18.23,18.23,0,0,1,3-15.68,24.05,24.05,0,0,1,5.68-5.62C19,13.38,27,13.43,32,14.78a22,22,0,0,1,9,4.51,59.76,59.76,0,0,1,15.8,14.27,54.94,54.94,0,0,1,8,14.75A52.18,52.18,0,0,1,68,64.52c1.17,4.56.82,11.87-1,21.64-1.34,7.32-3,13.35-3,13.46ZM26.58,14.66c-4.56,0-10.18,1.41-16.38,6A21.46,21.46,0,0,0,4.64,26.1,17.91,17.91,0,0,0,1.71,41.34a78,78,0,0,0,7.43,17.5C14.06,67.62,22.84,79.67,36.7,87c.18.12,16.5,10.12,26.8,12.11.7-2.63,6.44-24.45,3.92-34.52v-.11a50.9,50.9,0,0,0-3.16-16,55.63,55.63,0,0,0-8-14.57A56.9,56.9,0,0,0,40.68,19.75l-.06-.05a22.72,22.72,0,0,0-8.71-4.33,20.43,20.43,0,0,0-5.33-.71" transform="translate(0 0)"/><path class="cls-7" d="M141.73,59.17h1a.26.26,0,0,1,.27.27V72.5a.26.26,0,0,1-.27.27h-1a.26.26,0,0,1-.27-.27V66.43h-4.79V72.5a.26.26,0,0,1-.27.27h-1a.26.26,0,0,1-.27-.27V59.44a.26.26,0,0,1,.27-.27h1a.26.26,0,0,1,.27.27V65h4.79V59.44A.26.26,0,0,1,141.73,59.17Z" transform="translate(0 0)"/><path class="cls-7" d="M145.81,68.8A3.93,3.93,0,0,1,150,64.88h2.64V63.11A2.49,2.49,0,0,0,150,60.39a2.42,2.42,0,0,0-2.45,2.51c0,.19-.11.27-.27.27h-1a.26.26,0,0,1-.27-.27,3.94,3.94,0,0,1,4-4,4,4,0,0,1,4.11,4.21V68.8a4.17,4.17,0,1,1-8.33,0Zm6.78,0V66.38H150a2.41,2.41,0,0,0-2.59,2.42A2.51,2.51,0,0,0,150,71.52,2.48,2.48,0,0,0,152.59,68.8Z" transform="translate(0 0)"/><path class="cls-7" d="M156.58,68.53V59.44a.26.26,0,0,1,.28-.27h1a.26.26,0,0,1,.28.27v9.09a2.52,2.52,0,0,0,2.58,2.77h2V59.44a.26.26,0,0,1,.27-.27h1a.26.26,0,0,1,.27.27V71.3h4.57V59.44a.26.26,0,0,1,.27-.27h1a.26.26,0,0,1,.27.27V71.57a1.1,1.1,0,0,1-1.22,1.23h-8.49A4,4,0,0,1,156.58,68.53Z" transform="translate(0 0)"/><path class="cls-7" d="M173.42,68.75V59.44a.26.26,0,0,1,.28-.27h1a.25.25,0,0,1,.27.27v9.31a2.51,2.51,0,0,0,2.73,2.58h2.12V59.44a.26.26,0,0,1,.27-.27h1a.26.26,0,0,1,.27.27V71.6a1.11,1.11,0,0,1-1.23,1.23H177.7A4,4,0,0,1,173.42,68.75Z" transform="translate(0 0)"/><path class="cls-7" d="M143,83.39V95.5a.26.26,0,0,1-.27.27h-1a.26.26,0,0,1-.27-.27V83.67h-4.79V95.5a.26.26,0,0,1-.27.27h-1a.26.26,0,0,1-.27-.27V83.39a1.1,1.1,0,0,1,1.23-1.22h5.44A1.1,1.1,0,0,1,143,83.39Z" transform="translate(0 0)"/><path class="cls-7" d="M145.92,91.75V86.22a4.17,4.17,0,1,1,8.33-.11,3.91,3.91,0,0,1-4.17,4h-2.61v1.67a2.53,2.53,0,0,0,2.61,2.77,2.58,2.58,0,0,0,2.59-2.77.25.25,0,0,1,.27-.28h1a.26.26,0,0,1,.27.28A4.07,4.07,0,0,1,150.08,96,4,4,0,0,1,145.92,91.75Zm4.16-3.16a2.4,2.4,0,0,0,2.62-2.48,2.62,2.62,0,1,0-5.23.11v2.37Z" transform="translate(0 0)"/><path class="cls-7" d="M163.66,82.17h1a.26.26,0,0,1,.27.27V95.5a.26.26,0,0,1-.27.27h-1a.26.26,0,0,1-.27-.27V89.43H158.6V95.5a.26.26,0,0,1-.27.27h-1a.26.26,0,0,1-.27-.27V82.44a.26.26,0,0,1,.27-.27h1a.26.26,0,0,1,.27.27V88h4.79V82.44A.26.26,0,0,1,163.66,82.17Z" transform="translate(0 0)"/><path class="cls-7" d="M167.74,91.8a3.92,3.92,0,0,1,4.13-3.92h2.64V86.11A2.49,2.49,0,0,0,172,83.39a2.42,2.42,0,0,0-2.45,2.51c0,.19-.11.27-.27.27h-1a.26.26,0,0,1-.27-.27,3.93,3.93,0,0,1,4-4,4,4,0,0,1,4.1,4.21V91.8a4.16,4.16,0,1,1-8.32,0Zm6.77,0V89.38h-2.64a2.4,2.4,0,0,0-2.58,2.42,2.51,2.51,0,0,0,2.64,2.72A2.48,2.48,0,0,0,174.51,91.8Z" transform="translate(0 0)"/><path class="cls-7" d="M180.47,95.5V83.67h-3a.26.26,0,0,1-.28-.28v-1a.26.26,0,0,1,.28-.27H185a.26.26,0,0,1,.28.27v1a.26.26,0,0,1-.28.28h-3V95.5a.26.26,0,0,1-.27.27h-1A.26.26,0,0,1,180.47,95.5Z" transform="translate(0 0)"/><path class="cls-7" d="M187.43,94.6V82.44a.26.26,0,0,1,.28-.27h1a.26.26,0,0,1,.28.27v5.17h2.39a4.11,4.11,0,1,1,0,8.22h-2.72A1.11,1.11,0,0,1,187.43,94.6Zm3.95-.27a2.54,2.54,0,0,0,2.72-2.64,2.51,2.51,0,0,0-2.72-2.58H189v5.22ZM197,95.5V82.44a.26.26,0,0,1,.27-.27h1a.26.26,0,0,1,.27.27V95.5a.26.26,0,0,1-.27.27h-1A.26.26,0,0,1,197,95.5Z" transform="translate(0 0)"/></svg>