<svg id="Layer_1" data-name="Layer 1" xmlns="http://www.w3.org/2000/svg" viewBox="0 0 189.88 76.65"><defs><style>.cls-1{fill:#b48f97;}.cls-2,.cls-4,.cls-6{fill:none;stroke-miterlimit:10;}.cls-2{stroke:#b48f97;}.cls-3{fill:#b0c3b3;}.cls-4{stroke:#b0c3b3;}.cls-5{fill:#c0bf75;}.cls-6{stroke:#c0bf75;}</style></defs><path class="cls-1" d="M50.59,89.73l-.23-.35A209.82,209.82,0,0,1,27.87,46.71c-1.06-3.25-2-8.75-.4-16.44a39.27,39.27,0,0,1,2.42-7.86,11.11,11.11,0,0,1,7.25-7,15.71,15.71,0,0,1,5-.79c12.27.09,15.83,4.31,16.17,4.66,5.89,5.26,7.52,14.27,7.61,14.63,1.09,4.44-.58,14.86-.67,15.47-.3,9.17-13.92,38.72-14.49,40ZM41.93,15.07a15.9,15.9,0,0,0-4.64.79,10.71,10.71,0,0,0-7,6.65c0,.13-5.58,13-2,24A208.79,208.79,0,0,0,50.5,88.81c1.58-3.43,14.06-30.89,14.27-39.42v0c0-.14,1.75-10.94.65-15.34,0-.09-1.62-9.18-7.47-14.37h0c0-.05-3.52-4.44-15.83-4.51h-.17" transform="translate(-2.61 -14.13)"/><path class="cls-2" d="M50.59,89.73l-.23-.35A209.82,209.82,0,0,1,27.87,46.71c-1.06-3.25-2-8.75-.4-16.44a39.27,39.27,0,0,1,2.42-7.86,11.11,11.11,0,0,1,7.25-7,15.71,15.71,0,0,1,5-.79c12.27.09,15.83,4.31,16.17,4.66,5.89,5.26,7.52,14.27,7.61,14.63,1.09,4.44-.58,14.86-.67,15.47-.3,9.17-13.92,38.72-14.49,40ZM41.93,15.07a15.9,15.9,0,0,0-4.64.79,10.71,10.71,0,0,0-7,6.65c0,.13-5.58,13-2,24A208.79,208.79,0,0,0,50.5,88.81c1.58-3.43,14.06-30.89,14.27-39.42v0c0-.14,1.75-10.94.65-15.34,0-.09-1.62-9.18-7.47-14.37h0c0-.05-3.52-4.44-15.83-4.51h-.17" transform="translate(-2.61 -14.13)"/><path class="cls-3" d="M50.28,89.43l-.08-.22C48.55,84.85,48.09,73.08,48,72.42c-.49-3.3.13-8.39,1.8-15.29,1.23-5.1,2.64-9.28,2.64-9.31,2.25-6.2,6.37-14.73,12.7-20.18,3.82-3.29,6.59-3.86,6.76-3.91A18.89,18.89,0,0,1,83.5,24.92a15.78,15.78,0,0,1,4,2.63,17.66,17.66,0,0,1,6.82,10.86,18.35,18.35,0,0,1,.36,6c.17,8.09-7,18.16-7.3,18.55a57.52,57.52,0,0,1-8.35,11.16c-2.81,3-5.14,5.1-5.19,5.14C69.22,84,51.25,89.17,50.5,89.36ZM72,24.17h0s-2.82.62-6.55,3.83C59.2,33.4,55.21,41.84,52.87,47.94c0,.18-5.54,16.75-4.39,24.44,0,.13.48,12,2.11,16.52,2-.61,18.63-5.55,23-9.93,0,0,2.33-2.11,5.1-5.14A56.34,56.34,0,0,0,87,62.76c.09-.14,7.43-10.29,7.25-18.33v0A19.67,19.67,0,0,0,94,38.5a17.62,17.62,0,0,0-6.72-10.59h0c0-.09-5.53-5.58-15.2-3.76" transform="translate(-2.61 -14.13)"/><path class="cls-4" d="M50.28,89.43l-.08-.22C48.55,84.85,48.09,73.08,48,72.42c-.49-3.3.13-8.39,1.8-15.29,1.23-5.1,2.64-9.28,2.64-9.31,2.25-6.2,6.37-14.73,12.7-20.18,3.82-3.29,6.59-3.86,6.76-3.91A18.89,18.89,0,0,1,83.5,24.92a15.78,15.78,0,0,1,4,2.63,17.66,17.66,0,0,1,6.82,10.86,18.35,18.35,0,0,1,.36,6c.17,8.09-7,18.16-7.3,18.55a57.52,57.52,0,0,1-8.35,11.16c-2.81,3-5.14,5.1-5.19,5.14C69.22,84,51.25,89.17,50.5,89.36ZM72,24.17h0s-2.82.62-6.55,3.83C59.2,33.4,55.21,41.84,52.87,47.94c0,.18-5.54,16.75-4.39,24.44,0,.13.48,12,2.11,16.52,2-.61,18.63-5.55,23-9.93,0,0,2.33-2.11,5.1-5.14A56.34,56.34,0,0,0,87,62.76c.09-.14,7.43-10.29,7.25-18.33v0A19.67,19.67,0,0,0,94,38.5a17.62,17.62,0,0,0-6.72-10.59h0c0-.09-5.53-5.58-15.2-3.76" transform="translate(-2.61 -14.13)"/><path class="cls-5" d="M50.74,89.25l-.18,0C42.74,87.8,30.22,80.11,30.08,80,19.54,74.44,12.9,65.32,9.17,58.66A60.89,60.89,0,0,1,3.59,45.39,13.71,13.71,0,0,1,5.84,33.61a18.2,18.2,0,0,1,4.27-4.22C17,24.3,23,24.34,26.8,25.35a16.74,16.74,0,0,1,6.76,3.39A44.64,44.64,0,0,1,45.43,39.46a41.61,41.61,0,0,1,6,11.08,39.19,39.19,0,0,1,2.37,12.17c.88,3.42.61,8.91-.75,16.25-1,5.5-2.26,10-2.26,10.11Zm-28-64c-3.42,0-7.65,1.06-12.3,4.51a15.94,15.94,0,0,0-4.18,4.09A13.46,13.46,0,0,0,4,45.3,58.55,58.55,0,0,0,9.6,58.44C13.3,65,19.89,74.09,30.3,79.59c.14.09,12.39,7.6,20.13,9.1.52-2,4.84-18.36,2.94-25.93v-.08a38.32,38.32,0,0,0-2.37-12,42.13,42.13,0,0,0-6-10.94,42.55,42.55,0,0,0-11.7-10.63l0,0A16.87,16.87,0,0,0,26.7,25.8a15,15,0,0,0-4-.54" transform="translate(-2.61 -14.13)"/><path class="cls-6" d="M50.74,89.25l-.18,0C42.74,87.8,30.22,80.11,30.08,80,19.54,74.44,12.9,65.32,9.17,58.66A60.89,60.89,0,0,1,3.59,45.39,13.71,13.71,0,0,1,5.84,33.61a18.2,18.2,0,0,1,4.27-4.22C17,24.3,23,24.34,26.8,25.35a16.74,16.74,0,0,1,6.76,3.39A44.64,44.64,0,0,1,45.43,39.46a41.61,41.61,0,0,1,6,11.08,39.19,39.19,0,0,1,2.37,12.17c.88,3.42.61,8.91-.75,16.25-1,5.5-2.26,10-2.26,10.11Zm-28-64c-3.42,0-7.65,1.06-12.3,4.51a15.94,15.94,0,0,0-4.18,4.09A13.46,13.46,0,0,0,4,45.3,58.55,58.55,0,0,0,9.6,58.44C13.3,65,19.89,74.09,30.3,79.59c.14.09,12.39,7.6,20.13,9.1.52-2,4.84-18.36,2.94-25.93v-.08a38.32,38.32,0,0,0-2.37-12,42.13,42.13,0,0,0-6-10.94,42.55,42.55,0,0,0-11.7-10.63l0,0A16.87,16.87,0,0,0,26.7,25.8a15,15,0,0,0-4-.54" transform="translate(-2.61 -14.13)"/><path d="M110.42,50.77V38.1a.52.52,0,0,1,.57-.57h.83a.62.62,0,0,1,.65.48l1.78,5.51c.24.78.51,1.55.76,2.33h0c.25-.78.52-1.55.76-2.33L117.59,38a.62.62,0,0,1,.65-.48h.83a.52.52,0,0,1,.57.57V50.77a.18.18,0,0,1-.19.19h-.77a.18.18,0,0,1-.19-.19l0-7.62c0-1.49,0-2.92,0-4.42h0l-.84,2.7-1.78,5.28a.64.64,0,0,1-.65.48h-.42a.63.63,0,0,1-.65-.48l-1.78-5.28-.84-2.7h0c0,1.5,0,2.93,0,4.42l0,7.62a.18.18,0,0,1-.19.19h-.77A.18.18,0,0,1,110.42,50.77Z" transform="translate(-2.61 -14.13)"/><path d="M125.79,47.78v-10a.17.17,0,0,1,.19-.19h.76a.17.17,0,0,1,.19.19v10a2,2,0,0,0,1.92,2.15h1.72V37.76a.18.18,0,0,1,.19-.19h.77a.18.18,0,0,1,.19.19V49.93h3.6V37.76a.17.17,0,0,1,.19-.19h.76a.17.17,0,0,1,.19.19V50a.87.87,0,0,1-1,1h-6.66A3.07,3.07,0,0,1,125.79,47.78Z" transform="translate(-2.61 -14.13)"/><path d="M142.57,47.86V40.67a3,3,0,0,1,3.12-3.29c1.8,0,3.06,1.41,3.12,3.54a.18.18,0,0,1-.19.19h-.77a.17.17,0,0,1-.19-.19c-.06-1.59-.82-2.47-2-2.47s-2,.82-2,2.22v7.19c0,1.4.73,2.22,2,2.22s2-1,2.07-2.56c0-.14.07-.19.19-.19h.76c.12,0,.2.05.2.17-.06,2.2-1.34,3.65-3.22,3.65A3,3,0,0,1,142.57,47.86Z" transform="translate(-2.61 -14.13)"/><path d="M154.23,47.59V40.93a3.25,3.25,0,0,1,3.25-3.54,3.19,3.19,0,0,1,3.25,3.35v7a3.19,3.19,0,0,1-3.25,3.35A3.24,3.24,0,0,1,154.23,47.59Zm5.35.19v-7a2.1,2.1,0,0,0-2.1-2.27,2.17,2.17,0,0,0-2.1,2.46v6.66c0,1.51.86,2.47,2.1,2.47A2.11,2.11,0,0,0,159.58,47.78Z" transform="translate(-2.61 -14.13)"/><path d="M110.23,63.85v-4.8a.29.29,0,0,1,.31-.32h.3a.36.36,0,0,1,.37.23l.73,1.57c.16.36.33.74.43,1h0c.11-.29.27-.65.44-1l.73-1.56a.36.36,0,0,1,.36-.23h.31a.29.29,0,0,1,.31.32v4.8a.1.1,0,0,1-.11.11h-.38a.1.1,0,0,1-.1-.11V60.91c0-.56,0-1.12,0-1.48h0c-.16.36-.31.72-.46,1.07L112.83,62a.37.37,0,0,1-.36.24h-.17a.36.36,0,0,1-.36-.24l-.68-1.53c-.16-.35-.29-.71-.45-1.07h0c0,.36,0,.92,0,1.48v2.94a.1.1,0,0,1-.1.11h-.39A.1.1,0,0,1,110.23,63.85Z" transform="translate(-2.61 -14.13)"/><path d="M115.65,62.42V60.31a1.6,1.6,0,1,1,3.19-.05,1.5,1.5,0,0,1-1.59,1.52h-1v.64a1,1,0,0,0,1,1.06,1,1,0,0,0,1-1.06.1.1,0,0,1,.11-.11h.38a.1.1,0,0,1,.11.11,1.55,1.55,0,0,1-1.58,1.63A1.52,1.52,0,0,1,115.65,62.42Zm1.6-1.21a.92.92,0,0,0,1-1,1,1,0,1,0-2,.05v.9Z" transform="translate(-2.61 -14.13)"/><path d="M119.59,63.85V62.53A1.51,1.51,0,0,1,120.71,61l-1.2-2.16c-.05-.07,0-.13.08-.13H120a.13.13,0,0,1,.12.08L121.33,61h.6V58.86a.1.1,0,0,1,.1-.11h.39a.1.1,0,0,1,.1.11V61h.61l1.17-2.14a.14.14,0,0,1,.13-.08h.44a.08.08,0,0,1,.08.13L123.74,61a1.51,1.51,0,0,1,1.13,1.49v1.32a.1.1,0,0,1-.11.11h-.38a.1.1,0,0,1-.11-.11V62.53a1,1,0,0,0-1-1h-.71v2.31a.1.1,0,0,1-.1.11H122a.1.1,0,0,1-.1-.11V61.54h-.71a1,1,0,0,0-1,1v1.32a.1.1,0,0,1-.1.11h-.39A.1.1,0,0,1,119.59,63.85Z" transform="translate(-2.61 -14.13)"/><path d="M125.28,65v-1.4c0-.12.08-.19.23-.22.41-.1.62-.46.62-1V60.5a1.62,1.62,0,0,1,1.59-1.77h.85a.43.43,0,0,1,.47.47v4.19h.11a.42.42,0,0,1,.47.46V65a.09.09,0,0,1-.1.1h-.38a.09.09,0,0,1-.1-.1V64h-3.17v1a.1.1,0,0,1-.11.1h-.37A.1.1,0,0,1,125.28,65Zm3.17-1.6V59.31h-.73c-.59,0-1,.45-1,1.19v1.78a1.44,1.44,0,0,1-.42,1.11Z" transform="translate(-2.61 -14.13)"/><path d="M133.39,58.86v5.65a1.51,1.51,0,0,1-1.58,1.63,1.56,1.56,0,0,1-1.58-1.63.09.09,0,0,1,.1-.1h.39a.09.09,0,0,1,.1.1,1,1,0,0,0,1,1.06.94.94,0,0,0,1-1.06V63.32a1.23,1.23,0,0,1-1,.53,1.54,1.54,0,0,1-1.58-1.63V58.86a.1.1,0,0,1,.1-.11h.39a.1.1,0,0,1,.1.11v3.36a1,1,0,1,0,2,0V58.86a.1.1,0,0,1,.1-.11h.39A.1.1,0,0,1,133.39,58.86Z" transform="translate(-2.61 -14.13)"/><path d="M137.28,58.75h.38a.1.1,0,0,1,.1.11v5a.1.1,0,0,1-.1.11h-.38a.1.1,0,0,1-.11-.11V61.53h-1.83v2.32a.1.1,0,0,1-.1.11h-.39a.1.1,0,0,1-.1-.11v-5a.1.1,0,0,1,.1-.11h.39a.1.1,0,0,1,.1.11V61h1.83V58.86A.1.1,0,0,1,137.28,58.75Z" transform="translate(-2.61 -14.13)"/><path d="M138.84,62.44a1.5,1.5,0,0,1,1.58-1.5h1v-.68a1,1,0,0,0-1-1,.94.94,0,0,0-.94,1c0,.07,0,.1-.1.1H139a.1.1,0,0,1-.11-.1,1.55,1.55,0,1,1,3.1.08v2.18a1.59,1.59,0,1,1-3.18,0Zm2.59,0v-.93h-1a.93.93,0,0,0-1,.93,1,1,0,0,0,1,1A1,1,0,0,0,141.43,62.44Z" transform="translate(-2.61 -14.13)"/><path d="M146.25,60.28v2.15a1.53,1.53,0,0,1-1.5,1.63,1.32,1.32,0,0,1-1.09-.52v2.4a.1.1,0,0,1-.11.1h-.38a.1.1,0,0,1-.11-.1V60.28a1.6,1.6,0,1,1,3.19,0Zm-.59,0a1,1,0,1,0-2,0v2.15a1,1,0,1,0,2,0Z" transform="translate(-2.61 -14.13)"/><path d="M147.19,62.43V60.28a1.6,1.6,0,1,1,3.2,0v2.15a1.6,1.6,0,1,1-3.2,0Zm2.6,0V60.28a1,1,0,1,0-2,0v2.15a1,1,0,1,0,2,0Z" transform="translate(-2.61 -14.13)"/><path d="M150.71,65v-1.4c0-.12.07-.19.22-.22.41-.1.62-.46.62-1V60.5a1.62,1.62,0,0,1,1.59-1.77H154a.42.42,0,0,1,.47.47v4.19h.12a.41.41,0,0,1,.46.46V65a.09.09,0,0,1-.1.1h-.37a.1.1,0,0,1-.11-.1V64h-3.17v1a.1.1,0,0,1-.11.1h-.37A.09.09,0,0,1,150.71,65Zm3.16-1.6V59.31h-.73c-.59,0-1,.45-1,1.19v1.78a1.44,1.44,0,0,1-.42,1.11Z" transform="translate(-2.61 -14.13)"/><path d="M158.37,58.75h.38a.11.11,0,0,1,.11.11v5a.1.1,0,0,1-.11.11h-.38a.1.1,0,0,1-.11-.11V61.53h-1.83v2.32a.1.1,0,0,1-.1.11h-.39a.1.1,0,0,1-.1-.11v-5a.1.1,0,0,1,.1-.11h.39a.1.1,0,0,1,.1.11V61h1.83V58.86A.1.1,0,0,1,158.37,58.75Z" transform="translate(-2.61 -14.13)"/><path d="M159.93,62.44a1.5,1.5,0,0,1,1.58-1.5h1v-.68a1,1,0,0,0-1-1,.92.92,0,0,0-.93,1c0,.07-.05.1-.11.1h-.38a.1.1,0,0,1-.11-.1,1.55,1.55,0,1,1,3.1.08v2.18a1.59,1.59,0,1,1-3.18,0Zm2.59,0v-.93h-1a.93.93,0,0,0-1,.93,1,1,0,0,0,1,1A1,1,0,0,0,162.52,62.44Z" transform="translate(-2.61 -14.13)"/><path d="M167.13,60.2v3.65a.1.1,0,0,1-.1.11h-.39a.1.1,0,0,1-.1-.11V62h-1.07l-1,1.9a.13.13,0,0,1-.13.08h-.45a.08.08,0,0,1-.08-.13l1.08-2a1.55,1.55,0,0,1-.93-1.53,1.6,1.6,0,0,1,1.67-1.67A1.47,1.47,0,0,1,167.13,60.2Zm-.59,0a.89.89,0,0,0-.92-1,1,1,0,0,0-1.08,1.1,1,1,0,0,0,1,1.09h1Z" transform="translate(-2.61 -14.13)"/><path d="M170.65,62.33V58.86a.1.1,0,0,1,.11-.11h.38a.1.1,0,0,1,.1.11v3.47a1,1,0,0,0,1,1.07H173V58.86a.11.11,0,0,1,.11-.11h.38a.1.1,0,0,1,.11.11V63.4h1.75V58.86a.1.1,0,0,1,.1-.11h.38a.1.1,0,0,1,.11.11V63.5a.43.43,0,0,1-.47.47h-3.25A1.55,1.55,0,0,1,170.65,62.33Z" transform="translate(-2.61 -14.13)"/><path d="M180.24,62.53v1.32a.1.1,0,0,1-.11.11h-.38a.1.1,0,0,1-.1-.11V62.53a1,1,0,0,0-1.05-1h-.81v2.31a.1.1,0,0,1-.1.11h-.39a.1.1,0,0,1-.1-.11v-5a.1.1,0,0,1,.1-.11h.39a.1.1,0,0,1,.1.11V61h.71l1.17-2.14a.14.14,0,0,1,.12-.08h.44a.08.08,0,0,1,.08.13L179.11,61A1.51,1.51,0,0,1,180.24,62.53Z" transform="translate(-2.61 -14.13)"/><path d="M181.1,62.43V60.28a1.61,1.61,0,1,1,3.21,0v2.15a1.61,1.61,0,1,1-3.21,0Zm2.61,0V60.28a1,1,0,1,0-2,0v2.15a1,1,0,1,0,2,0Z" transform="translate(-2.61 -14.13)"/><path d="M184.62,63.85v-.36c0-.06,0-.1.11-.11.35-.06.57-.39.57-1V60.29a1.55,1.55,0,0,1,1.63-1.56h.83a.42.42,0,0,1,.47.47v4.65a.1.1,0,0,1-.1.11h-.39a.1.1,0,0,1-.1-.11V59.31h-.71a1,1,0,0,0-1,1v2.08c0,.93-.43,1.54-1.16,1.59A.1.1,0,0,1,184.62,63.85Z" transform="translate(-2.61 -14.13)"/><path d="M189.31,62.44a1.5,1.5,0,0,1,1.58-1.5h1v-.68a1,1,0,0,0-1-1,.93.93,0,0,0-.94,1c0,.07,0,.1-.1.1h-.39a.09.09,0,0,1-.1-.1,1.51,1.51,0,0,1,1.53-1.53,1.52,1.52,0,0,1,1.57,1.61v2.18a1.59,1.59,0,1,1-3.18,0Zm2.59,0v-.93h-1a.92.92,0,0,0-1,.93,1,1,0,1,0,2,0Z" transform="translate(-2.61 -14.13)"/><path d="M110,74.92V72.78a1.54,1.54,0,0,1,1.56-1.64,1.52,1.52,0,0,1,1.56,1.53.1.1,0,0,1-.1.11h-.38a.1.1,0,0,1-.11-.11.94.94,0,0,0-1-1,1,1,0,0,0-1,1.07v2.14a1,1,0,0,0,1,1.06,1,1,0,0,0,1-1.06c0-.07,0-.1.11-.1h.38a.1.1,0,0,1,.11.1,1.59,1.59,0,0,1-1.59,1.63A1.54,1.54,0,0,1,110,74.92Z" transform="translate(-2.61 -14.13)"/><path d="M114.23,76.35V71.54a.28.28,0,0,1,.31-.31h.3a.36.36,0,0,1,.37.23l.72,1.57c.17.35.34.74.44,1h0c.11-.3.26-.66.44-1l.73-1.56a.34.34,0,0,1,.36-.23h.3a.29.29,0,0,1,.32.31v4.81a.1.1,0,0,1-.11.1h-.38a.1.1,0,0,1-.11-.1V73.4c0-.56,0-1.12,0-1.48h0L117.5,73l-.67,1.53a.38.38,0,0,1-.37.23h-.16a.38.38,0,0,1-.37-.23L115.26,73c-.16-.36-.29-.72-.45-1.08h0c0,.36,0,.92,0,1.48v2.95a.09.09,0,0,1-.1.1h-.39A.09.09,0,0,1,114.23,76.35Z" transform="translate(-2.61 -14.13)"/><path d="M119.65,74.91V72.8a1.6,1.6,0,1,1,3.19,0,1.5,1.5,0,0,1-1.6,1.52h-1v.63a1,1,0,0,0,1,1.06,1,1,0,0,0,1-1.06c0-.07,0-.1.11-.1h.38a.1.1,0,0,1,.11.1,1.56,1.56,0,0,1-1.59,1.63A1.52,1.52,0,0,1,119.65,74.91Zm1.59-1.21a.91.91,0,0,0,1-.94,1,1,0,1,0-2,0v.9Z" transform="translate(-2.61 -14.13)"/><path d="M123.8,74.83V71.35a.1.1,0,0,1,.11-.1h.38a.1.1,0,0,1,.11.1v3.48a1,1,0,0,0,1,1.06h.78V71.35a.09.09,0,0,1,.1-.1h.39a.09.09,0,0,1,.1.1v4.54h1.75V71.35a.09.09,0,0,1,.1-.1H129a.09.09,0,0,1,.1.1V76a.42.42,0,0,1-.47.47h-3.24A1.55,1.55,0,0,1,123.8,74.83Z" transform="translate(-2.61 -14.13)"/><path d="M130.07,74.93a1.51,1.51,0,0,1,1.58-1.5h1v-.67a1,1,0,0,0-1-1.05.93.93,0,0,0-.94,1c0,.08,0,.11-.11.11h-.38a.1.1,0,0,1-.1-.11,1.51,1.51,0,0,1,1.53-1.53,1.53,1.53,0,0,1,1.57,1.62v2.17a1.6,1.6,0,1,1-3.19,0Zm2.59,0V74h-1a.92.92,0,0,0-1,.93,1,1,0,1,0,2,0Z" transform="translate(-2.61 -14.13)"/><path d="M136.93,71.25h.39a.09.09,0,0,1,.1.1v5a.09.09,0,0,1-.1.1h-.39a.09.09,0,0,1-.1-.1V74H135v2.32a.1.1,0,0,1-.11.1h-.38a.1.1,0,0,1-.11-.1v-5a.1.1,0,0,1,.11-.1h.38a.1.1,0,0,1,.11.1v2.11h1.83V71.35A.09.09,0,0,1,136.93,71.25Z" transform="translate(-2.61 -14.13)"/><path d="M141.3,71.25h.39a.09.09,0,0,1,.1.1v5a.09.09,0,0,1-.1.1h-.39a.09.09,0,0,1-.1-.1V74h-1.83v2.32a.1.1,0,0,1-.11.1h-.38a.09.09,0,0,1-.1-.1v-5a.09.09,0,0,1,.1-.1h.38a.1.1,0,0,1,.11.1v2.11h1.83V71.35A.09.09,0,0,1,141.3,71.25Z" transform="translate(-2.61 -14.13)"/><path d="M142.91,74.92V72.78a1.6,1.6,0,1,1,3.2,0v2.14a1.6,1.6,0,1,1-3.2,0Zm2.6,0V72.78a1,1,0,1,0-2,0v2.14a1,1,0,1,0,2,0Z" transform="translate(-2.61 -14.13)"/><path d="M147.16,76.35V72.78a1.42,1.42,0,0,1,1.55-1.55h.61a.09.09,0,0,1,.1.1v.36a.1.1,0,0,1-.1.11h-.61a.86.86,0,0,0-1,1v3.57a.1.1,0,0,1-.11.1h-.38A.09.09,0,0,1,147.16,76.35Z" transform="translate(-2.61 -14.13)"/><path d="M149.89,74.92V72.78a1.61,1.61,0,1,1,3.21,0v2.14a1.61,1.61,0,1,1-3.21,0Zm2.61,0V72.78a1,1,0,1,0-2,0v2.14a1,1,0,1,0,2,0Z" transform="translate(-2.61 -14.13)"/><path d="M156.41,74.92V72.78a1.61,1.61,0,1,1,3.21,0v2.14a1.61,1.61,0,1,1-3.21,0Zm2.6,0V72.78a1,1,0,1,0-2,0v2.14a1,1,0,1,0,2,0Z" transform="translate(-2.61 -14.13)"/><path d="M160.66,74.92V71.48a1.85,1.85,0,0,1,1.32-2c.5-.16,1-.27,1.37-.35.08,0,.12,0,.12.1v.35a.1.1,0,0,1-.1.11,9,9,0,0,0-1.29.33c-.56.24-.83.54-.83,1.5v.37a1.33,1.33,0,0,1,1.1-.5A1.52,1.52,0,0,1,163.84,73v1.94a1.59,1.59,0,1,1-3.18,0Zm2.59,0V73a1,1,0,1,0-2,0v1.94a1,1,0,1,0,2,0Z" transform="translate(-2.61 -14.13)"/><path d="M167.94,71.35V77a1.52,1.52,0,0,1-1.58,1.64A1.57,1.57,0,0,1,164.78,77a.09.09,0,0,1,.1-.1h.39a.09.09,0,0,1,.1.1,1,1,0,0,0,1,1.06.94.94,0,0,0,1-1.06V75.82a1.26,1.26,0,0,1-1,.53,1.54,1.54,0,0,1-1.58-1.64V71.35a.09.09,0,0,1,.1-.1h.39a.09.09,0,0,1,.1.1v3.36a1,1,0,1,0,2,0V71.35a.09.09,0,0,1,.1-.1h.39A.09.09,0,0,1,167.94,71.35Z" transform="translate(-2.61 -14.13)"/><path d="M171.57,76.35V74.51h-1A1.54,1.54,0,0,1,169,73V71.35a.09.09,0,0,1,.1-.1h.42a.09.09,0,0,1,.1.1V73a.94.94,0,0,0,.94,1h1V71.35a.09.09,0,0,1,.1-.1h.42a.09.09,0,0,1,.1.1v5a.09.09,0,0,1-.1.1h-.42A.09.09,0,0,1,171.57,76.35Z" transform="translate(-2.61 -14.13)"/><path d="M173.2,74.91V72.8a1.6,1.6,0,1,1,3.19,0,1.5,1.5,0,0,1-1.6,1.52h-1v.63a1,1,0,0,0,1,1.06,1,1,0,0,0,1-1.06c0-.07,0-.1.11-.1h.38a.1.1,0,0,1,.11.1,1.56,1.56,0,0,1-1.59,1.63A1.52,1.52,0,0,1,173.2,74.91Zm1.59-1.21a.91.91,0,0,0,1-.94,1,1,0,1,0-2,0v.9Z" transform="translate(-2.61 -14.13)"/><path d="M180,71.25h.38a.1.1,0,0,1,.11.1v5a.1.1,0,0,1-.11.1H180a.1.1,0,0,1-.11-.1V74h-1.83v2.32a.09.09,0,0,1-.1.1h-.39a.09.09,0,0,1-.1-.1v-5a.09.09,0,0,1,.1-.1H178a.09.09,0,0,1,.1.1v2.11h1.83V71.35A.1.1,0,0,1,180,71.25Z" transform="translate(-2.61 -14.13)"/><path d="M181.73,74.91V71.35a.09.09,0,0,1,.1-.1h.39a.09.09,0,0,1,.1.1v3.56a1,1,0,0,0,1,1h.81V71.35a.1.1,0,0,1,.11-.1h.38a.1.1,0,0,1,.11.1V76a.43.43,0,0,1-.47.47h-.94A1.54,1.54,0,0,1,181.73,74.91Z" transform="translate(-2.61 -14.13)"/><path d="M189,72.69v3.66a.09.09,0,0,1-.1.1h-.39a.09.09,0,0,1-.1-.1V74.47h-1.07l-1,1.91a.13.13,0,0,1-.13.07h-.44c-.08,0-.13,0-.09-.12l1.08-2a1.55,1.55,0,0,1-.93-1.53,1.6,1.6,0,0,1,1.67-1.67A1.47,1.47,0,0,1,189,72.69Zm-.59,0a.88.88,0,0,0-.92-1,1,1,0,0,0-1.08,1.1,1,1,0,0,0,1,1.09h1Z" transform="translate(-2.61 -14.13)"/><path d="M110,87.4V85.29a1.6,1.6,0,1,1,3.19,0,1.5,1.5,0,0,1-1.6,1.52h-1v.63a1,1,0,0,0,1,1.06,1,1,0,0,0,1-1.06c0-.07,0-.1.11-.1h.38a.1.1,0,0,1,.11.1A1.56,1.56,0,0,1,111.61,89,1.53,1.53,0,0,1,110,87.4Zm1.59-1.2a.92.92,0,0,0,1-1,1,1,0,1,0-2,0v.91Z" transform="translate(-2.61 -14.13)"/><path d="M114.07,88.84V87.68a1.52,1.52,0,0,1,.77-1.35,1.49,1.49,0,0,1-.77-1.34V83.84a.1.1,0,0,1,.11-.1h.38a.1.1,0,0,1,.11.1V85a1,1,0,1,0,1.91,0V83.84a.09.09,0,0,1,.1-.1h.39a.09.09,0,0,1,.1.1V85a1.49,1.49,0,0,1-.77,1.34,1.52,1.52,0,0,1,.77,1.35v1.16a.09.09,0,0,1-.1.1h-.39a.09.09,0,0,1-.1-.1V87.68a1,1,0,1,0-1.91,0v1.16a.1.1,0,0,1-.11.1h-.38A.1.1,0,0,1,114.07,88.84Z" transform="translate(-2.61 -14.13)"/><path d="M117.8,88.57a.47.47,0,0,1,.48-.48.48.48,0,0,1,.48.48.49.49,0,0,1-.48.48A.48.48,0,0,1,117.8,88.57Z" transform="translate(-2.61 -14.13)"/><path d="M124.82,81.66h.42a.09.09,0,0,1,.1.1v7.08a.09.09,0,0,1-.1.1h-.42a.09.09,0,0,1-.1-.1V85.53h-2.08v3.31a.09.09,0,0,1-.1.1h-.42a.1.1,0,0,1-.11-.1V81.76a.1.1,0,0,1,.11-.1h.42a.09.09,0,0,1,.1.1V85h2.08v-3.2A.09.09,0,0,1,124.82,81.66Z" transform="translate(-2.61 -14.13)"/><path d="M126.72,88.84v-5.4a1.72,1.72,0,1,1,3.43,0v5.4a.09.09,0,0,1-.1.1h-.42a.09.09,0,0,1-.1-.1V86.3h-2.19v2.54a.09.09,0,0,1-.1.1h-.42A.09.09,0,0,1,126.72,88.84Zm2.81-3.12V83.44c0-.81-.4-1.29-1.09-1.29s-1.1.48-1.1,1.29v2.28Z" transform="translate(-2.61 -14.13)"/><path d="M131.45,87.21V81.76a.09.09,0,0,1,.1-.1H132a.09.09,0,0,1,.1.1v5.45a1.09,1.09,0,0,0,1,1.17h.94V81.76a.09.09,0,0,1,.1-.1h.42a.09.09,0,0,1,.1.1v6.62h2V81.76a.09.09,0,0,1,.1-.1h.42a.09.09,0,0,1,.1.1v6.68a.47.47,0,0,1-.52.52h-3.62A1.67,1.67,0,0,1,131.45,87.21Z" transform="translate(-2.61 -14.13)"/><path d="M141.36,81.66h.41a.1.1,0,0,1,.11.1v6.89a.29.29,0,0,1-.32.31h-1.35a1.69,1.69,0,0,1-1.7-1.84V81.76a.1.1,0,0,1,.11-.1H139a.09.09,0,0,1,.1.1v5.36c0,.74.41,1.26,1.07,1.26h1V81.76A.1.1,0,0,1,141.36,81.66Z" transform="translate(-2.61 -14.13)"/><path d="M145.71,88.84V82.18a.47.47,0,0,1,.52-.52h2.29a.47.47,0,0,1,.52.52v6.66a.1.1,0,0,1-.11.1h-.41a.1.1,0,0,1-.11-.1v-6.6h-2.08v6.6a.09.09,0,0,1-.1.1h-.42A.09.09,0,0,1,145.71,88.84Z" transform="translate(-2.61 -14.13)"/><path d="M150.28,87.17V83.43A1.69,1.69,0,0,1,152,81.64h1.09a.09.09,0,0,1,.1.1v.38a.09.09,0,0,1-.1.1H152a1.11,1.11,0,0,0-1.07,1.21V85h1.91a.09.09,0,0,1,.1.1v.38a.09.09,0,0,1-.1.1H150.9v1.63A1.11,1.11,0,0,0,152,88.38h1.09a.09.09,0,0,1,.1.1v.38a.09.09,0,0,1-.1.1H152A1.69,1.69,0,0,1,150.28,87.17Z" transform="translate(-2.61 -14.13)"/><path d="M157.05,81.66h.42a.09.09,0,0,1,.1.1v7.08a.09.09,0,0,1-.1.1h-.42a.09.09,0,0,1-.1-.1V85.53h-2.08v3.31a.1.1,0,0,1-.11.1h-.41a.1.1,0,0,1-.11-.1V81.76a.1.1,0,0,1,.11-.1h.41a.1.1,0,0,1,.11.1V85H157v-3.2A.09.09,0,0,1,157.05,81.66Z" transform="translate(-2.61 -14.13)"/><path d="M159,88.84v-5.4a1.72,1.72,0,1,1,3.43,0v5.4a.09.09,0,0,1-.1.1h-.42a.09.09,0,0,1-.1-.1V86.3h-2.19v2.54a.09.09,0,0,1-.1.1h-.42A.09.09,0,0,1,159,88.84Zm2.81-3.12V83.44c0-.81-.4-1.29-1.09-1.29s-1.1.48-1.1,1.29v2.28Z" transform="translate(-2.61 -14.13)"/><path d="M166.26,81.76v.38a.1.1,0,0,1-.11.1H164.9v6.6a.09.09,0,0,1-.1.1h-.42a.09.09,0,0,1-.1-.1v-6.6H163a.09.09,0,0,1-.1-.1v-.38a.09.09,0,0,1,.1-.1h3.12A.1.1,0,0,1,166.26,81.76Z" transform="translate(-2.61 -14.13)"/><path d="M167.1,88.42V81.76a.1.1,0,0,1,.11-.1h.41a.09.09,0,0,1,.1.1V84.7h1.08a1.67,1.67,0,0,1,1.66,1.75v.74a1.67,1.67,0,0,1-1.66,1.75h-1.18A.47.47,0,0,1,167.1,88.42Zm1.7-.06a1.09,1.09,0,0,0,1-1.17v-.74a1.09,1.09,0,0,0-1-1.17h-1.08v3.08Zm2.56.48V81.76a.09.09,0,0,1,.1-.1h.42a.09.09,0,0,1,.1.1v7.08a.09.09,0,0,1-.1.1h-.42A.09.09,0,0,1,171.36,88.84Z" transform="translate(-2.61 -14.13)"/></svg>