<svg xmlns="http://www.w3.org/2000/svg" viewBox="0 0 188.57 80.4"><defs><style>.cls-1{fill:#292928;}.cls-2{fill:#b48f97;}.cls-3,.cls-5,.cls-7,.cls-8{fill:none;}.cls-3{stroke:#b48f97;}.cls-3,.cls-5,.cls-7{stroke-miterlimit:10;}.cls-4{fill:#b0c3b3;}.cls-5{stroke:#b0c3b3;}.cls-6{fill:#c0bf75;}.cls-7{stroke:#c0bf75;}</style></defs><g id="Layer_2" data-name="Layer 2"><g id="Слой_1" data-name="Слой 1"><path class="cls-1" d="M120.32,46.23h.45a.14.14,0,0,1,.15.13v8a.14.14,0,0,1-.15.13h-.45a.14.14,0,0,1-.15-.13V50.56H117V54.4a.12.12,0,0,1-.13.13h-.45c-.1,0-.15-.05-.15-.13v-8a.12.12,0,0,1,.14-.13h.46a.12.12,0,0,1,.13.13v3.51h3.19V46.36A.14.14,0,0,1,120.32,46.23Z"/><path class="cls-1" d="M122.75,52.09a2.35,2.35,0,0,1,2.56-2.36H127V48.64a1.64,1.64,0,0,0-1.68-1.84,1.6,1.6,0,0,0-1.66,1.61q0,.15-.15.15H123a.15.15,0,0,1-.15-.15,2.33,2.33,0,0,1,2.41-2.33,2.36,2.36,0,0,1,2.43,2.56v3.45a2.37,2.37,0,0,1-2.43,2.58A2.4,2.4,0,0,1,122.75,52.09Zm4.22,0V50.43h-1.66a1.62,1.62,0,0,0-1.81,1.66A1.69,1.69,0,0,0,125.29,54,1.66,1.66,0,0,0,127,52.09Z"/><path class="cls-1" d="M129.5,51.93V46.36a.13.13,0,0,1,.15-.13h.44a.13.13,0,0,1,.15.13v5.57A1.7,1.7,0,0,0,132,53.84h1.35V46.36a.12.12,0,0,1,.13-.13h.46a.12.12,0,0,1,.14.13v7.48h3V46.36a.12.12,0,0,1,.13-.13h.47a.12.12,0,0,1,.13.13v7.58a.55.55,0,0,1-.6.61H132A2.41,2.41,0,0,1,129.5,51.93Z"/><path class="cls-1" d="M139.75,52.06v-5.7a.14.14,0,0,1,.15-.13h.45a.14.14,0,0,1,.15.13v5.7a1.71,1.71,0,0,0,1.79,1.79h1.43V46.36a.12.12,0,0,1,.13-.13h.47a.12.12,0,0,1,.13.13V54a.55.55,0,0,1-.6.6h-1.56A2.44,2.44,0,0,1,139.75,52.06Z"/><path class="cls-1" d="M120.16,46.36v3.53H117V46.36a.15.15,0,0,0-.15-.14h-.46a.15.15,0,0,0-.14.14v8.06c0,.1.07.1.18.1h.42c.08,0,.15,0,.15-.1V50.57h3.17v3.85c0,.1.07.1.14.1h.46c.07,0,.15,0,.15-.1V46.36a.16.16,0,0,0-.15-.14h-.46A.15.15,0,0,0,120.16,46.36Z"/><path class="cls-1" d="M125.28,54a1.68,1.68,0,0,1-1.79-1.86,1.6,1.6,0,0,1,1.79-1.67H127v1.67A1.65,1.65,0,0,1,125.28,54Zm0,.71a2.36,2.36,0,0,0,2.42-2.57V48.62a2.33,2.33,0,0,0-2.42-2.53,2.28,2.28,0,0,0-2.39,2.32.15.15,0,0,0,.14.14h.43c.1,0,.14,0,.18-.14a1.61,1.61,0,0,1,1.64-1.64A1.66,1.66,0,0,1,127,48.62v1.11h-1.67a2.34,2.34,0,0,0-2.53,2.38A2.38,2.38,0,0,0,125.28,54.68Z"/><path class="cls-1" d="M132,54.54h5.24a.56.56,0,0,0,.61-.61V46.38a.15.15,0,0,0-.14-.14h-.47a.15.15,0,0,0-.14.14v7.45h-3V46.38a.13.13,0,0,0-.14-.14h-.43a.13.13,0,0,0-.14.14v7.45H132a1.69,1.69,0,0,1-1.74-1.89V46.38a.13.13,0,0,0-.14-.14h-.43a.16.16,0,0,0-.18.14v5.56A2.42,2.42,0,0,0,132,54.54Z"/><path class="cls-1" d="M142.29,54.54h1.53a.57.57,0,0,0,.64-.61V46.38a.15.15,0,0,0-.14-.14h-.5a.16.16,0,0,0-.1.14v7.45h-1.43a1.71,1.71,0,0,1-1.82-1.75v-5.7a.13.13,0,0,0-.14-.14h-.43a.16.16,0,0,0-.17.14v5.7A2.42,2.42,0,0,0,142.29,54.54Z"/><path class="cls-1" d="M120.92,60.75v7.56a.14.14,0,0,1-.15.13h-.45a.14.14,0,0,1-.15-.13V60.85H117v7.46a.12.12,0,0,1-.13.13h-.46a.12.12,0,0,1-.14-.13V60.75a.55.55,0,0,1,.62-.61h3.44A.55.55,0,0,1,120.92,60.75Z"/><path class="cls-1" d="M122.87,66V62.58a2.48,2.48,0,1,1,4.95-.07,2.37,2.37,0,0,1-2.6,2.41h-1.61V66a1.67,1.67,0,0,0,1.72,1.86A1.69,1.69,0,0,0,127,66.05a.13.13,0,0,1,.15-.14h.44a.13.13,0,0,1,.15.14,2.39,2.39,0,0,1-2.45,2.52A2.36,2.36,0,0,1,122.87,66Zm2.35-1.81a1.64,1.64,0,0,0,1.85-1.69,1.73,1.73,0,1,0-3.46.07V64.2Z"/><path class="cls-1" d="M133.71,60.14h.45c.09,0,.15,0,.15.13v8a.13.13,0,0,1-.15.13h-.45a.14.14,0,0,1-.15-.13V64.47h-3.18v3.84a.12.12,0,0,1-.14.13h-.44c-.1,0-.15,0-.15-.13v-8a.12.12,0,0,1,.13-.13h.46c.09,0,.14,0,.14.13v3.5h3.18v-3.5C133.56,60.18,133.63,60.14,133.71,60.14Z"/><path class="cls-1" d="M136.14,66a2.34,2.34,0,0,1,2.56-2.36h1.66v-1.1a1.64,1.64,0,0,0-1.68-1.84A1.6,1.6,0,0,0,137,62.31q0,.15-.15.15h-.45a.15.15,0,0,1-.14-.15,2.32,2.32,0,0,1,2.4-2.32,2.35,2.35,0,0,1,2.43,2.55V66a2.36,2.36,0,0,1-2.43,2.57A2.4,2.4,0,0,1,136.14,66Zm4.22,0V64.34H138.7A1.62,1.62,0,0,0,136.89,66a1.69,1.69,0,0,0,1.79,1.87A1.65,1.65,0,0,0,140.36,66Z"/><path class="cls-1" d="M144.25,68.31V60.85h-1.88a.14.14,0,0,1-.13-.15v-.43a.12.12,0,0,1,.13-.13h4.5c.09,0,.14,0,.14.13v.43a.14.14,0,0,1-.14.15H145v7.46a.12.12,0,0,1-.13.13h-.47A.12.12,0,0,1,144.25,68.31Z"/><path class="cls-1" d="M148.46,67.86V60.27a.12.12,0,0,1,.13-.13h.46c.09,0,.14,0,.14.13v3.27h1.61a2.46,2.46,0,1,1,0,4.92h-1.73A.55.55,0,0,1,148.46,67.86Zm2.34-.1A1.7,1.7,0,0,0,152.59,66a1.68,1.68,0,0,0-1.79-1.74h-1.61v3.52Zm3.39.55v-8a.12.12,0,0,1,.13-.13h.46c.09,0,.14,0,.14.13v8a.12.12,0,0,1-.14.13h-.46A.12.12,0,0,1,154.19,68.31Z"/><path class="cls-1" d="M120.3,60.11h-3.46a.56.56,0,0,0-.61.64v7.52a.13.13,0,0,0,.15.14h.46a.13.13,0,0,0,.14-.14V60.86h3.17v7.41a.13.13,0,0,0,.15.14h.46a.13.13,0,0,0,.14-.14V60.75C120.9,60.32,120.69,60.11,120.3,60.11Z"/><path class="cls-1" d="M123.6,64.18V62.54a1.69,1.69,0,0,1,1.71-1.88,1.73,1.73,0,0,1,1.74,1.85,1.64,1.64,0,0,1-1.85,1.67Zm1.71,4.39A2.39,2.39,0,0,0,127.77,66a.17.17,0,0,0-.15-.15h-.46A.16.16,0,0,0,127,66a1.71,1.71,0,1,1-3.42,0V64.9h1.6a2.37,2.37,0,0,0,2.6-2.39A2.42,2.42,0,0,0,125.31,60a2.38,2.38,0,0,0-2.46,2.56V66A2.37,2.37,0,0,0,125.31,68.57Z"/><path class="cls-1" d="M133.56,60.25v3.53h-3.17V60.25a.16.16,0,0,0-.15-.14h-.46a.15.15,0,0,0-.14.14v8c0,.11.07.11.18.11h.42c.07,0,.15,0,.15-.11V64.45h3.17V68.3c0,.11.07.11.14.11h.46c.07,0,.15,0,.15-.11v-8a.16.16,0,0,0-.15-.14h-.46A.15.15,0,0,0,133.56,60.25Z"/><path class="cls-1" d="M138.67,67.85A1.67,1.67,0,0,1,136.89,66a1.6,1.6,0,0,1,1.78-1.67h1.68V66A1.64,1.64,0,0,1,138.67,67.85Zm0,.72A2.36,2.36,0,0,0,141.09,66V62.51A2.32,2.32,0,0,0,138.67,60a2.29,2.29,0,0,0-2.39,2.32.15.15,0,0,0,.15.14h.42c.11,0,.15,0,.18-.14a1.61,1.61,0,0,1,1.64-1.64,1.66,1.66,0,0,1,1.68,1.85v1.1h-1.68A2.34,2.34,0,0,0,136.14,66,2.39,2.39,0,0,0,138.67,68.57Z"/><path class="cls-1" d="M144.36,68.43h.46c.11,0,.15,0,.15-.14V60.84h1.89a.16.16,0,0,0,.14-.18v-.39a.15.15,0,0,0-.14-.14h-4.49a.13.13,0,0,0-.15.14v.39c0,.11,0,.18.15.18h1.88v7.45C144.25,68.39,144.29,68.43,144.36,68.43Z"/><path class="cls-1" d="M149.17,67.72v-3.5h1.63a1.75,1.75,0,1,1,0,3.5Zm5.13.71h.5c.07,0,.1,0,.1-.14v-8c0-.07,0-.14-.1-.14h-.5a.13.13,0,0,0-.11.14v8C154.19,68.39,154.23,68.43,154.3,68.43Zm-5.24,0h1.74a2.46,2.46,0,1,0,0-4.92h-1.63V60.27a.13.13,0,0,0-.11-.14h-.46a.13.13,0,0,0-.15.14v7.55A.55.55,0,0,0,149.06,68.43Z"/><path class="cls-2" d="M72.15,70.65,72,70.36a169.74,169.74,0,0,1-18.24-34.6c-.86-2.63-1.61-7.09-.32-13.33a32.07,32.07,0,0,1,2-6.37,9,9,0,0,1,5.88-5.67,12.54,12.54,0,0,1,4.06-.64c9.94.07,12.83,3.49,13.08,3.78,4.77,4.24,6.09,11.58,6.16,11.86.89,3.6-.46,12-.53,12.55-.22,7.44-11.26,31.39-11.73,32.42Zm-7-60.55a13,13,0,0,0-3.78.65,8.69,8.69,0,0,0-5.66,5.41c0,.11-4.53,10.52-1.61,19.5a170,170,0,0,0,18,34.24c1.28-2.78,11.4-25.05,11.58-32v0c0-.11,1.43-8.87.54-12.44,0-.07-1.32-7.44-6.06-11.65l0,0s-2.85-3.6-12.83-3.68h-.14"/><path class="cls-3" d="M72.15,70.65,72,70.36a169.74,169.74,0,0,1-18.24-34.6c-.86-2.63-1.61-7.09-.32-13.33a32.07,32.07,0,0,1,2-6.37,9,9,0,0,1,5.88-5.67,12.54,12.54,0,0,1,4.06-.64c9.94.07,12.83,3.49,13.08,3.78,4.77,4.24,6.09,11.58,6.16,11.86.89,3.6-.46,12-.53,12.55-.22,7.44-11.26,31.39-11.73,32.42Zm-7-60.55a13,13,0,0,0-3.78.65,8.69,8.69,0,0,0-5.66,5.41c0,.11-4.53,10.52-1.61,19.5a170,170,0,0,0,18,34.24c1.28-2.78,11.4-25.05,11.58-32v0c0-.11,1.43-8.87.54-12.44,0-.07-1.32-7.44-6.06-11.65l0,0s-2.85-3.6-12.83-3.68h-.14"/><path class="cls-4" d="M71.91,70.4l-.08-.17c-1.31-3.57-1.71-13.08-1.74-13.62-.39-2.67.11-6.8,1.46-12.4,1-4.13,2.14-7.52,2.14-7.55,1.85-5,5.16-11.94,10.3-16.36a13.56,13.56,0,0,1,5.45-3.17,15.3,15.3,0,0,1,9.37,1,12.63,12.63,0,0,1,3.28,2.14,14.31,14.31,0,0,1,5.56,8.8,14.65,14.65,0,0,1,.28,4.88c.15,6.56-5.7,14.72-5.91,15a46.69,46.69,0,0,1-6.77,9C93,60.46,91.08,62.14,91,62.17c-3.78,3.85-18.35,8-19,8.2Zm17.6-52.92h0a13.41,13.41,0,0,0-5.31,3.11C79.14,25,75.9,31.81,74,36.76c0,.15-4.49,13.58-3.57,19.82,0,.1.4,9.69,1.72,13.4,1.63-.5,15.1-4.49,18.67-8.06,0,0,1.89-1.71,4.13-4.17a45.64,45.64,0,0,0,6.74-9c.07-.1,6-8.34,5.88-14.86v0a16.2,16.2,0,0,0-.25-4.78,14.4,14.4,0,0,0-5.45-8.59h0c0-.07-4.49-4.52-12.33-3"/><path class="cls-5" d="M71.91,70.4l-.08-.17c-1.31-3.57-1.71-13.08-1.74-13.62-.39-2.67.11-6.8,1.46-12.4,1-4.13,2.14-7.52,2.14-7.55,1.85-5,5.16-11.94,10.3-16.36a13.56,13.56,0,0,1,5.45-3.17,15.3,15.3,0,0,1,9.37,1,12.63,12.63,0,0,1,3.28,2.14,14.31,14.31,0,0,1,5.56,8.8,14.65,14.65,0,0,1,.28,4.88c.15,6.56-5.7,14.72-5.91,15a46.69,46.69,0,0,1-6.77,9C93,60.46,91.08,62.14,91,62.17c-3.78,3.85-18.35,8-19,8.2Zm17.6-52.92h0a13.41,13.41,0,0,0-5.31,3.11C79.14,25,75.9,31.81,74,36.76c0,.15-4.49,13.58-3.57,19.82,0,.1.4,9.69,1.72,13.4,1.63-.5,15.1-4.49,18.67-8.06,0,0,1.89-1.71,4.13-4.17a45.64,45.64,0,0,0,6.74-9c.07-.1,6-8.34,5.88-14.86v0a16.2,16.2,0,0,0-.25-4.78,14.4,14.4,0,0,0-5.45-8.59h0c0-.07-4.49-4.52-12.33-3"/><path class="cls-6" d="M72.28,70.26l-.15,0c-6.34-1.14-16.5-7.37-16.6-7.45-8.55-4.52-13.94-11.9-17-17.31A49.71,49.71,0,0,1,34,34.69a11.11,11.11,0,0,1,1.85-9.55,14.79,14.79,0,0,1,3.46-3.42c5.59-4.13,10.48-4.1,13.54-3.28a13.39,13.39,0,0,1,5.45,2.75A36.37,36.37,0,0,1,68,29.88a33.46,33.46,0,0,1,4.85,9,32,32,0,0,1,2,9.87c.71,2.78.5,7.24-.6,13.19-.82,4.45-1.82,8.12-1.82,8.19ZM49.54,18.37a16.59,16.59,0,0,0-10,3.67,13.25,13.25,0,0,0-3.38,3.32,10.88,10.88,0,0,0-1.78,9.26,47.2,47.2,0,0,0,4.52,10.66c3,5.34,8.34,12.68,16.79,17.17.1.07,10.05,6.17,16.32,7.38.42-1.6,3.92-14.9,2.38-21v-.07A30.91,30.91,0,0,0,72.49,39a33.8,33.8,0,0,0-4.85-8.87,34.44,34.44,0,0,0-9.51-8.63l0,0a13.82,13.82,0,0,0-5.31-2.64,12.23,12.23,0,0,0-3.24-.43"/><path class="cls-7" d="M72.28,70.26l-.15,0c-6.34-1.14-16.5-7.37-16.6-7.45-8.55-4.52-13.94-11.9-17-17.31A49.71,49.71,0,0,1,34,34.69a11.11,11.11,0,0,1,1.85-9.55,14.79,14.79,0,0,1,3.46-3.42c5.59-4.13,10.48-4.1,13.54-3.28a13.39,13.39,0,0,1,5.45,2.75A36.37,36.37,0,0,1,68,29.88a33.46,33.46,0,0,1,4.85,9,32,32,0,0,1,2,9.87c.71,2.78.5,7.24-.6,13.19-.82,4.45-1.82,8.12-1.82,8.19ZM49.54,18.37a16.59,16.59,0,0,0-10,3.67,13.25,13.25,0,0,0-3.38,3.32,10.88,10.88,0,0,0-1.78,9.26,47.2,47.2,0,0,0,4.52,10.66c3,5.34,8.34,12.68,16.79,17.17.1.07,10.05,6.17,16.32,7.38.42-1.6,3.92-14.9,2.38-21v-.07A30.91,30.91,0,0,0,72.49,39a33.8,33.8,0,0,0-4.85-8.87,34.44,34.44,0,0,0-9.51-8.63l0,0a13.82,13.82,0,0,0-5.31-2.64,12.23,12.23,0,0,0-3.24-.43"/><rect class="cls-8" width="188.57" height="80.4"/></g></g></svg>