<svg id="Слой_1" data-name="Слой 1" xmlns="http://www.w3.org/2000/svg" viewBox="0 0 342.31 127.21"><defs><style>.cls-1{fill:#46433e;}.cls-2{isolation:isolate;}.cls-3{fill:none;stroke:#46433e;stroke-miterlimit:10;stroke-width:2px;}</style></defs><path class="cls-1" d="M63.31,99.46,63,99A278.11,278.11,0,0,1,33,42.5c-1.4-4.3-2.63-11.57-.52-21.77a56.75,56.75,0,0,1,3.17-10.45,15,15,0,0,1,9.66-9.2A19.92,19.92,0,0,1,52,0C68.38.1,73.17,5.69,73.55,6.17,81.4,13.1,83.61,25.1,83.69,25.55c1.46,5.88-.75,19.67-.89,20.51C82.55,58.21,64.3,97.33,63.55,99ZM51.76.6a20.67,20.67,0,0,0-6.24,1,14.14,14.14,0,0,0-9.27,8.84h0c-.07.17-7.42,17.13-2.64,31.8a276.5,276.5,0,0,0,29.61,56C65.34,93.65,82,57.29,82.22,46h0c0-.14,2.35-14.49.9-20.3h0c0-.12-2.15-12.18-10-19.06h0C73.05,6.49,68.41.7,52,.6h-.27" transform="translate(0 0)"/><path class="cls-1" d="M63.55,99.65l-.1-.26c-2.25-5.9-2.9-21.54-2.9-22.39-.64-4.35.15-11.19,2.35-20.33,1.64-6.8,3.49-12.4,3.51-12.45,3-8.25,8.43-19.59,16.78-26.85,5-4.37,8.7-5.17,8.85-5.2h0a24.81,24.81,0,0,1,15.25,1.58,18.47,18.47,0,0,1,5.33,3.53,23.74,23.74,0,0,1,9.09,14.45,25.61,25.61,0,0,1,.46,8.05c.22,10.7-9.27,24.12-9.68,24.69-2.9,5.52-7.59,11.12-11,14.85-3.71,4-6.77,6.81-6.8,6.84-6.22,6.31-29.93,13.16-30.93,13.45ZM92.22,12.73h0s-3.71.82-8.62,5.11C75.28,25,70,36.25,66.94,44.41c-.07.21-7.34,22.3-5.83,32.51h0c0,.16.63,15.92,2.74,22,2.7-.77,24.7-7.36,30.42-13.22,0,0,3.09-2.8,6.78-6.82A78,78,0,0,0,112,64.14h0c.1-.14,9.82-13.69,9.58-24.37h0a25.5,25.5,0,0,0-.46-7.89,23.1,23.1,0,0,0-8.87-14.08h0c0-.07-7.26-7.44-20-5" transform="translate(0 0)"/><path class="cls-1" d="M63.19,99.7h-.27c-10.37-2-27-12.22-27.13-12.32C21.79,79.89,13,67.71,8.05,58.82A83.79,83.79,0,0,1,.62,41.12a18.53,18.53,0,0,1,3-15.79,23,23,0,0,1,5.65-5.61c9.16-6.84,17.11-6.73,22.17-5.43a22.23,22.23,0,0,1,8.87,4.5A58.66,58.66,0,0,1,56.1,33.16,56.45,56.45,0,0,1,64.1,48,52.08,52.08,0,0,1,67.26,64.2c1.13,4.6.8,11.92-1,21.77-1.32,7.34-3,13.41-3,13.47ZM26,14.2c-4.51,0-10.12,1.39-16.31,6h0a22.9,22.9,0,0,0-5.5,5.48A18,18,0,0,0,1.21,41,83.25,83.25,0,0,0,8.55,58.54c4.89,8.82,13.64,20.9,27.51,28.32C36.28,87,52.55,97,62.77,99c.72-2.66,6.43-24.54,3.91-34.71v-.08a50.45,50.45,0,0,0-3.13-16.07A55.53,55.53,0,0,0,55.62,33.5,58.28,58.28,0,0,0,40,19.28h0a22,22,0,0,0-14-5.05" transform="translate(0 0)"/><path class="cls-1" d="M171.39,115.54H172a.19.19,0,0,1,.2.18h0v11.1a.19.19,0,0,1-.19.19h-.63a.19.19,0,0,1-.21-.17v-5.32h-4.4v5.3a.17.17,0,0,1-.15.19H166c-.14,0-.2-.07-.2-.19v-11.1a.18.18,0,0,1,.15-.19h.63a.17.17,0,0,1,.19.15v4.88h4.4v-4.84a.2.2,0,0,1,.18-.2Z" transform="translate(0 0)"/><path class="cls-1" d="M174.74,123.64a3.23,3.23,0,0,1,3.19-3.27,1.93,1.93,0,0,1,.34,0h2.28v-1.51a2.26,2.26,0,0,0-2-2.53,2.06,2.06,0,0,0-.35,0,2.2,2.2,0,0,0-2.29,2.11v.12a.19.19,0,0,1-.21.2h-.62a.2.2,0,0,1-.2-.2,3.2,3.2,0,0,1,3.18-3.22h.14a3.26,3.26,0,0,1,3.36,3.16c0,.12,0,.25,0,.38v4.77a3.26,3.26,0,0,1-2.94,3.55h-.41a3.3,3.3,0,0,1-3.49-3.11A3.38,3.38,0,0,1,174.74,123.64Zm5.83,0v-2.29h-2.3a2.25,2.25,0,0,0-2.49,2c0,.11,0,.22,0,.33a2.34,2.34,0,0,0,2.06,2.59,2,2,0,0,0,.42,0,2.29,2.29,0,0,0,2.32-2.26,1.94,1.94,0,0,0,0-.34Z" transform="translate(0 0)"/><path class="cls-1" d="M183.83,123.41v-7.68a.19.19,0,0,1,.19-.19h.64a.19.19,0,0,1,.2.18h0v7.68a2.33,2.33,0,0,0,2,2.62,2.3,2.3,0,0,0,.37,0h1.86V115.73a.18.18,0,0,1,.15-.19h.68a.17.17,0,0,1,.18.16v10.35h4.18V115.73a.18.18,0,0,1,.15-.19h.67a.17.17,0,0,1,.19.15v10.5a.76.76,0,0,1-.66.85h-7.4a3.34,3.34,0,0,1-3.43-3.27C183.82,123.65,183.82,123.53,183.83,123.41Z" transform="translate(0 0)"/><path class="cls-1" d="M198,123.6v-7.87a.19.19,0,0,1,.19-.19h.63a.19.19,0,0,1,.21.17v7.89a2.36,2.36,0,0,0,2.23,2.48h2.25V115.73a.18.18,0,0,1,.15-.19h.68a.17.17,0,0,1,.18.16v10.51a.75.75,0,0,1-.66.83h-2.31a3.37,3.37,0,0,1-3.55-3.18Z" transform="translate(0 0)"/><path class="cls-1" d="M219.55,116.39v10.44a.19.19,0,0,1-.19.19h-.64a.19.19,0,0,1-.2-.18h0v-10.3h-4.41v10.3a.18.18,0,0,1-.15.19h-.68a.17.17,0,0,1-.18-.16V116.39a.77.77,0,0,1,.68-.85.49.49,0,0,1,.17,0h4.75a.77.77,0,0,1,.85.68A.49.49,0,0,1,219.55,116.39Z" transform="translate(0 0)"/><path class="cls-1" d="M222.19,123.67v-4.75a3.42,3.42,0,0,1,6.84-.1h0a3.25,3.25,0,0,1-3.17,3.34,2.81,2.81,0,0,1-.41,0h-2.23v1.52A2.37,2.37,0,0,0,228,124a1.61,1.61,0,0,0,0-.31.18.18,0,0,1,.2-.18h.63a.18.18,0,0,1,.2.16v0a3.31,3.31,0,0,1-3.08,3.52h-.35a3.27,3.27,0,0,1-3.37-3.17C222.18,123.91,222.18,123.79,222.19,123.67Zm3.26-2.5a2.26,2.26,0,0,0,2.53-2,1.62,1.62,0,0,0,0-.38,2.4,2.4,0,1,0-4.79-.33,2,2,0,0,0,0,.43v2.25Z" transform="translate(0 0)"/><path class="cls-1" d="M237.18,115.54h.62a.19.19,0,0,1,.21.17v11.12a.19.19,0,0,1-.19.19h-.64a.19.19,0,0,1-.21-.17v-5.32h-4.42v5.3a.17.17,0,0,1-.15.19h-.66a.18.18,0,0,1-.2-.16V115.73a.18.18,0,0,1,.15-.19h.67a.17.17,0,0,1,.19.15v4.88H237v-4.84a.19.19,0,0,1,.19-.19Z" transform="translate(0 0)"/><path class="cls-1" d="M240.55,123.64a3.23,3.23,0,0,1,3.21-3.27h2.62v-1.51a2.26,2.26,0,0,0-2-2.53,2.06,2.06,0,0,0-.35,0,2.2,2.2,0,0,0-2.29,2.11v.12a.19.19,0,0,1-.21.2h-.62a.2.2,0,0,1-.2-.2,3.2,3.2,0,0,1,3.18-3.22h.14a3.25,3.25,0,0,1,3.36,3.13,2.77,2.77,0,0,1,0,.41v4.77a3.26,3.26,0,0,1-2.94,3.55h-.41a3.31,3.31,0,0,1-3.51-3.11A3.38,3.38,0,0,1,240.55,123.64Zm5.83,0v-2.29h-2.29a2.25,2.25,0,0,0-2.49,2c0,.11,0,.22,0,.33a2.33,2.33,0,0,0,2,2.59,2.06,2.06,0,0,0,.43,0,2.29,2.29,0,0,0,2.32-2.26,1.94,1.94,0,0,0,0-.34Z" transform="translate(0 0)"/><path class="cls-1" d="M251.37,126.83v-10.3h-2.6a.18.18,0,0,1-.18-.2h0v-.59a.18.18,0,0,1,.15-.19H255a.17.17,0,0,1,.19.15v.63a.19.19,0,0,1-.17.21h-2.63v10.3a.17.17,0,0,1-.15.19h-.68a.17.17,0,0,1-.18-.16Z" transform="translate(0 0)"/><path class="cls-1" d="M257.18,126.21V115.73a.18.18,0,0,1,.15-.19H258a.17.17,0,0,1,.18.16v4.55h2.23a3.4,3.4,0,1,1,.37,6.79H258a.75.75,0,0,1-.84-.65A.54.54,0,0,1,257.18,126.21Zm3.23-.13a2.44,2.44,0,1,0,.31-4.87h-2.54v4.87Zm4.68.75v-11.1a.17.17,0,0,1,.15-.19h.68a.17.17,0,0,1,.18.16v11.13a.18.18,0,0,1-.15.19h-.67a.17.17,0,0,1-.19-.15Z" transform="translate(0 0)"/><path class="cls-1" d="M153.3,66.17V51.72a.6.6,0,0,1,.54-.65h1a.71.71,0,0,1,.75.54l2,6.29c.28.89.58,1.77.87,2.66h0c.28-.89.59-1.77.87-2.66l2-6.29a.71.71,0,0,1,.75-.54h.93a.6.6,0,0,1,.66.53V66.17a.21.21,0,0,1-.2.22h-.89a.21.21,0,0,1-.22-.2V52.48h0l-1,3.08-2,6a.72.72,0,0,1-.74.55h-.48a.72.72,0,0,1-.74-.55l-2-6-1-3.08h0V66.17a.21.21,0,0,1-.2.22h-.7a.22.22,0,0,1-.25-.17Z" transform="translate(0 0)"/><path class="cls-1" d="M166.42,62.68V54.82a3.53,3.53,0,0,1,3.32-3.74h2.5a.21.21,0,0,1,.22.2v.8a.21.21,0,0,1-.2.22H170a2.31,2.31,0,0,0-2.25,2.37.86.86,0,0,0,0,.16V58h4a.21.21,0,0,1,.22.2V59a.21.21,0,0,1-.2.22h-4v3.43a2.31,2.31,0,0,0,2.08,2.52h2.43a.21.21,0,0,1,.22.2v.8a.21.21,0,0,1-.2.22H170a3.55,3.55,0,0,1-3.55-3.55Z" transform="translate(0 0)"/><path class="cls-1" d="M174.43,66.17V61.69a3.6,3.6,0,0,1,2.22-3.44l-2.36-6.9c0-.15,0-.24.18-.24h.87a.27.27,0,0,1,.26.18L177.87,58h2V51.3a.21.21,0,0,1,.2-.22H181a.21.21,0,0,1,.22.2V58h2l2.27-6.74a.27.27,0,0,1,.26-.18h.87c.15,0,.22.09.18.24l-2.36,6.9a3.6,3.6,0,0,1,2.22,3.44v4.48a.2.2,0,0,1-.18.22h-.89a.2.2,0,0,1-.21-.19V61.69a2.26,2.26,0,0,0-2.09-2.43h-2.1v6.92a.21.21,0,0,1-.2.22h-.89a.21.21,0,0,1-.22-.2V59.25h-2a2.28,2.28,0,0,0-2.2,2.34.34.34,0,0,1,0,.1v4.48a.2.2,0,0,1-.18.22h-.91A.19.19,0,0,1,174.43,66.17Z" transform="translate(0 0)"/><path class="cls-1" d="M187.8,68.55V65.69a.58.58,0,0,1,.5-.59c1.16-.31,1.6-1.38,1.6-3.21V54.76a3.49,3.49,0,0,1,3.28-3.7h2.28a1,1,0,0,1,1.09.9.61.61,0,0,1,0,.19v13h.18a1,1,0,0,1,1.09.9.67.67,0,0,1,0,.2v2.29a.2.2,0,0,1-.19.21h-.86a.2.2,0,0,1-.22-.18V66.39h-7.48v2.16a.2.2,0,0,1-.19.21H188a.2.2,0,0,1-.22-.18Zm7.44-3.39V52.27h-1.85a2.27,2.27,0,0,0-2.19,2.35c0,.05,0,.09,0,.14v7.13c0,1.72-.33,2.68-1.09,3.27Z" transform="translate(0 0)"/><path class="cls-1" d="M199,66.23v-.78a.21.21,0,0,1,.2-.22h3.07a2.32,2.32,0,0,0,2.27-2.37s0-.11,0-.16V60.56h-2.18A3.55,3.55,0,0,1,198.8,57c0-.08,0-.15,0-.22V51.33a.21.21,0,0,1,.2-.22h.89a.21.21,0,0,1,.22.2v5.5a2.31,2.31,0,0,0,2.1,2.52h2.33v-8a.21.21,0,0,1,.2-.22h.89a.21.21,0,0,1,.22.2V62.7a3.55,3.55,0,0,1-3.34,3.74h-3.27a.21.21,0,0,1-.23-.19Z" transform="translate(0 0)"/><path class="cls-1" d="M214.62,51.11h.87a.2.2,0,0,1,.22.18V66.17a.2.2,0,0,1-.18.22h-.91a.21.21,0,0,1-.22-.2v-7H210v6.94a.21.21,0,0,1-.2.22H209a.21.21,0,0,1-.22-.2V51.33a.21.21,0,0,1,.2-.22h.89a.21.21,0,0,1,.22.2V58h4.36V51.3A.21.21,0,0,1,214.62,51.11Z" transform="translate(0 0)"/><path class="cls-1" d="M218.55,66.17V54.84c0-2.35,1.44-3.92,3.6-3.92s3.61,1.57,3.61,3.92V66.17a.21.21,0,0,1-.2.22h-.9a.2.2,0,0,1-.21-.19V60.84h-4.59v5.33a.2.2,0,0,1-.18.22h-.91a.21.21,0,0,1-.22-.2Zm5.9-6.55V54.84c0-1.7-.83-2.7-2.3-2.7s-2.29,1-2.29,2.7v4.78Z" transform="translate(0 0)"/><path class="cls-1" d="M228.55,66.17V54.82c0-2.29,1.35-3.93,3.54-3.93s3.46,1.64,3.46,3.93v2.36a3.34,3.34,0,0,1-3.16,3.51,2.54,2.54,0,0,1-.39,0h-2.23v5.48a.21.21,0,0,1-.2.22h-.89A.22.22,0,0,1,228.55,66.17Zm3.54-6.7a2.13,2.13,0,0,0,2.24-2,1.31,1.31,0,0,0,0-.28V54.82c0-1.61-.87-2.7-2.24-2.7s-2.23,1.09-2.23,2.7v4.65Z" transform="translate(0 0)"/><path class="cls-1" d="M237.36,62.55V55a3.7,3.7,0,0,1,3.39-4h.32a3.64,3.64,0,0,1,3.71,3.57v8.24a3.64,3.64,0,0,1-3.45,3.82h-.26A3.7,3.7,0,0,1,237.34,63C237.34,62.82,237.35,62.69,237.36,62.55Zm6.11.21v-8a2.4,2.4,0,0,0-2.2-2.58h-.2c-1.42,0-2.4,1.09-2.4,2.81v7.6c0,1.72,1,2.81,2.4,2.81A2.39,2.39,0,0,0,243.48,63,1.93,1.93,0,0,0,243.47,62.76Z" transform="translate(0 0)"/><path class="cls-1" d="M245.33,68.55V65.69a.58.58,0,0,1,.5-.59c1.16-.31,1.59-1.38,1.59-3.21V54.76a3.49,3.49,0,0,1,3.28-3.7H253a1,1,0,0,1,1.09.9.61.61,0,0,1,0,.19v13h.17a1,1,0,0,1,1.09.9.67.67,0,0,1,0,.2v2.29a.2.2,0,0,1-.19.21h-.85a.2.2,0,0,1-.22-.18V66.39h-7.53v2.16a.2.2,0,0,1-.19.21h-.81a.2.2,0,0,1-.22-.18Zm7.44-3.39V52.27h-1.86a2.27,2.27,0,0,0-2.19,2.35c0,.05,0,.09,0,.14v7.13c0,1.72-.33,2.68-1.09,3.27Z" transform="translate(0 0)"/><path class="cls-1" d="M263.09,51.11H264a.21.21,0,0,1,.22.2V66.17a.21.21,0,0,1-.2.22h-.89a.21.21,0,0,1-.22-.2v-7h-4.32v6.94a.21.21,0,0,1-.2.22h-.89a.21.21,0,0,1-.22-.2V51.33a.21.21,0,0,1,.2-.22h.89a.21.21,0,0,1,.22.2V58h4.36V51.3A.2.2,0,0,1,263.09,51.11Z" transform="translate(0 0)"/><path class="cls-1" d="M267.06,66.17V54.84c0-2.35,1.44-3.92,3.6-3.92s3.6,1.57,3.6,3.92V66.17a.2.2,0,0,1-.18.22h-.91a.21.21,0,0,1-.22-.2V60.84h-4.58v5.33a.21.21,0,0,1-.2.22h-.89a.21.21,0,0,1-.22-.2ZM273,59.62V54.84c0-1.7-.83-2.7-2.29-2.7s-2.29,1-2.29,2.7v4.78Z" transform="translate(0 0)"/><path class="cls-1" d="M283.55,54.82V66.17a.21.21,0,0,1-.2.22h-.89a.21.21,0,0,1-.22-.2V60.52h-2.33l-2.16,5.69a.26.26,0,0,1-.25.18h-.89a.17.17,0,0,1-.19-.16.14.14,0,0,1,0-.11l2.24-5.82a3.71,3.71,0,0,1-2.33-3.65V54.82c0-2.29,1.35-3.93,3.6-3.93S283.55,52.53,283.55,54.82Zm-1.31,0c0-1.61-.81-2.7-2.29-2.7s-2.29,1.09-2.29,2.7v1.83a2.36,2.36,0,0,0,2.06,2.62l.23,0h2.29Z" transform="translate(0 0)"/><path class="cls-1" d="M291.24,62.76V51.33a.21.21,0,0,1,.2-.22h.89a.21.21,0,0,1,.22.2V62.76a2.26,2.26,0,0,0,2.08,2.44h2.1V51.33a.2.2,0,0,1,.18-.22h.91a.21.21,0,0,1,.22.2v13.9h4.1V51.33a.21.21,0,0,1,.2-.22h.89a.21.21,0,0,1,.22.2v14a1,1,0,0,1-.9,1.09.61.61,0,0,1-.19,0h-7.6a3.5,3.5,0,0,1-3.52-3.48Z" transform="translate(0 0)"/><path class="cls-1" d="M306.47,66.17V51.33a.21.21,0,0,1,.2-.22h.88a.2.2,0,0,1,.22.18V58H310l2.27-6.74a.27.27,0,0,1,.26-.18h.87c.16,0,.22.09.18.24l-2.36,6.9a3.6,3.6,0,0,1,2.33,3.72v4.23a.21.21,0,0,1-.2.22h-.89a.21.21,0,0,1-.22-.2V61.94c0-1.6-.89-2.69-2.24-2.69h-2.19v6.92a.2.2,0,0,1-.18.22h-.91a.22.22,0,0,1-.25-.17Z" transform="translate(0 0)"/><path class="cls-1" d="M315.47,62.55V55a3.7,3.7,0,0,1,3.37-4h.34a3.63,3.63,0,0,1,3.7,3.55,2.26,2.26,0,0,1,0,.26v8a3.63,3.63,0,0,1-3.43,3.82h-.27A3.69,3.69,0,0,1,315.45,63,3.1,3.1,0,0,1,315.47,62.55Zm6.1.21v-8a2.4,2.4,0,0,0-2.2-2.58h-.19c-1.42,0-2.41,1.09-2.41,2.81v7.6c0,1.72,1,2.81,2.41,2.81A2.39,2.39,0,0,0,321.56,63a1.48,1.48,0,0,0,0-.21Z" transform="translate(0 0)"/><path class="cls-1" d="M323.55,66.23v-.78a.22.22,0,0,1,.2-.24h0c1.11-.11,1.79-1.21,1.79-2.84V54.73a3.38,3.38,0,0,1,3.09-3.65h2.47a1,1,0,0,1,1.09.9.61.61,0,0,1,0,.19v14a.2.2,0,0,1-.18.22h-.91a.21.21,0,0,1-.22-.2V52.29H329c-1.38,0-2.18.92-2.18,2.44v7.64c0,2.34-1.27,4-3.17,4.08A.21.21,0,0,1,323.55,66.23Z" transform="translate(0 0)"/><path class="cls-1" d="M335.11,66.17V54.84c0-2.35,1.44-3.92,3.6-3.92s3.6,1.57,3.6,3.92V66.17a.21.21,0,0,1-.2.22h-.89a.2.2,0,0,1-.22-.18V60.84h-4.59v5.33a.2.2,0,0,1-.18.22h-.91a.2.2,0,0,1-.21-.19ZM341,59.62V54.84c0-1.7-.83-2.7-2.29-2.7s-2.3,1-2.3,2.7v4.78Z" transform="translate(0 0)"/><path class="cls-1" d="M152.84,89V80.83A3.46,3.46,0,0,1,156,77.09h.4c2,0,3.49,1.62,3.56,4a.21.21,0,0,1-.2.22h-.9a.19.19,0,0,1-.21-.17v0c-.07-1.81-.94-2.82-2.25-2.82a2.25,2.25,0,0,0-2.25,2.53V89c0,1.59.83,2.53,2.25,2.53s2.31-1.09,2.36-2.92c0-.16.08-.22.21-.22h.88c.13,0,.22.06.22.2-.07,2.5-1.53,4.16-3.67,4.16a3.45,3.45,0,0,1-3.57-3.32A3.05,3.05,0,0,1,152.84,89Z" transform="translate(0 0)"/><path class="cls-1" d="M162.23,92.36V77.91a.59.59,0,0,1,.52-.65h1.07a.7.7,0,0,1,.74.54l2,6.29c.28.89.59,1.76.87,2.66h.12c.28-.9.59-1.77.87-2.66l2-6.29a.7.7,0,0,1,.74-.54h.94a.59.59,0,0,1,.65.52V92.36a.19.19,0,0,1-.17.21h-.92a.2.2,0,0,1-.22-.18V78.67h0l-1,3.08-2,6a.73.73,0,0,1-.75.55h-.48a.72.72,0,0,1-.74-.55l-2-6-1-3.08h0V92.36a.2.2,0,0,1-.19.21h-.91A.19.19,0,0,1,162.23,92.36Z" transform="translate(0 0)"/><path class="cls-1" d="M175.34,88.87V81a3.55,3.55,0,0,1,3.34-3.74h2.49a.2.2,0,0,1,.22.18v.82a.21.21,0,0,1-.2.22H178.9a2.32,2.32,0,0,0-2.26,2.38c0,.05,0,.1,0,.15v3.21h4a.2.2,0,0,1,.22.18v.82a.2.2,0,0,1-.18.22h-4v3.43a2.33,2.33,0,0,0,2.12,2.52h2.4a.2.2,0,0,1,.22.18v.82a.21.21,0,0,1-.2.22H178.9a3.55,3.55,0,0,1-3.57-3.53C175.33,89,175.34,88.94,175.34,88.87Z" transform="translate(0 0)"/><path class="cls-1" d="M183.48,89V77.52a.21.21,0,0,1,.2-.22h.87a.21.21,0,0,1,.22.2V89a2.29,2.29,0,0,0,2.1,2.45H189V77.52a.2.2,0,0,1,.18-.22H190a.21.21,0,0,1,.22.2V91.4h4.1V77.52a.21.21,0,0,1,.2-.22h.89a.21.21,0,0,1,.22.2v14a1,1,0,0,1-.89,1.1H187a3.5,3.5,0,0,1-3.47-3.53Z" transform="translate(0 0)"/><path class="cls-1" d="M198.55,92.36V81c0-2.36,1.44-3.93,3.6-3.93s3.6,1.57,3.6,3.93V92.36a.2.2,0,0,1-.19.21h-.9a.2.2,0,0,1-.22-.18V87h-4.59v5.33a.2.2,0,0,1-.19.21h-.9A.19.19,0,0,1,198.55,92.36Zm5.89-6.55V81c0-1.7-.83-2.7-2.29-2.7s-2.29,1-2.29,2.7v4.78Z" transform="translate(0 0)"/><path class="cls-1" d="M214.55,77.3h.88a.2.2,0,0,1,.21.19V92.36a.19.19,0,0,1-.17.21h-.92a.19.19,0,0,1-.21-.17v-7H210v6.94a.2.2,0,0,1-.19.21h-.9a.2.2,0,0,1-.22-.18V77.52a.21.21,0,0,1,.2-.22h.89a.21.21,0,0,1,.22.2v6.72h4.37v-6.7a.2.2,0,0,1,.18-.22Z" transform="translate(0 0)"/><path class="cls-1" d="M224.55,77.3h.87a.21.21,0,0,1,.22.2V92.36a.2.2,0,0,1-.19.21h-.9a.2.2,0,0,1-.22-.18v-7H220v6.94a.2.2,0,0,1-.19.21h-.9a.2.2,0,0,1-.22-.18V77.52a.21.21,0,0,1,.2-.22h.89a.21.21,0,0,1,.22.2v6.72h4.36v-6.7a.21.21,0,0,1,.2-.22Z" transform="translate(0 0)"/><path class="cls-1" d="M228.24,88.73V81.14a3.72,3.72,0,0,1,3.41-4h.3a3.63,3.63,0,0,1,3.71,3.56,2.26,2.26,0,0,1,0,.26v8a3.64,3.64,0,0,1-3.45,3.82H232a3.72,3.72,0,0,1-3.73-3.69C228.22,89,228.23,88.85,228.24,88.73Zm6.11.22V81a2.4,2.4,0,0,0-2.2-2.58H232c-1.42,0-2.4,1.09-2.4,2.81v7.59c0,1.73,1,2.82,2.4,2.82a2.41,2.41,0,0,0,2.41-2.39c0-.07,0-.13,0-.19Z" transform="translate(0 0)"/><path class="cls-1" d="M238.08,92.36V81a3.4,3.4,0,0,1,3.07-3.7,2.68,2.68,0,0,1,.49,0h2.25a.19.19,0,0,1,.21.17v.83a.2.2,0,0,1-.18.22h-2.28c-1.44,0-2.25.91-2.25,2.49V92.36a.2.2,0,0,1-.19.21h-.9a.2.2,0,0,1-.22-.18Z" transform="translate(0 0)"/><path class="cls-1" d="M244.61,88.73V81.14A3.72,3.72,0,1,1,252,80.7a2.26,2.26,0,0,1,0,.26v8a3.64,3.64,0,0,1-3.45,3.82h-.26A3.72,3.72,0,0,1,244.61,88.73Zm6.11.22V81a2.41,2.41,0,0,0-2.22-2.58h-.18c-1.42,0-2.4,1.09-2.4,2.81v7.59c0,1.73,1,2.82,2.4,2.82a2.41,2.41,0,0,0,2.41-2.41c0-.06,0-.11,0-.17Z" transform="translate(0 0)"/><path class="cls-1" d="M259.14,88.73V81.14a3.72,3.72,0,0,1,3.41-4h.3a3.64,3.64,0,0,1,3.7,3.58v8.2a3.64,3.64,0,0,1-3.45,3.82h-.26A3.71,3.71,0,0,1,259.13,89C259.13,88.93,259.13,88.83,259.14,88.73Zm6.11.22V81a2.4,2.4,0,0,0-2.2-2.58h-.2c-1.42,0-2.4,1.09-2.4,2.81v7.59c0,1.73,1,2.82,2.4,2.82a2.41,2.41,0,0,0,2.41-2.39c0-.07,0-.13,0-.19Z" transform="translate(0 0)"/><path class="cls-1" d="M269,91.94V81a3.55,3.55,0,0,1,3.35-3.73h2.82a.19.19,0,0,1,.21.17v.83a.2.2,0,0,1-.18.22h-2.63a2.32,2.32,0,0,0-2.27,2.37c0,.05,0,.1,0,.15v2.88h2.26a3.53,3.53,0,0,1,3.57,3.49,2.81,2.81,0,0,1,0,.29v1.17a3.54,3.54,0,0,1-3.26,3.78h-3.18A.69.69,0,0,1,269,91.94Zm3.57-.54A2.31,2.31,0,0,0,274.81,89a1.41,1.41,0,0,0,0-.2V87.67a2.31,2.31,0,0,0-2.05-2.55H270.3V91.4Z" transform="translate(0 0)"/><path class="cls-1" d="M277.69,92.42v-.78a.2.2,0,0,1,.18-.22H281A2.32,2.32,0,0,0,283.22,89c0-.05,0-.1,0-.15V86.75H281a3.55,3.55,0,0,1-3.57-3.53c0-.08,0-.15,0-.22V77.52a.21.21,0,0,1,.2-.22h.88a.21.21,0,0,1,.22.2V83a2.31,2.31,0,0,0,2.1,2.52h2.33v-8a.21.21,0,0,1,.2-.22h.89a.21.21,0,0,1,.22.2V88.89a3.55,3.55,0,0,1-3.34,3.74H277.9a.21.21,0,0,1-.21-.21Z" transform="translate(0 0)"/><path class="cls-1" d="M292.14,92.36V87.14H290A3.39,3.39,0,0,1,286.39,84c0-.15,0-.3,0-.45v-6a.2.2,0,0,1,.18-.22h.91a.21.21,0,0,1,.22.2v6a2.12,2.12,0,0,0,1.82,2.4,2,2,0,0,0,.42,0h2.19v-8.4a.2.2,0,0,1,.18-.22h.91a.21.21,0,0,1,.22.2V92.36a.2.2,0,0,1-.19.21h-.91a.19.19,0,0,1-.21-.17Z" transform="translate(0 0)"/><path class="cls-1" d="M296,88.87V81a3.55,3.55,0,0,1,3.34-3.74h2.49a.2.2,0,0,1,.22.18v.82a.21.21,0,0,1-.2.22H299.6a2.32,2.32,0,0,0-2.26,2.38c0,.05,0,.1,0,.15v3.21h4a.2.2,0,0,1,.22.18v.82a.2.2,0,0,1-.18.22h-4v3.43a2.33,2.33,0,0,0,2.12,2.52h2.4a.2.2,0,0,1,.22.18v.82a.21.21,0,0,1-.2.22H299.6A3.55,3.55,0,0,1,296,89.08C296,89,296,88.94,296,88.87Z" transform="translate(0 0)"/><path class="cls-1" d="M310.25,77.3h.87a.21.21,0,0,1,.22.2V92.36a.2.2,0,0,1-.19.21h-.9a.2.2,0,0,1-.22-.18v-7h-4.36v6.94a.2.2,0,0,1-.19.21h-.93a.19.19,0,0,1-.21-.17V77.52a.2.2,0,0,1,.18-.22h.91a.21.21,0,0,1,.22.2v6.72H310v-6.7a.2.2,0,0,1,.2-.22Z" transform="translate(0 0)"/><path class="cls-1" d="M319.94,77.3h.87a.21.21,0,0,1,.22.2V92a.59.59,0,0,1-.53.66h-2.95A3.55,3.55,0,0,1,314,89.13c0-.11,0-.22,0-.33V77.52a.21.21,0,0,1,.2-.22h.89a.21.21,0,0,1,.22.2V88.76c0,1.54.87,2.64,2.25,2.64h2.18V77.52a.21.21,0,0,1,.2-.22Z" transform="translate(0 0)"/><path class="cls-1" d="M330.55,81V92.36a.2.2,0,0,1-.19.21h-.9a.2.2,0,0,1-.22-.18V86.71h-2.33l-2.16,5.69a.25.25,0,0,1-.24.17h-1a.18.18,0,0,1-.2-.14.27.27,0,0,1,0-.12l2.24-5.82a3.73,3.73,0,0,1-2.33-3.65V81c0-2.29,1.35-3.93,3.6-3.93A3.6,3.6,0,0,1,330.55,81Zm-1.31,0c0-1.62-.81-2.71-2.29-2.71s-2.29,1.09-2.29,2.71v1.83a2.36,2.36,0,0,0,2.06,2.62l.23,0h2.29Z" transform="translate(0 0)"/><g class="cls-2"><path class="cls-1" d="M154.06,32.8V8.24a1.41,1.41,0,0,1,1.55-1.6h2.21A1.55,1.55,0,0,1,159.41,8l3,9.38c.46,1.48,1,3.19,1.41,4.7h.07c.38-1.51.91-3.22,1.37-4.7l3-9.38a1.59,1.59,0,0,1,1.6-1.33H172a1.4,1.4,0,0,1,1.52,1.6V32.8a.47.47,0,0,1-.49.53h-2.39a.47.47,0,0,1-.5-.53l0-13.82c0-2.77,0-5.43.12-8.16h-.08c-.45,1.71-.95,3.6-1.48,5.31L166,24.83a1.63,1.63,0,0,1-1.71,1.29h-1a1.63,1.63,0,0,1-1.71-1.29l-2.77-8.7c-.49-1.71-1-3.6-1.44-5.31h-.11c.07,2.73.11,5.39.15,8.16V32.8c0,.34-.15.53-.5.53h-2.35A.48.48,0,0,1,154.06,32.8Z" transform="translate(0 0)"/></g><g class="cls-2"><path class="cls-1" d="M195.52,26.53V7.25a.46.46,0,0,1,.49-.49h2.4a.47.47,0,0,1,.53.49V26.57c0,2.05,1.21,3.65,3.07,3.65h2.51v-23a.47.47,0,0,1,.53-.49h2.35a.46.46,0,0,1,.5.49v23h5.5v-23a.47.47,0,0,1,.53-.49h2.36a.47.47,0,0,1,.53.49V31.36a1.83,1.83,0,0,1-2,2H201.94C197.87,33.37,195.52,30.37,195.52,26.53Z" transform="translate(0 0)"/></g><g class="cls-2"><path class="cls-1" d="M238.73,26.91V13.17c0-4.1,2.62-6.83,6.49-6.83,3.72,0,6.27,2.85,6.38,7.29a.44.44,0,0,1-.49.49h-2.43a.44.44,0,0,1-.49-.49c-.08-2.66-1.26-4.07-3-4.07-1.9,0-3,1.3-3,3.42V27.1c0,2.13,1.1,3.42,3,3.42s3.11-1.56,3.19-4.33a.43.43,0,0,1,.49-.49h2.43a.47.47,0,0,1,.49.53c-.15,4.59-2.69,7.52-6.57,7.52S238.73,31,238.73,26.91Z" transform="translate(0 0)"/></g><g class="cls-2"><path class="cls-1" d="M274.18,26.57V13.51c0-4.25,2.77-7.13,6.72-7.13a6.5,6.5,0,0,1,6.68,6.87V26.84a6.51,6.51,0,0,1-6.68,6.87C277,33.71,274.18,30.82,274.18,26.57Zm9.95.42V13.1a3.22,3.22,0,0,0-3.23-3.54c-1.93,0-3.26,1.45-3.26,3.8V26.72c0,2.36,1.33,3.8,3.26,3.8A3.22,3.22,0,0,0,284.13,27Z" transform="translate(0 0)"/></g><polygon class="cls-1" points="159.07 113.02 157.51 115.07 157.51 115.1 159.99 114.78 159.99 115.89 157.51 115.6 157.51 115.63 159.09 117.6 158.05 118.19 157.07 115.89 157.03 115.89 155.97 118.21 155.03 117.61 156.59 115.61 156.59 115.58 154.16 115.89 154.16 114.78 156.57 115.09 156.57 115.05 155.03 113.05 156.03 112.48 157.05 114.76 157.08 114.76 158.08 112.46 159.07 113.02"/><circle class="cls-3" cx="184.38" cy="24.57" r="2.53"/><circle class="cls-3" cx="228.67" cy="24.57" r="2.53"/><circle class="cls-3" cx="263.78" cy="24.57" r="2.53"/></svg>