<svg id="Слой_1" data-name="Слой 1" xmlns="http://www.w3.org/2000/svg" viewBox="0 0 342.31 127.2"><defs><style>.cls-1,.cls-3{fill:#46433e;}.cls-2,.cls-3{isolation:isolate;}.cls-3{font-size:37.97px;font-family:Phenomena-Bold, Phenomena;font-weight:700;letter-spacing:0.47em;}.cls-4{letter-spacing:0.47em;}.cls-5{letter-spacing:0.47em;}.cls-6{fill:none;stroke:#46433e;stroke-miterlimit:10;stroke-width:2px;}</style></defs><path class="cls-1" d="M73.76,99.46l-.3-.43a277.87,277.87,0,0,1-30-56.53c-1.4-4.3-2.63-11.57-.52-21.77a57.28,57.28,0,0,1,3.17-10.45,15,15,0,0,1,9.66-9.2A20,20,0,0,1,62.49,0C78.83.1,83.62,5.69,84,6.17,91.85,13.1,94.06,25.1,94.14,25.55c1.46,5.88-.75,19.67-.89,20.51C93,58.21,74.75,97.33,74,99ZM62.21.6a20.54,20.54,0,0,0-6.24,1,14.14,14.14,0,0,0-9.27,8.84v0c-.07.17-7.42,17.13-2.64,31.8a276.8,276.8,0,0,0,29.61,56c2.12-4.59,18.75-40.95,19-52.25v0c0-.14,2.35-14.49.9-20.3v0c0-.12-2.15-12.18-10-19.06l0,0C83.5,6.49,78.86.7,62.48.6h-.27" transform="translate(-10.45 0)"/><path class="cls-1" d="M74,99.65l-.1-.26C71.65,93.49,71,77.85,71,77c-.64-4.35.15-11.19,2.35-20.33,1.64-6.8,3.49-12.4,3.51-12.45,3-8.25,8.43-19.59,16.78-26.85,5-4.37,8.7-5.17,8.85-5.2h0a24.81,24.81,0,0,1,15.25,1.58,18.42,18.42,0,0,1,5.33,3.53,23.76,23.76,0,0,1,9.09,14.45,25.65,25.65,0,0,1,.46,8.05c.22,10.7-9.27,24.12-9.68,24.69-2.9,5.52-7.59,11.12-11,14.85-3.71,4-6.77,6.81-6.8,6.84-6.22,6.31-29.93,13.16-30.93,13.45Zm28.67-86.92h0s-3.71.82-8.62,5.11C85.73,25,80.41,36.25,77.39,44.41c-.07.21-7.34,22.3-5.83,32.51v0c0,.16.63,15.92,2.74,22C77,98.15,99,91.56,104.72,85.7c0,0,3.09-2.8,6.78-6.82,3.4-3.7,8-9.27,10.92-14.74l0,0c.1-.14,9.82-13.69,9.58-24.37v0a25.64,25.64,0,0,0-.46-7.89,23.09,23.09,0,0,0-8.87-14.08l0,0c0-.07-7.26-7.44-20-4.95" transform="translate(-10.45 0)"/><path class="cls-1" d="M73.64,99.7l-.27,0C63,97.74,46.4,87.48,46.24,87.38c-14-7.49-22.8-19.67-27.74-28.56a83.85,83.85,0,0,1-7.43-17.7,18.56,18.56,0,0,1,3-15.79,23,23,0,0,1,5.65-5.61c9.16-6.84,17.11-6.73,22.17-5.43a22.32,22.32,0,0,1,8.87,4.5A58.71,58.71,0,0,1,66.55,33.16a56.45,56.45,0,0,1,8,14.81A52.18,52.18,0,0,1,77.71,64.2c1.13,4.6.8,11.92-1,21.77-1.32,7.34-3,13.41-3,13.47ZM36.43,14.2c-4.51,0-10.12,1.39-16.31,6h0a23,23,0,0,0-5.5,5.48A18,18,0,0,0,11.66,41,82.84,82.84,0,0,0,19,58.54c4.89,8.82,13.64,20.9,27.51,28.32C46.73,87,63,97,73.22,99c.72-2.66,6.43-24.54,3.91-34.71v-.08A50.49,50.49,0,0,0,74,48.14,55.49,55.49,0,0,0,66.07,33.5a58.19,58.19,0,0,0-15.6-14.22l0,0a21.93,21.93,0,0,0-14-5.05" transform="translate(-10.45 0)"/><g class="cls-2"><path class="cls-1" d="M181.84,115.54h.62a.19.19,0,0,1,.2.19v11.1a.19.19,0,0,1-.2.19h-.62a.19.19,0,0,1-.21-.19v-5.3h-4.4v5.3a.17.17,0,0,1-.19.19h-.62c-.14,0-.2-.07-.2-.19v-11.1a.17.17,0,0,1,.18-.19H177a.17.17,0,0,1,.19.19v4.84h4.4v-4.84A.19.19,0,0,1,181.84,115.54Z" transform="translate(-10.45 0)"/><path class="cls-1" d="M185.19,123.64a3.23,3.23,0,0,1,3.53-3.26H191v-1.51a2.27,2.27,0,0,0-2.32-2.55,2.2,2.2,0,0,0-2.29,2.23c0,.14-.09.2-.21.2h-.62a.2.2,0,0,1-.2-.2,3.2,3.2,0,0,1,3.32-3.22,3.26,3.26,0,0,1,3.35,3.54v4.77a3.26,3.26,0,0,1-3.35,3.56A3.31,3.31,0,0,1,185.19,123.64Zm5.83,0v-2.29h-2.3a2.24,2.24,0,0,0-2.5,2.29,2.34,2.34,0,0,0,2.48,2.6A2.29,2.29,0,0,0,191,123.64Z" transform="translate(-10.45 0)"/><path class="cls-1" d="M194.28,123.41v-7.68a.19.19,0,0,1,.21-.19h.62a.19.19,0,0,1,.2.19v7.68a2.34,2.34,0,0,0,2.39,2.64h1.86V115.73a.17.17,0,0,1,.18-.19h.65a.17.17,0,0,1,.18.19v10.32h4.18V115.73a.17.17,0,0,1,.18-.19h.64a.17.17,0,0,1,.19.19v10.46a.76.76,0,0,1-.83.85H197.7A3.35,3.35,0,0,1,194.28,123.41Z" transform="translate(-10.45 0)"/><path class="cls-1" d="M208.45,123.6v-7.87a.19.19,0,0,1,.2-.19h.62a.19.19,0,0,1,.21.19v7.87a2.36,2.36,0,0,0,2.48,2.48h2V115.73a.17.17,0,0,1,.18-.19h.65a.17.17,0,0,1,.18.19v10.48a.75.75,0,0,1-.83.83H212A3.37,3.37,0,0,1,208.45,123.6Z" transform="translate(-10.45 0)"/><path class="cls-1" d="M230,116.39v10.44a.19.19,0,0,1-.21.19h-.62a.19.19,0,0,1-.2-.19v-10.3h-4.41v10.3a.17.17,0,0,1-.18.19h-.65a.17.17,0,0,1-.18-.19V116.39a.77.77,0,0,1,.85-.85h4.75A.77.77,0,0,1,230,116.39Z" transform="translate(-10.45 0)"/><path class="cls-1" d="M232.64,123.67v-4.75a3.42,3.42,0,1,1,6.84-.1,3.26,3.26,0,0,1-3.58,3.33h-2.23v1.52a2.37,2.37,0,1,0,4.73,0,.19.19,0,0,1,.21-.18h.62a.18.18,0,0,1,.2.18A3.31,3.31,0,0,1,236,127.2,3.27,3.27,0,0,1,232.64,123.67Zm3.26-2.5a2.27,2.27,0,0,0,2.55-2.35,2.4,2.4,0,1,0-4.78.1v2.25Z" transform="translate(-10.45 0)"/><path class="cls-1" d="M247.63,115.54h.62a.19.19,0,0,1,.21.19v11.1a.19.19,0,0,1-.21.19h-.62a.19.19,0,0,1-.21-.19v-5.3H243v5.3a.17.17,0,0,1-.19.19h-.62a.18.18,0,0,1-.2-.19v-11.1a.17.17,0,0,1,.18-.19h.64a.17.17,0,0,1,.19.19v4.84h4.4v-4.84A.19.19,0,0,1,247.63,115.54Z" transform="translate(-10.45 0)"/><path class="cls-1" d="M251,123.64a3.24,3.24,0,0,1,3.54-3.26h2.29v-1.51a2.27,2.27,0,0,0-2.32-2.55,2.2,2.2,0,0,0-2.29,2.23c0,.14-.09.2-.21.2h-.62a.2.2,0,0,1-.2-.2,3.2,3.2,0,0,1,3.32-3.22,3.25,3.25,0,0,1,3.35,3.54v4.77a3.26,3.26,0,0,1-3.35,3.56A3.32,3.32,0,0,1,251,123.64Zm5.83,0v-2.29h-2.29a2.24,2.24,0,0,0-2.5,2.29,2.33,2.33,0,0,0,2.47,2.6A2.29,2.29,0,0,0,256.81,123.64Z" transform="translate(-10.45 0)"/><path class="cls-1" d="M261.82,126.83v-10.3h-2.6a.19.19,0,0,1-.18-.21v-.59a.17.17,0,0,1,.18-.19h6.22a.17.17,0,0,1,.19.19v.59a.19.19,0,0,1-.19.21h-2.61v10.3a.17.17,0,0,1-.19.19H262A.17.17,0,0,1,261.82,126.83Z" transform="translate(-10.45 0)"/><path class="cls-1" d="M267.63,126.21V115.73a.17.17,0,0,1,.18-.19h.64a.17.17,0,0,1,.18.19v4.52h2.23a3.4,3.4,0,1,1,0,6.79h-2.39A.75.75,0,0,1,267.63,126.21Zm3.23-.13a2.44,2.44,0,1,0,0-4.87h-2.23v4.87Zm4.68.75v-11.1a.17.17,0,0,1,.19-.19h.64a.17.17,0,0,1,.18.19v11.1a.17.17,0,0,1-.18.19h-.64A.17.17,0,0,1,275.54,126.83Z" transform="translate(-10.45 0)"/></g><g class="cls-2"><path class="cls-1" d="M163.75,66.17V51.72a.6.6,0,0,1,.66-.65h.93a.71.71,0,0,1,.75.54l2,6.29c.28.89.58,1.77.87,2.66h0c.28-.89.59-1.77.87-2.66l2-6.29a.71.71,0,0,1,.75-.54h.93a.6.6,0,0,1,.66.65V66.17a.21.21,0,0,1-.22.22h-.87a.21.21,0,0,1-.22-.22l0-8.69c0-1.7,0-3.33,0-5h0l-1,3.08-2,6a.73.73,0,0,1-.74.55h-.48a.73.73,0,0,1-.74-.55l-2-6-1-3.08h0c0,1.71,0,3.34,0,5l0,8.69a.21.21,0,0,1-.22.22H164A.21.21,0,0,1,163.75,66.17Z" transform="translate(-10.45 0)"/><path class="cls-1" d="M176.87,62.68V54.82a3.54,3.54,0,0,1,3.55-3.75h2.27a.21.21,0,0,1,.22.22v.78a.21.21,0,0,1-.22.22h-2.27a2.31,2.31,0,0,0-2.24,2.53V58h4a.21.21,0,0,1,.22.22V59a.21.21,0,0,1-.22.22h-4v3.43a2.31,2.31,0,0,0,2.24,2.53h2.27a.21.21,0,0,1,.22.22v.78a.21.21,0,0,1-.22.22h-2.27A3.55,3.55,0,0,1,176.87,62.68Z" transform="translate(-10.45 0)"/><path class="cls-1" d="M184.88,66.17V61.69a3.6,3.6,0,0,1,2.22-3.44l-2.36-6.9c0-.15,0-.24.18-.24h.87a.28.28,0,0,1,.26.18L188.32,58h2v-6.7a.21.21,0,0,1,.22-.22h.87a.21.21,0,0,1,.22.22V58h2l2.27-6.74a.28.28,0,0,1,.26-.18h.87c.15,0,.22.09.18.24l-2.36,6.9a3.6,3.6,0,0,1,2.22,3.44v4.48a.2.2,0,0,1-.21.22H196a.2.2,0,0,1-.21-.22V61.69a2.27,2.27,0,0,0-2.19-2.44h-2v6.92a.21.21,0,0,1-.22.22h-.87a.21.21,0,0,1-.22-.22V59.25h-2a2.27,2.27,0,0,0-2.19,2.44v4.48a.2.2,0,0,1-.21.22h-.88A.2.2,0,0,1,184.88,66.17Z" transform="translate(-10.45 0)"/><path class="cls-1" d="M198.25,68.55V65.69a.57.57,0,0,1,.5-.59c1.16-.31,1.6-1.38,1.6-3.21V54.76a3.5,3.5,0,0,1,3.49-3.71h2.07A1,1,0,0,1,207,52.14v13h.18a1,1,0,0,1,1.09,1.1v2.29a.2.2,0,0,1-.22.21h-.83a.2.2,0,0,1-.22-.21V66.39h-7.48v2.16a.2.2,0,0,1-.22.21h-.83A.2.2,0,0,1,198.25,68.55Zm7.44-3.39V52.27h-1.85a2.27,2.27,0,0,0-2.18,2.49v7.13c0,1.72-.33,2.68-1.09,3.27Z" transform="translate(-10.45 0)"/><path class="cls-1" d="M209.47,66.23v-.78a.21.21,0,0,1,.22-.22h3.05A2.32,2.32,0,0,0,215,62.7V60.56h-2.18a3.55,3.55,0,0,1-3.56-3.75V51.33a.21.21,0,0,1,.22-.22h.87a.21.21,0,0,1,.22.22v5.48a2.32,2.32,0,0,0,2.25,2.53H215v-8a.21.21,0,0,1,.22-.22h.87a.21.21,0,0,1,.22.22V62.7a3.55,3.55,0,0,1-3.56,3.75h-3.05A.21.21,0,0,1,209.47,66.23Z" transform="translate(-10.45 0)"/><path class="cls-1" d="M225.07,51.11h.87a.2.2,0,0,1,.22.22V66.17a.2.2,0,0,1-.22.22h-.87a.21.21,0,0,1-.22-.22V59.23h-4.36v6.94a.21.21,0,0,1-.22.22h-.87a.21.21,0,0,1-.22-.22V51.33a.21.21,0,0,1,.22-.22h.87a.21.21,0,0,1,.22.22V58h4.36v-6.7A.21.21,0,0,1,225.07,51.11Z" transform="translate(-10.45 0)"/><path class="cls-1" d="M229,66.17V54.84c0-2.35,1.44-3.92,3.6-3.92s3.61,1.57,3.61,3.92V66.17a.21.21,0,0,1-.22.22h-.88a.2.2,0,0,1-.21-.22V60.84h-4.59v5.33a.2.2,0,0,1-.21.22h-.88A.21.21,0,0,1,229,66.17Zm5.9-6.55V54.84c0-1.7-.83-2.7-2.3-2.7s-2.29,1-2.29,2.7v4.78Z" transform="translate(-10.45 0)"/><path class="cls-1" d="M239,66.17V54.82c0-2.29,1.35-3.93,3.54-3.93S246,52.53,246,54.82v2.36a3.34,3.34,0,0,1-3.55,3.51h-2.23v5.48a.21.21,0,0,1-.22.22h-.87A.21.21,0,0,1,239,66.17Zm3.54-6.7a2.13,2.13,0,0,0,2.24-2.29V54.82c0-1.61-.87-2.7-2.24-2.7s-2.23,1.09-2.23,2.7v4.65Z" transform="translate(-10.45 0)"/><path class="cls-1" d="M247.81,62.55V55a3.7,3.7,0,0,1,3.71-4,3.64,3.64,0,0,1,3.71,3.81v8a3.64,3.64,0,0,1-3.71,3.82A3.7,3.7,0,0,1,247.81,62.55Zm6.11.21v-8a2.4,2.4,0,0,0-2.4-2.59c-1.42,0-2.4,1.09-2.4,2.81v7.6c0,1.72,1,2.81,2.4,2.81A2.4,2.4,0,0,0,253.92,62.76Z" transform="translate(-10.45 0)"/><path class="cls-1" d="M255.78,68.55V65.69a.57.57,0,0,1,.5-.59c1.16-.31,1.59-1.38,1.59-3.21V54.76a3.5,3.5,0,0,1,3.49-3.71h2.08a1,1,0,0,1,1.09,1.09v13h.17a1,1,0,0,1,1.09,1.1v2.29a.2.2,0,0,1-.22.21h-.82a.2.2,0,0,1-.22-.21V66.39H257v2.16a.2.2,0,0,1-.22.21H256A.2.2,0,0,1,255.78,68.55Zm7.44-3.39V52.27h-1.86a2.27,2.27,0,0,0-2.18,2.49v7.13c0,1.72-.33,2.68-1.09,3.27Z" transform="translate(-10.45 0)"/><path class="cls-1" d="M273.54,51.11h.87a.21.21,0,0,1,.22.22V66.17a.21.21,0,0,1-.22.22h-.87a.21.21,0,0,1-.22-.22V59.23H269v6.94a.21.21,0,0,1-.22.22h-.87a.21.21,0,0,1-.22-.22V51.33a.21.21,0,0,1,.22-.22h.87a.21.21,0,0,1,.22.22V58h4.36v-6.7A.21.21,0,0,1,273.54,51.11Z" transform="translate(-10.45 0)"/><path class="cls-1" d="M277.51,66.17V54.84c0-2.35,1.44-3.92,3.6-3.92s3.6,1.57,3.6,3.92V66.17a.2.2,0,0,1-.21.22h-.88a.21.21,0,0,1-.22-.22V60.84h-4.58v5.33a.21.21,0,0,1-.22.22h-.87A.21.21,0,0,1,277.51,66.17Zm5.89-6.55V54.84c0-1.7-.83-2.7-2.29-2.7s-2.29,1-2.29,2.7v4.78Z" transform="translate(-10.45 0)"/><path class="cls-1" d="M294,54.82V66.17a.21.21,0,0,1-.22.22h-.87a.21.21,0,0,1-.22-.22V60.52h-2.33l-2.16,5.69a.25.25,0,0,1-.25.18h-.89a.18.18,0,0,1-.17-.27l2.24-5.82a3.71,3.71,0,0,1-2.33-3.65V54.82c0-2.29,1.35-3.93,3.6-3.93S294,52.53,294,54.82Zm-1.31,0c0-1.61-.81-2.7-2.29-2.7s-2.29,1.09-2.29,2.7v1.83a2.36,2.36,0,0,0,2.29,2.64h2.29Z" transform="translate(-10.45 0)"/><path class="cls-1" d="M301.69,62.76V51.33a.21.21,0,0,1,.22-.22h.87a.21.21,0,0,1,.22.22V62.76a2.27,2.27,0,0,0,2.18,2.45h2V51.33a.2.2,0,0,1,.21-.22h.88a.21.21,0,0,1,.22.22V65.21h4.1V51.33a.21.21,0,0,1,.22-.22h.87a.21.21,0,0,1,.22.22v14a1,1,0,0,1-1.09,1.09h-7.6A3.5,3.5,0,0,1,301.69,62.76Z" transform="translate(-10.45 0)"/><path class="cls-1" d="M316.92,66.17V51.33a.21.21,0,0,1,.22-.22H318a.2.2,0,0,1,.22.22V58h2.23l2.27-6.74a.28.28,0,0,1,.26-.18h.87c.16,0,.22.09.18.24l-2.36,6.9A3.6,3.6,0,0,1,324,61.94v4.23a.21.21,0,0,1-.22.22h-.87a.21.21,0,0,1-.22-.22V61.94c0-1.6-.89-2.69-2.24-2.69h-2.19v6.92a.2.2,0,0,1-.22.22h-.87A.21.21,0,0,1,316.92,66.17Z" transform="translate(-10.45 0)"/><path class="cls-1" d="M325.92,62.55V55a3.69,3.69,0,0,1,3.71-4,3.63,3.63,0,0,1,3.7,3.81v8a3.63,3.63,0,0,1-3.7,3.82A3.69,3.69,0,0,1,325.92,62.55Zm6.1.21v-8a2.4,2.4,0,0,0-2.39-2.59c-1.42,0-2.41,1.09-2.41,2.81v7.6c0,1.72,1,2.81,2.41,2.81A2.4,2.4,0,0,0,332,62.76Z" transform="translate(-10.45 0)"/><path class="cls-1" d="M334,66.23v-.78a.22.22,0,0,1,.21-.24C335.32,65.1,336,64,336,62.37V54.73a3.38,3.38,0,0,1,3.49-3.66h2.07a1,1,0,0,1,1.09,1.09v14a.2.2,0,0,1-.21.22h-.88a.21.21,0,0,1-.22-.22V52.29h-1.85c-1.38,0-2.18.92-2.18,2.44v7.64c0,2.34-1.27,4-3.17,4.08A.2.2,0,0,1,334,66.23Z" transform="translate(-10.45 0)"/><path class="cls-1" d="M345.56,66.17V54.84c0-2.35,1.44-3.92,3.6-3.92s3.6,1.57,3.6,3.92V66.17a.21.21,0,0,1-.22.22h-.87a.2.2,0,0,1-.22-.22V60.84h-4.59v5.33a.2.2,0,0,1-.21.22h-.88A.2.2,0,0,1,345.56,66.17Zm5.89-6.55V54.84c0-1.7-.83-2.7-2.29-2.7s-2.3,1-2.3,2.7v4.78Z" transform="translate(-10.45 0)"/></g><g class="cls-2"><path class="cls-1" d="M163.29,89V80.83a3.46,3.46,0,0,1,3.56-3.75c2.05,0,3.49,1.62,3.56,4a.21.21,0,0,1-.22.22h-.88a.19.19,0,0,1-.21-.22c-.07-1.81-.94-2.82-2.25-2.82s-2.25.94-2.25,2.53V89c0,1.59.83,2.53,2.25,2.53s2.31-1.09,2.36-2.92c0-.16.08-.22.21-.22h.88c.13,0,.22.06.22.2-.07,2.5-1.53,4.16-3.67,4.16A3.45,3.45,0,0,1,163.29,89Z" transform="translate(-10.45 0)"/><path class="cls-1" d="M172.68,92.36V77.91a.59.59,0,0,1,.65-.65h.94a.7.7,0,0,1,.74.54l2,6.29c.28.89.59,1.76.87,2.66H178c.28-.9.59-1.77.87-2.66l2-6.29a.7.7,0,0,1,.74-.54h.94a.59.59,0,0,1,.65.65V92.36a.19.19,0,0,1-.21.21h-.88a.2.2,0,0,1-.22-.21l0-8.69c0-1.7,0-3.34,0-5h0l-1,3.08-2,6a.74.74,0,0,1-.75.55h-.48a.73.73,0,0,1-.74-.55l-2-6-1-3.08h0c0,1.7,0,3.34,0,5l0,8.69a.2.2,0,0,1-.22.21h-.88A.19.19,0,0,1,172.68,92.36Z" transform="translate(-10.45 0)"/><path class="cls-1" d="M185.79,88.87V81a3.55,3.55,0,0,1,3.56-3.75h2.27a.2.2,0,0,1,.22.21v.79a.21.21,0,0,1-.22.22h-2.27A2.32,2.32,0,0,0,187.1,81v3.21h4a.2.2,0,0,1,.22.22v.78a.2.2,0,0,1-.22.22h-4v3.43a2.33,2.33,0,0,0,2.25,2.53h2.27a.2.2,0,0,1,.22.21v.79a.21.21,0,0,1-.22.22h-2.27A3.55,3.55,0,0,1,185.79,88.87Z" transform="translate(-10.45 0)"/><path class="cls-1" d="M193.93,89V77.52a.21.21,0,0,1,.22-.22H195a.21.21,0,0,1,.22.22V89a2.28,2.28,0,0,0,2.18,2.45h2V77.52a.2.2,0,0,1,.21-.22h.88a.21.21,0,0,1,.22.22V91.4h4.1V77.52a.21.21,0,0,1,.22-.22h.87a.21.21,0,0,1,.22.22v14A1,1,0,0,1,205,92.62h-7.6A3.5,3.5,0,0,1,193.93,89Z" transform="translate(-10.45 0)"/><path class="cls-1" d="M209,92.36V81c0-2.36,1.44-3.93,3.6-3.93s3.6,1.57,3.6,3.93V92.36a.2.2,0,0,1-.22.21h-.87a.2.2,0,0,1-.22-.21V87H210.3v5.33a.2.2,0,0,1-.22.21h-.87A.2.2,0,0,1,209,92.36Zm5.89-6.55V81c0-1.7-.83-2.7-2.29-2.7s-2.29,1-2.29,2.7v4.78Z" transform="translate(-10.45 0)"/><path class="cls-1" d="M225,77.3h.88a.2.2,0,0,1,.21.22V92.36a.19.19,0,0,1-.21.21H225a.19.19,0,0,1-.21-.21V85.42h-4.37v6.94a.2.2,0,0,1-.22.21h-.87a.2.2,0,0,1-.22-.21V77.52a.21.21,0,0,1,.22-.22h.87a.21.21,0,0,1,.22.22v6.7h4.37v-6.7A.2.2,0,0,1,225,77.3Z" transform="translate(-10.45 0)"/><path class="cls-1" d="M235,77.3h.87a.21.21,0,0,1,.22.22V92.36a.2.2,0,0,1-.22.21H235a.2.2,0,0,1-.22-.21V85.42h-4.36v6.94a.2.2,0,0,1-.22.21h-.87a.2.2,0,0,1-.22-.21V77.52a.21.21,0,0,1,.22-.22h.87a.21.21,0,0,1,.22.22v6.7h4.36v-6.7A.21.21,0,0,1,235,77.3Z" transform="translate(-10.45 0)"/><path class="cls-1" d="M238.69,88.73V81.14a3.71,3.71,0,0,1,3.71-4,3.64,3.64,0,0,1,3.71,3.82v8a3.64,3.64,0,0,1-3.71,3.82A3.71,3.71,0,0,1,238.69,88.73Zm6.11.22v-8a2.4,2.4,0,0,0-2.4-2.59c-1.42,0-2.4,1.09-2.4,2.81v7.59c0,1.73,1,2.82,2.4,2.82A2.4,2.4,0,0,0,244.8,89Z" transform="translate(-10.45 0)"/><path class="cls-1" d="M248.53,92.36V81a3.4,3.4,0,0,1,3.56-3.71h2.25a.19.19,0,0,1,.21.21v.79a.2.2,0,0,1-.21.22h-2.25c-1.44,0-2.25.91-2.25,2.49V92.36a.2.2,0,0,1-.22.21h-.87A.2.2,0,0,1,248.53,92.36Z" transform="translate(-10.45 0)"/><path class="cls-1" d="M255.06,88.73V81.14c0-2.4,1.52-4,3.71-4a3.64,3.64,0,0,1,3.71,3.82v8a3.64,3.64,0,0,1-3.71,3.82C256.58,92.77,255.06,91.13,255.06,88.73Zm6.11.22v-8a2.41,2.41,0,0,0-2.4-2.59c-1.42,0-2.4,1.09-2.4,2.81v7.59c0,1.73,1,2.82,2.4,2.82A2.41,2.41,0,0,0,261.17,89Z" transform="translate(-10.45 0)"/><path class="cls-1" d="M269.59,88.73V81.14a3.71,3.71,0,0,1,3.71-4A3.64,3.64,0,0,1,277,80.92v8a3.64,3.64,0,0,1-3.71,3.82A3.71,3.71,0,0,1,269.59,88.73Zm6.11.22v-8a2.4,2.4,0,0,0-2.4-2.59c-1.42,0-2.4,1.09-2.4,2.81v7.59c0,1.73,1,2.82,2.4,2.82A2.4,2.4,0,0,0,275.7,89Z" transform="translate(-10.45 0)"/><path class="cls-1" d="M279.43,91.94V81A3.55,3.55,0,0,1,283,77.26h2.6a.19.19,0,0,1,.21.21v.79a.2.2,0,0,1-.21.22H283A2.32,2.32,0,0,0,280.74,81v2.88H283a3.53,3.53,0,0,1,3.56,3.78v1.17A3.53,3.53,0,0,1,283,92.62h-2.88A.69.69,0,0,1,279.43,91.94ZM283,91.4a2.31,2.31,0,0,0,2.25-2.56V87.67A2.31,2.31,0,0,0,283,85.11h-2.25V91.4Z" transform="translate(-10.45 0)"/><path class="cls-1" d="M288.14,92.42v-.78a.2.2,0,0,1,.22-.22h3.05a2.32,2.32,0,0,0,2.25-2.53V86.75h-2.18A3.55,3.55,0,0,1,287.92,83V77.52a.21.21,0,0,1,.22-.22H289a.21.21,0,0,1,.22.22V83a2.32,2.32,0,0,0,2.25,2.53h2.18v-8a.21.21,0,0,1,.22-.22h.87a.21.21,0,0,1,.22.22V88.89a3.55,3.55,0,0,1-3.56,3.75h-3.05A.21.21,0,0,1,288.14,92.42Z" transform="translate(-10.45 0)"/><path class="cls-1" d="M302.59,92.36V87.14H300.4a3.38,3.38,0,0,1-3.55-3.64v-6a.2.2,0,0,1,.22-.22h.87a.21.21,0,0,1,.22.22v6a2.13,2.13,0,0,0,2.24,2.42h2.19v-8.4a.2.2,0,0,1,.21-.22h.88a.21.21,0,0,1,.22.22V92.36a.2.2,0,0,1-.22.21h-.88A.19.19,0,0,1,302.59,92.36Z" transform="translate(-10.45 0)"/><path class="cls-1" d="M306.49,88.87V81a3.55,3.55,0,0,1,3.56-3.75h2.27a.2.2,0,0,1,.22.21v.79a.21.21,0,0,1-.22.22h-2.27A2.32,2.32,0,0,0,307.8,81v3.21h4a.2.2,0,0,1,.22.22v.78a.2.2,0,0,1-.22.22h-4v3.43a2.33,2.33,0,0,0,2.25,2.53h2.27a.2.2,0,0,1,.22.21v.79a.21.21,0,0,1-.22.22h-2.27A3.55,3.55,0,0,1,306.49,88.87Z" transform="translate(-10.45 0)"/><path class="cls-1" d="M320.7,77.3h.87a.21.21,0,0,1,.22.22V92.36a.2.2,0,0,1-.22.21h-.87a.2.2,0,0,1-.22-.21V85.42h-4.36v6.94a.2.2,0,0,1-.22.21H315a.19.19,0,0,1-.21-.21V77.52a.2.2,0,0,1,.21-.22h.88a.21.21,0,0,1,.22.22v6.7h4.36v-6.7A.21.21,0,0,1,320.7,77.3Z" transform="translate(-10.45 0)"/><path class="cls-1" d="M330.39,77.3h.87a.21.21,0,0,1,.22.22V92a.6.6,0,0,1-.66.66H328a3.55,3.55,0,0,1-3.56-3.86V77.52a.21.21,0,0,1,.22-.22h.87a.21.21,0,0,1,.22.22V88.76c0,1.54.87,2.64,2.25,2.64h2.18V77.52A.21.21,0,0,1,330.39,77.3Z" transform="translate(-10.45 0)"/><path class="cls-1" d="M341,81V92.36a.2.2,0,0,1-.22.21h-.87a.2.2,0,0,1-.22-.21V86.71h-2.33l-2.16,5.69a.24.24,0,0,1-.24.17H334a.17.17,0,0,1-.17-.26l2.24-5.82a3.73,3.73,0,0,1-2.33-3.65V81c0-2.29,1.35-3.93,3.6-3.93S341,78.72,341,81Zm-1.31,0c0-1.62-.81-2.71-2.29-2.71s-2.29,1.09-2.29,2.71v1.83a2.36,2.36,0,0,0,2.29,2.64h2.29Z" transform="translate(-10.45 0)"/></g><text class="cls-3" transform="translate(151.78 33.33)">М<tspan class="cls-4" x="41.69" y="0">Ш</tspan><tspan class="cls-5" x="85.32" y="0">С</tspan><tspan class="cls-4" x="118.77" y="0">О</tspan></text><polygon class="cls-1" points="159.07 113.02 157.51 115.07 157.51 115.1 159.99 114.78 159.99 115.89 157.51 115.6 157.51 115.63 159.09 117.6 158.05 118.19 157.07 115.89 157.03 115.89 155.97 118.21 155.03 117.61 156.59 115.61 156.59 115.58 154.16 115.89 154.16 114.78 156.57 115.09 156.57 115.05 155.03 113.05 156.03 112.48 157.05 114.76 157.08 114.76 158.08 112.46 159.07 113.02"/><circle class="cls-6" cx="184.38" cy="24.57" r="2.53"/><circle class="cls-6" cx="228.67" cy="24.57" r="2.53"/><circle class="cls-6" cx="265.78" cy="24.57" r="2.53"/></svg>