<svg xmlns="http://www.w3.org/2000/svg" viewBox="0 0 209.51 106.5"><defs><style>.cls-1{fill:#292928;}.cls-2,.cls-3,.cls-7{fill:none;stroke-miterlimit:10;}.cls-2{stroke:#b48f97;}.cls-3{stroke:#b0c3b3;}.cls-4{fill:#b48f97;}.cls-5{fill:#b0c3b3;}.cls-6{fill:#c0bf75;}.cls-7{stroke:#c0bf75;}</style></defs><g id="Layer_2" data-name="Layer 2"><g id="Слой_1" data-name="Слой 1"><path class="cls-1" d="M149.6,63.61v6.08h-5.47V63.61a.26.26,0,0,0-.25-.24h-.79a.26.26,0,0,0-.25.24V77.49c0,.19.12.19.31.19h.73c.13,0,.25,0,.25-.19V70.86h5.47v6.63c0,.19.12.19.24.19h.8c.12,0,.25,0,.25-.19V63.61a.27.27,0,0,0-.25-.24h-.8A.26.26,0,0,0,149.6,63.61Z"/><path class="cls-1" d="M158.42,76.72a2.87,2.87,0,0,1-3.07-3.19,2.76,2.76,0,0,1,3.07-2.89h2.88v2.89C161.3,75.43,160.26,76.72,158.42,76.72Zm0,1.23c2.58,0,4.17-1.84,4.17-4.42v-6a4,4,0,0,0-4.17-4.36,3.93,3.93,0,0,0-4.12,4,.26.26,0,0,0,.25.24h.73c.19,0,.25-.06.31-.24a2.78,2.78,0,0,1,2.83-2.83c1.78,0,2.88,1.29,2.88,3.2v1.9h-2.88a4,4,0,0,0-4.36,4.12A4.11,4.11,0,0,0,158.42,78Z"/><path class="cls-2" d="M66.85,105.48l-.31-.5A292.49,292.49,0,0,1,35.1,45.34c-1.48-4.54-2.77-12.22-.56-23a55.15,55.15,0,0,1,3.38-11A15.53,15.53,0,0,1,48.06,1.61a21.51,21.51,0,0,1,7-1.11C72.19.63,77.17,6.52,77.6,7c8.23,7.31,10.5,20,10.63,20.46,1.53,6.2-.8,20.76-.93,21.62C86.94,61.93,67.9,103.2,67.1,105ZM54.75,1.12a22.14,22.14,0,0,0-6.51,1.1,15,15,0,0,0-9.77,9.34c-.06.18-7.8,18.12-2.76,33.6a292.14,292.14,0,0,0,31,59c2.21-4.8,19.65-43.18,20-55.1V49c0-.19,2.46-15.3.92-21.44-.06-.12-2.27-12.84-10.44-20.08l-.06-.07c-.06-.06-4.92-6.2-22.11-6.32h-.25"/><path class="cls-3" d="M66.43,105.05l-.13-.31c-2.27-6.14-2.94-22.54-3-23.46-.67-4.61.19-11.73,2.52-21.37,1.72-7.13,3.69-13,3.69-13,3.19-8.66,8.9-20.57,17.75-28.19,5.34-4.61,9.21-5.4,9.4-5.47a26.41,26.41,0,0,1,16.15,1.66,21.55,21.55,0,0,1,5.65,3.69A24.59,24.59,0,0,1,128,33.74a25.56,25.56,0,0,1,.5,8.41c.24,11.31-9.83,25.37-10.2,25.92a80.65,80.65,0,0,1-11.67,15.61c-3.93,4.23-7.19,7.12-7.25,7.18C92.9,97.5,67.78,104.68,66.73,105ZM96.77,13.84h0c-.06,0-3.93.86-9.15,5.34C78.9,26.74,73.31,38.53,70.05,47.07c-.06.24-7.74,23.4-6.14,34.15,0,.18.67,16.71,3,23.09,2.82-.86,26-7.73,32.18-13.88.06-.06,3.26-3,7.13-7.18,3.62-3.87,8.54-9.71,11.61-15.48.12-.19,10.38-14.38,10.13-25.62v-.06a27.58,27.58,0,0,0-.43-8.23,24.67,24.67,0,0,0-9.4-14.8H118c-.06-.12-7.74-7.8-21.25-5.22"/><path class="cls-1" d="M149.88,63.39h.77c.15,0,.26.08.26.22V77.47a.23.23,0,0,1-.26.23h-.77a.24.24,0,0,1-.26-.23V70.86h-5.49v6.61a.22.22,0,0,1-.23.23h-.78c-.17,0-.26-.09-.26-.23V63.61a.21.21,0,0,1,.24-.22h.8a.21.21,0,0,1,.23.22v6h5.49v-6A.23.23,0,0,1,149.88,63.39Z"/><path class="cls-1" d="M154.07,73.49c0-2.32,1.68-4.06,4.4-4.06h2.87V67.54c0-1.92-1.09-3.18-2.89-3.18a2.75,2.75,0,0,0-2.87,2.78c0,.17-.11.25-.25.25h-.78a.26.26,0,0,1-.26-.25,4,4,0,0,1,4.16-4c2.54,0,4.17,1.8,4.17,4.41v5.95c0,2.61-1.6,4.44-4.17,4.44A4.13,4.13,0,0,1,154.07,73.49Zm7.27,0V70.63h-2.87a2.8,2.8,0,0,0-3.12,2.86,2.91,2.91,0,0,0,3.1,3.23C160.28,76.72,161.34,75.44,161.34,73.49Z"/><path class="cls-1" d="M165.69,73.2V63.61a.23.23,0,0,1,.26-.22h.77c.15,0,.26.08.26.22V73.2c0,2,1.06,3.3,3,3.3h2.32V63.61a.2.2,0,0,1,.23-.22h.8a.21.21,0,0,1,.23.22V76.5h5.21V63.61a.2.2,0,0,1,.23-.22h.8a.21.21,0,0,1,.23.22V76.67a1,1,0,0,1-1,1.06h-9C167.33,77.73,165.69,75.81,165.69,73.2Z"/><path class="cls-1" d="M183.37,73.43V63.61a.22.22,0,0,1,.25-.22h.78a.22.22,0,0,1,.25.22v9.82a3,3,0,0,0,3.09,3.1h2.47V63.61a.2.2,0,0,1,.23-.22h.8a.21.21,0,0,1,.23.22V76.7a.94.94,0,0,1-1,1h-2.7A4.21,4.21,0,0,1,183.37,73.43Z"/><path class="cls-1" d="M170,77.71h9a1,1,0,0,0,1-1v-13a.26.26,0,0,0-.25-.24H179a.26.26,0,0,0-.24.24V76.48h-5.22V63.64a.22.22,0,0,0-.25-.24h-.74a.22.22,0,0,0-.24.24V76.48H170c-1.9,0-3-1.29-3-3.26V63.64a.22.22,0,0,0-.24-.24H166a.29.29,0,0,0-.31.24v9.58A4.18,4.18,0,0,0,170,77.71Z"/><path class="cls-1" d="M187.75,77.71h2.64a1,1,0,0,0,1.1-1v-13a.26.26,0,0,0-.24-.24h-.86a.28.28,0,0,0-.19.24V76.48h-2.45a2.94,2.94,0,0,1-3.14-3V63.64a.22.22,0,0,0-.24-.24h-.74a.29.29,0,0,0-.31.24v9.83A4.19,4.19,0,0,0,187.75,77.71Z"/><path class="cls-1" d="M150.91,88.41v13c0,.14-.11.22-.26.22h-.77a.23.23,0,0,1-.26-.22V88.58h-5.49v12.86a.21.21,0,0,1-.23.22h-.8a.21.21,0,0,1-.24-.22v-13a1,1,0,0,1,1.07-1.06h5.92A1,1,0,0,1,150.91,88.41Z"/><path class="cls-1" d="M154.27,97.49V91.56a4.27,4.27,0,1,1,8.53-.11c0,2.37-1.66,4.15-4.47,4.15h-2.78v1.89a2.88,2.88,0,0,0,2.95,3.2c1.84,0,2.89-1.32,2.95-3.15a.24.24,0,0,1,.26-.23h.77a.24.24,0,0,1,.26.23c-.09,2.55-1.69,4.35-4.24,4.35A4.07,4.07,0,0,1,154.27,97.49Zm4.06-3.12c2.09,0,3.18-1.24,3.18-2.92a2.92,2.92,0,0,0-3-3.13c-1.89,0-3,1.32-3,3.24v2.81Z"/><path class="cls-1" d="M173,87.35h.78a.23.23,0,0,1,.25.23v13.86a.22.22,0,0,1-.25.22H173a.22.22,0,0,1-.25-.22V94.82h-5.5v6.62a.21.21,0,0,1-.23.22h-.77c-.17,0-.26-.08-.26-.22V87.58a.22.22,0,0,1,.23-.23h.8a.22.22,0,0,1,.23.23v6h5.5v-6A.23.23,0,0,1,173,87.35Z"/><path class="cls-1" d="M177.15,97.46c0-2.32,1.69-4.07,4.41-4.07h2.86V91.5c0-1.92-1.09-3.18-2.89-3.18a2.74,2.74,0,0,0-2.86,2.78c0,.17-.12.26-.26.26h-.77a.26.26,0,0,1-.26-.26,4,4,0,0,1,4.15-4,4.06,4.06,0,0,1,4.18,4.41v6c0,2.6-1.6,4.43-4.18,4.43A4.13,4.13,0,0,1,177.15,97.46Zm7.27,0V94.59h-2.86a2.8,2.8,0,0,0-3.12,2.87,2.91,2.91,0,0,0,3.09,3.23C183.36,100.69,184.42,99.4,184.42,97.46Z"/><path class="cls-1" d="M191.13,101.44V88.58h-3.24a.23.23,0,0,1-.23-.26v-.74a.22.22,0,0,1,.23-.23h7.76a.22.22,0,0,1,.23.23v.74a.23.23,0,0,1-.23.26h-3.27v12.86a.2.2,0,0,1-.23.22h-.8A.2.2,0,0,1,191.13,101.44Z"/><path class="cls-1" d="M198.37,100.66V87.58a.22.22,0,0,1,.23-.23h.8a.21.21,0,0,1,.23.23v5.64h2.78a4.24,4.24,0,1,1,0,8.47h-3A.94.94,0,0,1,198.37,100.66Zm4-.17a3,3,0,1,0,0-6.07h-2.78v6.07Zm5.84,1V87.58a.22.22,0,0,1,.23-.23h.8a.22.22,0,0,1,.23.23v13.86a.21.21,0,0,1-.23.22h-.8A.21.21,0,0,1,208.25,101.44Z"/><path class="cls-1" d="M149.84,87.31h-6c-.68,0-1,.37-1,1.11v13a.23.23,0,0,0,.25.24h.8a.22.22,0,0,0,.24-.24V88.6h5.47v12.78a.22.22,0,0,0,.25.24h.79a.22.22,0,0,0,.25-.24v-13C150.88,87.68,150.51,87.31,149.84,87.31Z"/><path class="cls-1" d="M155.52,94.33V91.51c0-1.91,1.11-3.26,2.95-3.26a3,3,0,0,1,3,3.19c0,1.66-1.1,2.89-3.19,2.89Zm2.95,7.56c2.58,0,4.18-1.79,4.24-4.37a.26.26,0,0,0-.25-.24h-.79a.26.26,0,0,0-.25.24c-.06,1.85-1.1,3.14-2.95,3.14a2.88,2.88,0,0,1-2.95-3.2v-1.9h2.77c2.82,0,4.48-1.78,4.48-4.12a4.18,4.18,0,0,0-4.3-4.36,4.12,4.12,0,0,0-4.24,4.43v5.95A4.09,4.09,0,0,0,158.47,101.89Z"/><path class="cls-1" d="M172.69,87.55v6.08h-5.46V87.55a.28.28,0,0,0-.25-.25h-.8a.27.27,0,0,0-.24.25v13.88c0,.19.12.19.3.19H167c.12,0,.25,0,.25-.19V94.8h5.46v6.63c0,.19.12.19.25.19h.8c.12,0,.24,0,.24-.19V87.55a.27.27,0,0,0-.24-.25h-.8A.27.27,0,0,0,172.69,87.55Z"/><path class="cls-1" d="M181.51,100.66a2.88,2.88,0,0,1-3.08-3.2,2.76,2.76,0,0,1,3.08-2.88h2.88v2.88C184.39,99.37,183.35,100.66,181.51,100.66Zm0,1.23c2.58,0,4.17-1.85,4.17-4.43v-6a4,4,0,0,0-4.17-4.36,3.94,3.94,0,0,0-4.12,4,.26.26,0,0,0,.25.24h.73c.19,0,.25-.06.31-.24a2.78,2.78,0,0,1,2.83-2.83c1.78,0,2.88,1.29,2.88,3.19v1.91h-2.88a4,4,0,0,0-4.37,4.11A4.12,4.12,0,0,0,181.51,101.89Z"/><path class="cls-1" d="M191.32,101.65h.79c.19,0,.25-.07.25-.25V88.56h3.25a.27.27,0,0,0,.25-.3v-.68a.27.27,0,0,0-.25-.25h-7.73a.23.23,0,0,0-.25.25v.68c0,.18.06.3.25.3h3.25V101.4C191.13,101.58,191.19,101.65,191.32,101.65Z"/><path class="cls-1" d="M199.6,100.42v-6h2.82a3,3,0,1,1,0,6Zm8.84,1.23h.86c.12,0,.18-.07.18-.25V87.58c0-.12-.06-.25-.18-.25h-.86c-.12,0-.18.13-.18.25V101.4C208.26,101.58,208.32,101.65,208.44,101.65Zm-9,0h3a4.24,4.24,0,1,0,0-8.48H199.6V87.58c0-.12-.07-.25-.19-.25h-.8a.23.23,0,0,0-.24.25v13A.94.94,0,0,0,199.41,101.65Z"/><path class="cls-4" d="M66.85,105.48l-.31-.5A292.49,292.49,0,0,1,35.1,45.34c-1.48-4.54-2.77-12.22-.56-23a55.15,55.15,0,0,1,3.38-11A15.53,15.53,0,0,1,48.06,1.61a21.51,21.51,0,0,1,7-1.11C72.19.63,77.17,6.52,77.6,7c8.23,7.31,10.5,20,10.63,20.46,1.53,6.2-.8,20.76-.93,21.62C86.94,61.93,67.9,103.2,67.1,105ZM54.75,1.12a22.14,22.14,0,0,0-6.51,1.1,15,15,0,0,0-9.77,9.34c-.06.18-7.8,18.12-2.76,33.6a292.14,292.14,0,0,0,31,59c2.21-4.8,19.65-43.18,20-55.1V49c0-.19,2.46-15.3.92-21.44-.06-.12-2.27-12.84-10.44-20.08l-.06-.07c-.06-.06-4.92-6.2-22.11-6.32h-.25"/><path class="cls-5" d="M66.43,105.05l-.13-.31c-2.27-6.14-2.94-22.54-3-23.46-.67-4.61.19-11.73,2.52-21.37,1.72-7.13,3.69-13,3.69-13,3.19-8.66,8.9-20.57,17.75-28.19,5.34-4.61,9.21-5.4,9.4-5.47a26.41,26.41,0,0,1,16.15,1.66,21.55,21.55,0,0,1,5.65,3.69A24.59,24.59,0,0,1,128,33.74a25.56,25.56,0,0,1,.5,8.41c.24,11.31-9.83,25.37-10.2,25.92a80.65,80.65,0,0,1-11.67,15.61c-3.93,4.23-7.19,7.12-7.25,7.18C92.9,97.5,67.78,104.68,66.73,105ZM96.77,13.84h0c-.06,0-3.93.86-9.15,5.34C78.9,26.74,73.31,38.53,70.05,47.07c-.06.24-7.74,23.4-6.14,34.15,0,.18.67,16.71,3,23.09,2.82-.86,26-7.73,32.18-13.88.06-.06,3.26-3,7.13-7.18,3.62-3.87,8.54-9.71,11.61-15.48.12-.19,10.38-14.38,10.13-25.62v-.06a27.58,27.58,0,0,0-.43-8.23,24.67,24.67,0,0,0-9.4-14.8H118c-.06-.12-7.74-7.8-21.25-5.22"/><path class="cls-6" d="M67.07,104.8l-.25-.06C55.89,102.77,38.38,92,38.2,91.9,23.46,84.1,14.18,71.39,9,62.05A85.88,85.88,0,0,1,1.16,43.5,19.14,19.14,0,0,1,4.35,27a25.49,25.49,0,0,1,6-5.9C20,14,28.37,14.08,33.65,15.49a23.22,23.22,0,0,1,9.4,4.73,62.69,62.69,0,0,1,16.58,15A58.19,58.19,0,0,1,68,50.69a54.87,54.87,0,0,1,3.38,17c1.22,4.79.86,12.47-1.05,22.73-1.41,7.67-3.13,14-3.13,14.12ZM27.88,15.37c-4.79,0-10.69,1.47-17.2,6.32a22.78,22.78,0,0,0-5.84,5.72,18.8,18.8,0,0,0-3.07,16,81.87,81.87,0,0,0,7.8,18.36C14.73,71,24,83.61,38.5,91.35c.19.12,17.33,10.62,28.14,12.71.73-2.76,6.75-25.67,4.11-36.24V67.7a53.46,53.46,0,0,0-3.32-16.83,58.31,58.31,0,0,0-8.35-15.29,59.64,59.64,0,0,0-16.4-14.87l-.06-.06a24,24,0,0,0-9.15-4.55,21.29,21.29,0,0,0-5.59-.73"/><path class="cls-7" d="M67.07,104.8l-.25-.06C55.89,102.77,38.38,92,38.2,91.9,23.46,84.1,14.18,71.39,9,62.05A85.88,85.88,0,0,1,1.16,43.5,19.14,19.14,0,0,1,4.35,27a25.49,25.49,0,0,1,6-5.9C20,14,28.37,14.08,33.65,15.49a23.22,23.22,0,0,1,9.4,4.73,62.69,62.69,0,0,1,16.58,15A58.19,58.19,0,0,1,68,50.69a54.87,54.87,0,0,1,3.38,17c1.22,4.79.86,12.47-1.05,22.73-1.41,7.67-3.13,14-3.13,14.12ZM27.88,15.37c-4.79,0-10.69,1.47-17.2,6.32a22.78,22.78,0,0,0-5.84,5.72,18.8,18.8,0,0,0-3.07,16,81.87,81.87,0,0,0,7.8,18.36C14.73,71,24,83.61,38.5,91.35c.19.12,17.33,10.62,28.14,12.71.73-2.76,6.75-25.67,4.11-36.24V67.7a53.46,53.46,0,0,0-3.32-16.83,58.31,58.31,0,0,0-8.35-15.29,59.64,59.64,0,0,0-16.4-14.87l-.06-.06a24,24,0,0,0-9.15-4.55,21.29,21.29,0,0,0-5.59-.73"/></g></g></svg>