<?xml version="1.0" encoding="utf-8"?>
<!-- Generator: Adobe Illustrator 23.0.1, SVG Export Plug-In . SVG Version: 6.00 Build 0)  -->
<svg version="1.1" id="Слой_1" xmlns="http://www.w3.org/2000/svg" xmlns:xlink="http://www.w3.org/1999/xlink" x="0px" y="0px"
	 viewBox="0 0 500 153" style="enable-background:new 0 0 500 153;" xml:space="preserve">
<style type="text/css">
	.st0{fill:#46433E;}
	.st1{fill:none;stroke:#46433E;stroke-width:0.5;stroke-miterlimit:10;}
</style>
<path class="st0" d="M95.7,145.41l-0.42-0.61c-27.82-40.1-42.13-79.33-42.27-79.72c-1.98-6.07-3.71-16.31-0.73-30.7
	c1.74-8.4,4.32-14.4,4.46-14.74c2.86-7.89,8.99-11.41,13.63-12.97c5-1.69,9.27-1.52,9.45-1.51c23.04,0.14,29.79,8.01,30.33,8.69
	c11.07,9.77,14.19,26.7,14.3,27.32c2.06,8.29-1.06,27.73-1.25,28.92c-0.42,17.13-26.09,72.31-27.19,74.65L95.7,145.41z M79.41,6.01
	c-1.17,0-4.78,0.12-8.8,1.48c-6.48,2.19-10.88,6.38-13.08,12.46l-0.01,0.03c-0.11,0.24-10.46,24.16-3.72,44.84
	c0.14,0.38,14.27,39.11,41.75,78.9c2.99-6.48,26.44-57.75,26.8-73.67l0.01-0.06c0.03-0.2,3.31-20.43,1.27-28.62l-0.01-0.03
	c-0.03-0.17-3.04-17.18-14.06-26.88l-0.06-0.06c-0.06-0.08-6.6-8.25-29.7-8.39C79.79,6.01,79.66,6.01,79.41,6.01"/>
<path class="st1" d="M95.7,145.41l-0.42-0.61c-27.82-40.1-42.13-79.33-42.27-79.72c-1.98-6.07-3.71-16.31-0.73-30.7
	c1.74-8.4,4.32-14.4,4.46-14.74c2.86-7.89,8.99-11.41,13.63-12.97c5-1.69,9.27-1.52,9.45-1.51c23.04,0.14,29.79,8.01,30.33,8.69
	c11.07,9.77,14.19,26.7,14.3,27.32c2.06,8.29-1.06,27.73-1.25,28.92c-0.42,17.13-26.09,72.31-27.19,74.65L95.7,145.41z M79.41,6.01
	c-1.17,0-4.78,0.12-8.8,1.48c-6.48,2.19-10.88,6.38-13.08,12.46l-0.01,0.03c-0.11,0.24-10.46,24.16-3.72,44.84
	c0.14,0.38,14.27,39.11,41.75,78.9c2.99-6.48,26.44-57.75,26.8-73.67l0.01-0.06c0.03-0.2,3.31-20.43,1.27-28.62l-0.01-0.03
	c-0.03-0.17-3.04-17.18-14.06-26.88l-0.06-0.06c-0.06-0.08-6.6-8.25-29.7-8.39C79.79,6.01,79.66,6.01,79.41,6.01"/>
<path class="st0" d="M95.97,145.7l-0.13-0.36c-3.1-8.32-4-30.37-4.05-31.61c-0.9-6.14,0.21-15.78,3.31-28.67
	c2.31-9.59,4.92-17.49,4.95-17.56c4.3-11.63,11.89-27.62,23.66-37.86c7.08-6.16,12.26-7.29,12.48-7.34c0.02,0,0.03-0.01,0.05-0.01
	c9.64-1.88,17.01,0.18,21.5,2.23c4.68,2.14,7.22,4.67,7.52,4.97c8.38,6.21,11.59,14.51,12.81,20.38c1.28,6.15,0.71,10.86,0.65,11.35
	c0.31,15.09-13.08,34.02-13.65,34.82c-4.09,7.79-10.7,15.69-15.52,20.95c-5.23,5.7-9.55,9.6-9.59,9.65
	c-8.77,8.9-42.2,18.55-43.62,18.96L95.97,145.7z M136.41,23.11c-0.02,0-0.03,0.01-0.05,0.01c-0.05,0.01-5.23,1.15-12.16,7.2
	c-11.61,10.12-19.11,25.95-23.36,37.45c-0.1,0.3-10.35,31.45-8.22,45.85l0,0.05c0.01,0.23,0.89,22.46,3.86,31
	c3.77-1.11,34.76-10.39,42.9-18.65c0.06-0.05,4.36-3.94,9.56-9.61c4.79-5.22,11.36-13.07,15.41-20.79l0.03-0.05
	c0.14-0.19,13.84-19.3,13.51-34.37l0-0.07c0.01-0.05,0.66-4.9-0.64-11.12c-1.2-5.72-4.34-13.81-12.51-19.86l-0.06-0.05
	C164.59,29.99,154.42,19.6,136.41,23.11"/>
<path class="st1" d="M95.97,145.7l-0.13-0.36c-3.1-8.32-4-30.37-4.05-31.61c-0.9-6.14,0.21-15.78,3.31-28.67
	c2.31-9.59,4.92-17.49,4.95-17.56c4.3-11.63,11.89-27.62,23.66-37.86c7.08-6.16,12.26-7.29,12.48-7.34c0.02,0,0.03-0.01,0.05-0.01
	c9.64-1.88,17.01,0.18,21.5,2.23c4.68,2.14,7.22,4.67,7.52,4.97c8.38,6.21,11.59,14.51,12.81,20.38c1.28,6.15,0.71,10.86,0.65,11.35
	c0.31,15.09-13.08,34.02-13.65,34.82c-4.09,7.79-10.7,15.69-15.52,20.95c-5.23,5.7-9.55,9.6-9.59,9.65
	c-8.77,8.9-42.2,18.55-43.62,18.96L95.97,145.7z M136.41,23.11c-0.02,0-0.03,0.01-0.05,0.01c-0.05,0.01-5.23,1.15-12.16,7.2
	c-11.61,10.12-19.11,25.95-23.36,37.45c-0.1,0.3-10.35,31.45-8.22,45.85l0,0.05c0.01,0.23,0.89,22.46,3.86,31
	c3.77-1.11,34.76-10.39,42.9-18.65c0.06-0.05,4.36-3.94,9.56-9.61c4.79-5.22,11.36-13.07,15.41-20.79l0.03-0.05
	c0.14-0.19,13.84-19.3,13.51-34.37l0-0.07c0.01-0.05,0.66-4.9-0.64-11.12c-1.2-5.72-4.34-13.81-12.51-19.86l-0.06-0.05
	C164.59,29.99,154.42,19.6,136.41,23.11"/>
<path class="st0" d="M95.54,145.76l-0.38-0.07C80.55,143,57.14,128.53,56.9,128.38c-19.72-10.55-32.16-27.73-39.12-40.28
	C10.25,74.52,7.34,63.26,7.31,63.15c-2.55-9.87,0.93-17.56,4.29-22.27c3.57-5,7.66-7.71,7.96-7.91c12.92-9.64,24.13-9.49,31.27-7.66
	c7.5,1.93,12.06,5.94,12.51,6.35c8.8,5.55,16.27,12.36,22.2,20.26c4.75,6.33,8.54,13.35,11.24,20.89
	c3.67,10.21,4.54,19.4,4.49,22.89c1.6,6.49,1.13,16.82-1.37,30.7c-1.87,10.35-4.23,18.91-4.26,18.99L95.54,145.76z M43.06,25.18
	c-6.35,0-14.27,1.95-23,8.47l-0.03,0.02c-0.04,0.03-4.22,2.76-7.76,7.73c-3.25,4.56-6.6,11.99-4.14,21.54
	c0.03,0.11,2.92,11.28,10.4,24.78c6.9,12.44,19.23,29.47,38.79,39.93c0.25,0.16,23.13,14.3,37.62,17.13
	c1.01-3.75,9.07-34.6,5.51-48.94l-0.01-0.05l0-0.06c0-0.1,0.11-9.98-4.46-22.67c-2.68-7.45-6.42-14.4-11.12-20.65
	c-5.88-7.82-13.28-14.56-22-20.05l-0.06-0.05c-0.05-0.04-4.67-4.26-12.21-6.19C48.44,25.58,45.91,25.18,43.06,25.18"/>
<path class="st1" d="M95.54,145.76l-0.38-0.07C80.55,143,57.14,128.53,56.9,128.38c-19.72-10.55-32.16-27.73-39.12-40.28
	C10.25,74.52,7.34,63.26,7.31,63.15c-2.55-9.87,0.93-17.56,4.29-22.27c3.57-5,7.66-7.71,7.96-7.91c12.92-9.64,24.13-9.49,31.27-7.66
	c7.5,1.93,12.06,5.94,12.51,6.35c8.8,5.55,16.27,12.36,22.2,20.26c4.75,6.33,8.54,13.35,11.24,20.89
	c3.67,10.21,4.54,19.4,4.49,22.89c1.6,6.49,1.13,16.82-1.37,30.7c-1.87,10.35-4.23,18.91-4.26,18.99L95.54,145.76z M43.06,25.18
	c-6.35,0-14.27,1.95-23,8.47l-0.03,0.02c-0.04,0.03-4.22,2.76-7.76,7.73c-3.25,4.56-6.6,11.99-4.14,21.54
	c0.03,0.11,2.92,11.28,10.4,24.78c6.9,12.44,19.23,29.47,38.79,39.93c0.25,0.16,23.13,14.3,37.62,17.13
	c1.01-3.75,9.07-34.6,5.51-48.94l-0.01-0.05l0-0.06c0-0.1,0.11-9.98-4.46-22.67c-2.68-7.45-6.42-14.4-11.12-20.65
	c-5.88-7.82-13.28-14.56-22-20.05l-0.06-0.05c-0.05-0.04-4.67-4.26-12.21-6.19C48.44,25.58,45.91,25.18,43.06,25.18"/>
<g>
	<path class="st0" d="M222.97,131.76h0.67c0.12,0,0.22,0.07,0.22,0.2V144c0,0.12-0.1,0.2-0.22,0.2h-0.67c-0.12,0-0.22-0.07-0.22-0.2
		v-5.75h-4.78V144c0,0.12-0.07,0.2-0.2,0.2h-0.67c-0.15,0-0.22-0.07-0.22-0.2v-12.04c0-0.12,0.07-0.2,0.2-0.2h0.7
		c0.12,0,0.2,0.07,0.2,0.2v5.25h4.78v-5.25C222.75,131.83,222.85,131.76,222.97,131.76z"/>
	<path class="st0" d="M226.6,140.54c0-2.01,1.47-3.53,3.83-3.53h2.49v-1.64c0-1.67-0.94-2.76-2.51-2.76c-1.49,0-2.39,0.99-2.49,2.41
		c-0.02,0.15-0.1,0.22-0.22,0.22h-0.67c-0.12,0-0.22-0.1-0.22-0.22c0.12-2.01,1.47-3.48,3.61-3.48c2.21,0,3.63,1.57,3.63,3.83v5.17
		c0,2.26-1.39,3.85-3.63,3.85C228.07,144.39,226.6,142.85,226.6,140.54z M232.92,140.54v-2.49h-2.49c-1.74,0-2.71,1.04-2.71,2.49
		c0,1.72,0.97,2.81,2.69,2.81C232,143.35,232.92,142.23,232.92,140.54z"/>
	<path class="st0" d="M236.7,140.29v-8.33c0-0.12,0.1-0.2,0.22-0.2h0.67c0.12,0,0.22,0.07,0.22,0.2v8.33c0,1.69,0.92,2.86,2.59,2.86
		h2.01v-11.19c0-0.12,0.07-0.2,0.2-0.2h0.7c0.12,0,0.2,0.07,0.2,0.2v11.19h4.53v-11.19c0-0.12,0.07-0.2,0.2-0.2h0.7
		c0.12,0,0.2,0.07,0.2,0.2v11.34c0,0.6-0.32,0.92-0.9,0.92h-7.83C238.12,144.22,236.7,142.55,236.7,140.29z"/>
	<path class="st0" d="M252.04,140.49v-8.53c0-0.12,0.1-0.2,0.22-0.2h0.67c0.12,0,0.22,0.07,0.22,0.2v8.53
		c0,1.59,1.09,2.69,2.69,2.69h2.14v-11.22c0-0.12,0.07-0.2,0.2-0.2h0.7c0.12,0,0.2,0.07,0.2,0.2v11.37c0,0.57-0.32,0.9-0.9,0.9
		h-2.34C253.66,144.22,252.04,142.65,252.04,140.49z"/>
	<path class="st0" d="M275.39,132.68V144c0,0.12-0.1,0.2-0.22,0.2h-0.67c-0.12,0-0.22-0.07-0.22-0.2v-11.17h-4.78V144
		c0,0.12-0.07,0.2-0.2,0.2h-0.7c-0.12,0-0.2-0.07-0.2-0.2v-11.32c0-0.6,0.32-0.92,0.92-0.92h5.15
		C275.07,131.76,275.39,132.08,275.39,132.68z"/>
	<path class="st0" d="M278.3,140.56v-5.15c0-2.24,1.44-3.86,3.71-3.86c2.21,0,3.71,1.64,3.71,3.76c0,2.06-1.44,3.61-3.88,3.61h-2.41
		v1.64c0,1.59,0.9,2.79,2.56,2.79c1.59,0,2.51-1.14,2.56-2.74c0-0.12,0.1-0.2,0.22-0.2h0.67c0.12,0,0.22,0.08,0.22,0.2
		c-0.08,2.21-1.47,3.78-3.68,3.78C279.7,144.39,278.3,142.8,278.3,140.56z M281.83,137.85c1.82,0,2.76-1.07,2.76-2.54
		c0-1.54-1-2.71-2.59-2.71c-1.64,0-2.59,1.14-2.59,2.81v2.44H281.83z"/>
	<path class="st0" d="M294.54,131.76h0.67c0.12,0,0.22,0.07,0.22,0.2V144c0,0.12-0.1,0.2-0.22,0.2h-0.67c-0.12,0-0.22-0.07-0.22-0.2
		v-5.75h-4.78V144c0,0.12-0.07,0.2-0.2,0.2h-0.67c-0.15,0-0.22-0.07-0.22-0.2v-12.04c0-0.12,0.07-0.2,0.2-0.2h0.7
		c0.12,0,0.2,0.07,0.2,0.2v5.25h4.78v-5.25C294.32,131.83,294.42,131.76,294.54,131.76z"/>
	<path class="st0" d="M298.17,140.54c0-2.01,1.47-3.53,3.83-3.53h2.49v-1.64c0-1.67-0.94-2.76-2.51-2.76
		c-1.49,0-2.39,0.99-2.49,2.41c-0.02,0.15-0.1,0.22-0.22,0.22h-0.67c-0.12,0-0.22-0.1-0.22-0.22c0.12-2.01,1.47-3.48,3.61-3.48
		c2.21,0,3.63,1.57,3.63,3.83v5.17c0,2.26-1.39,3.85-3.63,3.85C299.64,144.39,298.17,142.85,298.17,140.54z M304.49,140.54v-2.49
		H302c-1.74,0-2.71,1.04-2.71,2.49c0,1.72,0.97,2.81,2.69,2.81C303.57,143.35,304.49,142.23,304.49,140.54z"/>
	<path class="st0" d="M310.31,144v-11.17h-2.81c-0.12,0-0.2-0.1-0.2-0.22v-0.65c0-0.12,0.07-0.2,0.2-0.2h6.74
		c0.12,0,0.2,0.07,0.2,0.2v0.65c0,0.12-0.07,0.22-0.2,0.22h-2.84V144c0,0.12-0.07,0.2-0.2,0.2h-0.7
		C310.38,144.19,310.31,144.12,310.31,144z"/>
	<path class="st0" d="M316.6,143.32v-11.37c0-0.12,0.07-0.2,0.2-0.2h0.7c0.12,0,0.2,0.07,0.2,0.2v4.9h2.41
		c2.19,0,3.78,1.54,3.78,3.66c0,2.14-1.59,3.71-3.78,3.71h-2.59C316.92,144.22,316.6,143.9,316.6,143.32z M320.11,143.17
		c1.59,0,2.69-1.09,2.69-2.66c0-1.54-1.09-2.61-2.69-2.61h-2.41v5.27H320.11z M325.18,144v-12.04c0-0.12,0.07-0.2,0.2-0.2h0.7
		c0.12,0,0.2,0.07,0.2,0.2V144c0,0.12-0.08,0.2-0.2,0.2h-0.7C325.26,144.19,325.18,144.12,325.18,144z"/>
</g>
<g>
	<path class="st0" d="M204.13,66.87V44.64c0-0.46,0.27-0.73,0.73-0.73h1.06c0.4,0,0.7,0.2,0.83,0.59l3.7,10.06
		c0.5,1.36,1.03,2.71,1.52,4.1h0.07c0.5-1.39,1.02-2.75,1.52-4.1l3.7-10.06c0.13-0.4,0.43-0.59,0.83-0.59h1.06
		c0.46,0,0.73,0.26,0.73,0.73v22.23c0,0.16-0.1,0.26-0.27,0.26h-0.99c-0.17,0-0.3-0.1-0.3-0.26l0.03-13.6
		c0.03-2.51,0.03-4.99,0.07-7.51h-0.07c-0.59,1.65-1.19,3.31-1.82,4.96l-3.37,9.1c-0.13,0.4-0.46,0.63-0.89,0.63h-0.53
		c-0.43,0-0.76-0.23-0.89-0.63l-3.37-9.1c-0.63-1.65-1.22-3.31-1.82-4.96h-0.07c0.03,2.51,0.03,4.99,0.07,7.51l0.03,13.6
		c0,0.16-0.13,0.26-0.3,0.26h-0.99C204.23,67.14,204.13,67.04,204.13,66.87z"/>
	<path class="st0" d="M224.07,61.58V49.54c0-3.21,2.15-5.62,5.33-5.62h3.27c0.16,0,0.26,0.1,0.26,0.26v0.89c0,0.16-0.1,0.3-0.26,0.3
		h-3.27c-2.28,0-3.77,1.75-3.77,4.17v5.13h6.29c0.16,0,0.3,0.1,0.3,0.27v0.89c0,0.17-0.13,0.27-0.3,0.27h-6.29v5.49
		c0,2.41,1.49,4.17,3.77,4.17h3.27c0.16,0,0.26,0.13,0.26,0.3v0.89c0,0.17-0.1,0.27-0.26,0.27h-3.27
		C226.22,67.2,224.07,64.79,224.07,61.58z"/>
	<path class="st0" d="M236.27,66.87v-6.75c0-2.48,1.52-4.63,3.74-5.29l-4-10.55c-0.07-0.17,0.03-0.3,0.2-0.3h1.02
		c0.13,0,0.27,0.1,0.33,0.23l3.9,10.39h3.18V44.25c0-0.17,0.13-0.27,0.3-0.27h0.99c0.16,0,0.26,0.1,0.26,0.27V54.6h3.18l3.94-10.39
		c0.03-0.13,0.2-0.23,0.33-0.23h0.99c0.2,0,0.26,0.13,0.2,0.3l-4,10.55c2.22,0.66,3.74,2.81,3.74,5.29v6.75
		c0,0.16-0.1,0.26-0.26,0.26h-0.99c-0.16,0-0.26-0.1-0.26-0.26v-6.75c0-2.25-1.59-4.07-3.7-4.07h-3.14v10.82
		c0,0.16-0.1,0.26-0.26,0.26h-0.99c-0.16,0-0.3-0.1-0.3-0.26V56.05h-3.14c-2.12,0-3.67,1.82-3.67,4.07v6.75
		c0,0.16-0.13,0.26-0.3,0.26h-0.99C236.37,67.14,236.27,67.04,236.27,66.87z"/>
	<path class="st0" d="M257.21,70.41v-3.97c0-0.46,0.26-0.73,0.73-0.83c1.62-0.4,2.35-1.92,2.35-4.43V49.41
		c0-3.21,2.05-5.52,5.16-5.52h3.11c0.83,0,1.32,0.5,1.32,1.32v20.48h0.66c0.83,0,1.32,0.5,1.32,1.32v3.41c0,0.16-0.13,0.3-0.3,0.3
		h-0.93c-0.16,0-0.26-0.13-0.26-0.3v-3.27H258.7v3.27c0,0.16-0.1,0.3-0.27,0.3h-0.96C257.31,70.71,257.21,70.58,257.21,70.41z
		 M268.32,65.68V45.34h-2.88c-2.22,0-3.61,1.69-3.61,4.07v11.78c0,2.28-0.53,3.67-1.62,4.5H268.32z"/>
	<path class="st0" d="M274.04,66.94v-0.89c0-0.17,0.13-0.27,0.3-0.27h4.63c2.12,0,3.61-1.75,3.61-4.17v-3.34h-3.54
		c-3.04,0-5.26-2.41-5.26-5.62v-8.4c0-0.17,0.13-0.27,0.3-0.27h0.99c0.17,0,0.27,0.1,0.27,0.27v8.4c0,2.41,1.59,4.17,3.7,4.17h3.54
		V44.25c0-0.17,0.1-0.27,0.26-0.27h0.99c0.16,0,0.26,0.1,0.26,0.27v17.37c0,3.21-2.08,5.62-5.13,5.62h-4.63
		C274.17,67.24,274.04,67.1,274.04,66.94z"/>
	<path class="st0" d="M297.75,43.98h0.99c0.16,0,0.26,0.1,0.26,0.27v22.63c0,0.16-0.1,0.26-0.26,0.26h-0.99
		c-0.16,0-0.26-0.1-0.26-0.26V56.09h-7.21v10.78c0,0.16-0.13,0.26-0.3,0.26h-0.99c-0.17,0-0.27-0.1-0.27-0.26V44.25
		c0-0.17,0.1-0.27,0.27-0.27h0.99c0.17,0,0.3,0.1,0.3,0.27v10.42h7.21V44.25C297.49,44.08,297.59,43.98,297.75,43.98z"/>
	<path class="st0" d="M303.61,66.87V49.6c0-3.54,2.15-5.89,5.36-5.89c3.18,0,5.33,2.35,5.33,5.89v17.27
		c0.03,0.16-0.1,0.26-0.26,0.26h-0.99c-0.16,0-0.26-0.1-0.26-0.26v-8.4h-7.61v8.4c0,0.16-0.1,0.26-0.26,0.26h-0.99
		C303.74,67.14,303.61,67.04,303.61,66.87z M312.77,57.05V49.6c0-2.78-1.42-4.47-3.8-4.47c-2.38,0-3.8,1.69-3.8,4.47v7.44H312.77z"
		/>
	<path class="st0" d="M318.62,66.87v-17.4c0-3.37,1.98-5.79,5.19-5.79c3.21,0,5.23,2.41,5.23,5.79v3.44c0,3.14-2.15,5.39-5.23,5.39
		h-3.64v8.57c0,0.16-0.1,0.26-0.26,0.26h-0.99C318.75,67.14,318.62,67.04,318.62,66.87z M323.81,56.85c2.15,0,3.67-1.55,3.67-3.94
		v-3.44c0-2.58-1.39-4.33-3.67-4.33c-2.25,0-3.64,1.75-3.64,4.33v7.38H323.81z"/>
	<path class="st0" d="M331.98,61.31V49.84c0-3.74,2.25-6.12,5.52-6.12c3.31,0,5.52,2.38,5.52,5.89v11.91c0,3.51-2.22,5.89-5.52,5.89
		C334.23,67.4,331.98,65.02,331.98,61.31z M341.51,61.51V49.6c0-2.68-1.62-4.47-4-4.47c-2.38,0-3.97,1.79-3.97,4.7v11.48
		c0,2.88,1.59,4.66,3.97,4.66C339.89,65.98,341.51,64.19,341.51,61.51z"/>
	<path class="st0" d="M345.41,70.41v-3.97c0-0.46,0.26-0.73,0.73-0.83c1.62-0.4,2.35-1.92,2.35-4.43V49.41
		c0-3.21,2.05-5.52,5.16-5.52h3.11c0.83,0,1.32,0.5,1.32,1.32v20.48h0.66c0.83,0,1.32,0.5,1.32,1.32v3.41c0,0.16-0.13,0.3-0.3,0.3
		h-0.93c-0.16,0-0.26-0.13-0.26-0.3v-3.27H346.9v3.27c0,0.16-0.1,0.3-0.26,0.3h-0.96C345.51,70.71,345.41,70.58,345.41,70.41z
		 M356.52,65.68V45.34h-2.88c-2.22,0-3.6,1.69-3.6,4.07v11.78c0,2.28-0.53,3.67-1.62,4.5H356.52z"/>
	<path class="st0" d="M372.2,43.98h0.99c0.17,0,0.27,0.1,0.27,0.27v22.63c0,0.16-0.1,0.26-0.27,0.26h-0.99
		c-0.17,0-0.27-0.1-0.27-0.26V56.09h-7.21v10.78c0,0.16-0.13,0.26-0.3,0.26h-0.99c-0.16,0-0.26-0.1-0.26-0.26V44.25
		c0-0.17,0.1-0.27,0.26-0.27h0.99c0.17,0,0.3,0.1,0.3,0.27v10.42h7.21V44.25C371.93,44.08,372.03,43.98,372.2,43.98z"/>
	<path class="st0" d="M378.05,66.87V49.6c0-3.54,2.15-5.89,5.36-5.89c3.18,0,5.33,2.35,5.33,5.89v17.27
		c0.03,0.16-0.1,0.26-0.27,0.26h-0.99c-0.17,0-0.27-0.1-0.27-0.26v-8.4h-7.61v8.4c0,0.16-0.1,0.26-0.27,0.26h-0.99
		C378.18,67.14,378.05,67.04,378.05,66.87z M387.21,57.05V49.6c0-2.78-1.42-4.47-3.8-4.47c-2.38,0-3.8,1.69-3.8,4.47v7.44H387.21z"
		/>
	<path class="st0" d="M402.92,49.47v17.4c0,0.16-0.1,0.26-0.26,0.26h-0.99c-0.16,0-0.26-0.1-0.26-0.26v-8.93h-3.67l-3.9,8.96
		c-0.03,0.16-0.17,0.23-0.3,0.23h-1.02c-0.2,0-0.3-0.13-0.23-0.33l3.97-9.1c-2.35-0.56-3.94-2.71-3.94-5.49v-2.75
		c0-3.37,2.08-5.79,5.32-5.79C400.87,43.68,402.92,46.1,402.92,49.47z M401.4,49.47c0-2.58-1.42-4.33-3.77-4.33
		c-2.38,0-3.77,1.75-3.77,4.33v2.75c0,2.51,1.52,4.27,3.77,4.27h3.77V49.47z"/>
	<path class="st0" d="M415.16,61.71V44.25c0-0.17,0.13-0.27,0.3-0.27h0.99c0.17,0,0.26,0.1,0.26,0.27v17.47
		c0,2.35,1.42,4.04,3.61,4.04h3.11v-21.5c0-0.17,0.13-0.27,0.3-0.27h0.96c0.16,0,0.3,0.1,0.3,0.27v21.5h6.62v-21.5
		c0-0.17,0.13-0.27,0.3-0.27h0.96c0.16,0,0.3,0.1,0.3,0.27v21.6c0,0.86-0.5,1.32-1.32,1.32h-11.51
		C417.27,67.17,415.16,64.82,415.16,61.71z"/>
	<path class="st0" d="M438.04,66.87V44.25c0-0.17,0.1-0.27,0.26-0.27h0.99c0.17,0,0.3,0.1,0.3,0.27V54.6h3.61l3.94-10.39
		c0.03-0.13,0.2-0.23,0.33-0.23h0.99c0.2,0,0.27,0.13,0.2,0.3l-4,10.55c2.32,0.63,3.8,2.81,3.8,5.56v6.48c0,0.16-0.1,0.26-0.26,0.26
		h-0.99c-0.16,0-0.26-0.1-0.26-0.26v-6.48c0-2.51-1.59-4.33-3.77-4.33h-3.57v10.82c0,0.16-0.13,0.26-0.3,0.26h-0.99
		C438.14,67.14,438.04,67.04,438.04,66.87z"/>
	<path class="st0" d="M452.2,61.31V49.84c0-3.74,2.25-6.12,5.52-6.12c3.31,0,5.52,2.38,5.52,5.89v11.91c0,3.51-2.22,5.89-5.52,5.89
		C454.44,67.4,452.2,65.02,452.2,61.31z M461.72,61.51V49.6c0-2.68-1.62-4.47-4-4.47c-2.38,0-3.97,1.79-3.97,4.7v11.48
		c0,2.88,1.59,4.66,3.97,4.66C460.1,65.98,461.72,64.19,461.72,61.51z"/>
	<path class="st0" d="M465.69,66.94v-0.89c0-0.17,0.1-0.27,0.26-0.3c1.82-0.13,2.91-1.65,2.91-4.2V49.37c0-3.27,2.05-5.46,5.13-5.46
		h3.18c0.86,0,1.32,0.46,1.32,1.32v21.63c0,0.16-0.1,0.26-0.26,0.26h-0.99c-0.16,0-0.3-0.1-0.3-0.26v-21.5h-2.94
		c-2.28,0-3.61,1.49-3.61,4v12.17c0,3.31-1.75,5.52-4.43,5.69C465.79,67.24,465.69,67.1,465.69,66.94z"/>
	<path class="st0" d="M483.08,66.87V49.6c0-3.54,2.15-5.89,5.36-5.89c3.18,0,5.33,2.35,5.33,5.89v17.27
		c0.03,0.16-0.1,0.26-0.27,0.26h-0.99c-0.17,0-0.27-0.1-0.27-0.26v-8.4h-7.61v8.4c0,0.16-0.1,0.26-0.27,0.26h-0.99
		C483.22,67.14,483.08,67.04,483.08,66.87z M492.25,57.05V49.6c0-2.78-1.42-4.47-3.8-4.47c-2.38,0-3.8,1.69-3.8,4.47v7.44H492.25z"
		/>
</g>
<g>
	<path class="st0" d="M203.43,101.5v-12.5c0-3.31,2.18-5.62,5.36-5.62c3.04,0,5.19,2.41,5.26,5.86c0,0.16-0.1,0.26-0.27,0.26h-0.99
		c-0.17,0-0.26-0.1-0.26-0.26c-0.1-2.71-1.55-4.4-3.74-4.4c-2.32,0-3.8,1.62-3.8,4.17v12.5c0,2.55,1.49,4.17,3.8,4.17
		c2.35,0,3.84-1.75,3.9-4.5c0-0.2,0.1-0.27,0.27-0.27h0.99c0.16,0,0.26,0.07,0.26,0.27c-0.1,3.51-2.25,5.95-5.42,5.95
		C205.62,107.12,203.43,104.8,203.43,101.5z"/>
	<path class="st0" d="M217.79,106.56V84.33c0-0.46,0.27-0.73,0.73-0.73h1.06c0.4,0,0.69,0.2,0.83,0.59l3.7,10.06
		c0.5,1.36,1.03,2.71,1.52,4.1h0.07c0.5-1.39,1.02-2.75,1.52-4.1l3.7-10.06c0.13-0.4,0.43-0.59,0.83-0.59h1.06
		c0.46,0,0.73,0.26,0.73,0.73v22.23c0,0.16-0.1,0.26-0.27,0.26h-0.99c-0.17,0-0.3-0.1-0.3-0.26l0.03-13.6
		c0.03-2.51,0.03-4.99,0.07-7.51h-0.07c-0.59,1.65-1.19,3.31-1.82,4.96l-3.37,9.1c-0.13,0.4-0.46,0.63-0.89,0.63h-0.53
		c-0.43,0-0.76-0.23-0.89-0.63l-3.37-9.1c-0.63-1.65-1.22-3.31-1.82-4.96h-0.07c0.03,2.51,0.03,4.99,0.07,7.51l0.03,13.6
		c0,0.16-0.13,0.26-0.3,0.26h-0.99C217.89,106.82,217.79,106.72,217.79,106.56z"/>
	<path class="st0" d="M237.73,101.26V89.22c0-3.21,2.15-5.62,5.33-5.62h3.27c0.16,0,0.26,0.1,0.26,0.26v0.89
		c0,0.16-0.1,0.3-0.26,0.3h-3.27c-2.28,0-3.77,1.75-3.77,4.17v5.13h6.29c0.16,0,0.3,0.1,0.3,0.27v0.89c0,0.17-0.13,0.27-0.3,0.27
		h-6.29v5.49c0,2.41,1.49,4.17,3.77,4.17h3.27c0.16,0,0.26,0.13,0.26,0.3v0.89c0,0.17-0.1,0.27-0.26,0.27h-3.27
		C239.88,106.89,237.73,104.47,237.73,101.26z"/>
	<path class="st0" d="M250.03,101.4V83.93c0-0.17,0.13-0.27,0.3-0.27h0.99c0.17,0,0.27,0.1,0.27,0.27v17.47
		c0,2.35,1.42,4.04,3.61,4.04h3.11v-21.5c0-0.17,0.13-0.27,0.3-0.27h0.96c0.17,0,0.3,0.1,0.3,0.27v21.5h6.62v-21.5
		c0-0.17,0.13-0.27,0.3-0.27h0.96c0.16,0,0.3,0.1,0.3,0.27v21.6c0,0.86-0.5,1.32-1.32,1.32h-11.51
		C252.15,106.85,250.03,104.51,250.03,101.4z"/>
	<path class="st0" d="M272.62,106.56V89.29c0-3.54,2.15-5.89,5.36-5.89c3.18,0,5.33,2.35,5.33,5.89v17.27
		c0.03,0.16-0.1,0.26-0.26,0.26h-0.99c-0.16,0-0.26-0.1-0.26-0.26v-8.4h-7.61v8.4c0,0.16-0.1,0.26-0.26,0.26h-0.99
		C272.75,106.82,272.62,106.72,272.62,106.56z M281.78,96.73v-7.44c0-2.78-1.42-4.47-3.8-4.47c-2.38,0-3.8,1.69-3.8,4.47v7.44
		H281.78z"/>
	<path class="st0" d="M296.96,83.67h0.99c0.16,0,0.26,0.1,0.26,0.27v22.63c0,0.16-0.1,0.26-0.26,0.26h-0.99
		c-0.16,0-0.26-0.1-0.26-0.26V95.77h-7.21v10.78c0,0.16-0.13,0.26-0.3,0.26h-0.99c-0.17,0-0.27-0.1-0.27-0.26V83.93
		c0-0.17,0.1-0.27,0.27-0.27h0.99c0.17,0,0.3,0.1,0.3,0.27v10.42h7.21V83.93C296.7,83.77,296.8,83.67,296.96,83.67z"/>
	<path class="st0" d="M312.14,83.67h0.99c0.16,0,0.26,0.1,0.26,0.27v22.63c0,0.16-0.1,0.26-0.26,0.26h-0.99
		c-0.16,0-0.26-0.1-0.26-0.26V95.77h-7.21v10.78c0,0.16-0.13,0.26-0.3,0.26h-0.99c-0.17,0-0.27-0.1-0.27-0.26V83.93
		c0-0.17,0.1-0.27,0.27-0.27h0.99c0.17,0,0.3,0.1,0.3,0.27v10.42h7.21V83.93C311.88,83.77,311.98,83.67,312.14,83.67z"/>
	<path class="st0" d="M317.6,101V89.52c0-3.74,2.25-6.12,5.52-6.12c3.31,0,5.52,2.38,5.52,5.89v11.91c0,3.51-2.22,5.89-5.52,5.89
		C319.85,107.09,317.6,104.7,317.6,101z M327.12,101.2V89.29c0-2.68-1.62-4.47-4-4.47c-2.38,0-3.97,1.79-3.97,4.7V101
		c0,2.88,1.59,4.66,3.97,4.66C325.5,105.66,327.12,103.88,327.12,101.2z"/>
	<path class="st0" d="M332.58,106.56V89.12c0-3.34,2.05-5.52,5.23-5.52h3.31c0.16,0,0.3,0.1,0.3,0.26v0.89c0,0.16-0.13,0.3-0.3,0.3
		h-3.31c-2.28,0-3.67,1.52-3.67,4.07v17.43c0,0.16-0.1,0.26-0.27,0.26h-0.99C332.71,106.82,332.58,106.72,332.58,106.56z"/>
	<path class="st0" d="M343.82,101V89.52c0-3.74,2.25-6.12,5.52-6.12c3.31,0,5.52,2.38,5.52,5.89v11.91c0,3.51-2.22,5.89-5.52,5.89
		C346.07,107.09,343.82,104.7,343.82,101z M353.35,101.2V89.29c0-2.68-1.62-4.47-4-4.47c-2.38,0-3.97,1.79-3.97,4.7V101
		c0,2.88,1.59,4.66,3.97,4.66C351.73,105.66,353.35,103.88,353.35,101.2z"/>
	<path class="st0" d="M366.31,101V89.52c0-3.74,2.25-6.12,5.52-6.12c3.31,0,5.52,2.38,5.52,5.89v11.91c0,3.51-2.22,5.89-5.52,5.89
		C368.56,107.09,366.31,104.7,366.31,101z M375.84,101.2V89.29c0-2.68-1.62-4.47-4-4.47c-2.38,0-3.97,1.79-3.97,4.7V101
		c0,2.88,1.59,4.66,3.97,4.66C374.22,105.66,375.84,103.88,375.84,101.2z"/>
	<path class="st0" d="M381.29,106.09V89.16c0-3.21,2.12-5.56,5.19-5.56h4.07c0.17,0,0.27,0.1,0.27,0.26v0.89
		c0,0.16-0.1,0.3-0.27,0.3h-4.07c-2.22,0-3.64,1.65-3.64,4.1v4.6h3.77c3.11,0,5.26,2.35,5.26,5.49v2.12c0,3.11-2.15,5.52-5.26,5.52
		h-4.53C381.66,106.89,381.29,106.52,381.29,106.09z M386.62,105.43c2.18,0,3.74-1.75,3.74-4.07v-2.12c0-2.35-1.55-4.07-3.74-4.07
		h-3.77v10.25H386.62z"/>
	<path class="st0" d="M394.52,106.62v-0.89c0-0.17,0.13-0.27,0.3-0.27h4.63c2.12,0,3.61-1.75,3.61-4.17v-3.34h-3.54
		c-3.04,0-5.26-2.41-5.26-5.62v-8.4c0-0.17,0.13-0.27,0.3-0.27h0.99c0.16,0,0.26,0.1,0.26,0.27v8.4c0,2.41,1.59,4.17,3.7,4.17h3.54
		V83.93c0-0.17,0.1-0.27,0.26-0.27h0.99c0.17,0,0.27,0.1,0.27,0.27v17.37c0,3.21-2.09,5.62-5.13,5.62h-4.63
		C394.65,106.92,394.52,106.79,394.52,106.62z"/>
	<path class="st0" d="M416.48,106.56v-7.97h-3.54c-3.11,0-5.26-2.25-5.26-5.52v-9.13c0-0.17,0.13-0.27,0.3-0.27h0.99
		c0.16,0,0.26,0.1,0.26,0.27v9.13c0,2.48,1.46,4.07,3.71,4.07h3.54v-13.2c0-0.17,0.1-0.27,0.26-0.27h0.99c0.16,0,0.26,0.1,0.26,0.27
		v22.63c0,0.16-0.1,0.26-0.26,0.26h-0.99C416.58,106.82,416.48,106.72,416.48,106.56z"/>
	<path class="st0" d="M422.2,101.26V89.22c0-3.21,2.15-5.62,5.32-5.62h3.27c0.17,0,0.27,0.1,0.27,0.26v0.89c0,0.16-0.1,0.3-0.27,0.3
		h-3.27c-2.28,0-3.77,1.75-3.77,4.17v5.13h6.28c0.17,0,0.3,0.1,0.3,0.27v0.89c0,0.17-0.13,0.27-0.3,0.27h-6.28v5.49
		c0,2.41,1.49,4.17,3.77,4.17h3.27c0.17,0,0.27,0.13,0.27,0.3v0.89c0,0.17-0.1,0.27-0.27,0.27h-3.27
		C424.35,106.89,422.2,104.47,422.2,101.26z"/>
	<path class="st0" d="M443.83,83.67h0.99c0.17,0,0.27,0.1,0.27,0.27v22.63c0,0.16-0.1,0.26-0.27,0.26h-0.99
		c-0.17,0-0.27-0.1-0.27-0.26V95.77h-7.21v10.78c0,0.16-0.13,0.26-0.3,0.26h-0.99c-0.16,0-0.26-0.1-0.26-0.26V83.93
		c0-0.17,0.1-0.27,0.26-0.27h0.99c0.17,0,0.3,0.1,0.3,0.27v10.42h7.21V83.93C443.57,83.77,443.67,83.67,443.83,83.67z"/>
	<path class="st0" d="M458.75,83.67h0.99c0.16,0,0.26,0.1,0.26,0.27v22.2c0,0.46-0.26,0.76-0.76,0.76h-4.3
		c-3.11,0-5.26-2.41-5.26-5.72V83.93c0-0.17,0.13-0.27,0.3-0.27h0.99c0.17,0,0.27,0.1,0.27,0.27v17.23c0,2.51,1.52,4.27,3.7,4.27
		h3.54v-21.5C458.48,83.77,458.58,83.67,458.75,83.67z"/>
	<path class="st0" d="M474.45,89.16v17.4c0,0.16-0.1,0.26-0.26,0.26h-0.99c-0.16,0-0.26-0.1-0.26-0.26v-8.93h-3.67l-3.9,8.96
		c-0.03,0.16-0.17,0.23-0.3,0.23h-1.02c-0.2,0-0.3-0.13-0.23-0.33l3.97-9.1c-2.35-0.56-3.94-2.71-3.94-5.49v-2.75
		c0-3.37,2.08-5.79,5.32-5.79C472.41,83.37,474.45,85.78,474.45,89.16z M472.93,89.16c0-2.58-1.42-4.33-3.77-4.33
		c-2.38,0-3.77,1.75-3.77,4.33v2.75c0,2.51,1.52,4.27,3.77,4.27h3.77V89.16z"/>
</g>
<polygon points="209.63,129.03 207.94,131.25 207.94,131.29 210.62,130.93 210.62,132.14 207.94,131.82 207.94,131.86 
	209.64,133.99 208.52,134.63 207.46,132.14 207.42,132.14 206.27,134.65 205.25,134.01 206.94,131.84 206.94,131.8 204.31,132.14 
	204.31,130.93 206.92,131.27 206.92,131.24 205.25,129.07 206.34,128.44 207.44,130.91 207.47,130.91 208.56,128.43 "/>
</svg>
