<svg xmlns="http://www.w3.org/2000/svg" viewBox="0 0 151.67 118.38"><defs><style>.cls-1{fill:#7d7c79;}.cls-2{fill:#ec8e4b;}.cls-3{fill:#53707b;opacity:0.95;}.cls-4{fill:#e0ce75;opacity:0.96;}</style></defs><g id="Layer_2" data-name="Layer 2"><g id="Слой_1" data-name="Слой 1"><path class="cls-1" d="M62.48,79.74l.05-.29c1-6.48,8.41-21,8.82-21.79C73,53.38,77.21,47.59,83.89,40.44c5-5.32,9.52-9.44,9.57-9.48,7-5.91,17.71-13.41,29.05-15.69,6.83-1.37,10.6-.21,10.75-.16h0a26.25,26.25,0,0,1,13.13,9.29,19.47,19.47,0,0,1,3.08,5.95,24.7,24.7,0,0,1,.93,17.78,26.58,26.58,0,0,1-3.7,7.53c-5.26,9.81-20.8,17.09-21.46,17.4-5.48,3.51-12.62,6.17-17.66,7.79-5.45,1.75-9.66,2.68-9.71,2.69C89,86.07,63.83,80.06,62.76,79.8Zm70.63-64h0s-3.81-1.16-10.49.19c-11.2,2.27-21.79,9.7-28.71,15.54-.18.15-18.11,16.43-21.94,26.47v0c-.08.15-7.56,14.76-8.73,21.34,2.85.66,26.3,6,34.57,3.68.06,0,4.26-.94,9.68-2.69,5-1.6,12.1-4.25,17.52-7.73l0,0c.16-.07,16-7.35,21.21-17.16l0,0a26.11,26.11,0,0,0,3.62-7.38,24,24,0,0,0-.92-17.34l0-.05C148.89,30.44,146.05,20,133.11,15.71Z"/><path class="cls-2" d="M86.31,65.23a53.77,53.77,0,0,1,41.17-33.41c4.11,6.29-1.76,8,.08,8.79,4.09,1.84-4.44,19.1-6.9,22.85S113.88,69.2,109.78,71c-4.34,1.91-8.85,3.86-13.59,3.85s-9.83-2.5-11.34-7,2.42-10.33,7.08-9.45"/><path class="cls-3" d="M87.73,118.38c11.67-28.16,12.35-52.62,10.8-83.06-.13-2.52-.39-5.23-2-7.13-2.23-2.55-6.08-2.68-9.46-2.62-7.93.15-16.37.46-22.89,5-7.41,5.14-10.57,14.82-10.21,23.82s3.7,17.6,7,26c5.81,14.76,12.69,30.76,26.81,38"/><path class="cls-4" d="M72.53,73.4l-36.7,6.72c-3.37.62-6.82,1.26-9.77,3a20.94,20.94,0,0,0-6.2,6.06c-2.77,3.88-4.72,9.4-1.85,13.2,1.59,2.09,4.24,3,6.78,3.71a54.75,54.75,0,0,0,47.15-10c3.19-2.54,6.17-5.55,7.75-9.32s1.51-8.42-1-11.65a163.92,163.92,0,0,0-16.27,3"/><path class="cls-1" d="M72.79,104.67l-.25-.48A290.45,290.45,0,0,1,48.22,42.06c-.95-4.63-1.36-12.31,2-22.66A62.1,62.1,0,0,1,54.7,8.92a15.58,15.58,0,0,1,11-8.43,20.92,20.92,0,0,1,7-.34C89.58,2.14,93.86,8.49,94.2,9c7.29,8.1,8.17,20.81,8.2,21.28.82,6.27-3.06,20.33-3.3,21.18-1.72,12.57-25,51.08-26,52.71ZM72.39.73a21.26,21.26,0,0,0-6.55.37A14.71,14.71,0,0,0,55.25,9.2v0c-.09.17-9.63,16.93-6.41,32.7a289.81,289.81,0,0,0,24,61.49c2.71-4.52,24.08-40.34,25.65-52v0c0-.14,4.11-14.76,3.29-21v0c0-.13-.8-12.89-8.06-20.93l0,0c0-.07-4.14-6.62-21-8.61Z"/><path class="cls-1" d="M80.73,69.73l-.07.2C78.08,77.54,67.45,89,67.34,89.13c-7.9,9.77-19.61,15.2-28,18A84.86,84.86,0,0,1,22.75,111a19.93,19.93,0,0,1-18.54-8.68c-5.39-7.58-4.63-13.55-3-17.23A16.15,16.15,0,0,1,6,78.83,48.57,48.57,0,0,1,20.22,68.42a54.78,54.78,0,0,1,14-4.52,55.79,55.79,0,0,1,14.88-.78c4.24-.39,10.8.59,19.52,2.91,6.5,1.73,11.82,3.6,11.88,3.62ZM.63,89.2C.25,92.59,1,97,4.68,102.08h0a19,19,0,0,0,4.47,4.69,18.81,18.81,0,0,0,13.51,3.74,84.54,84.54,0,0,0,16.43-3.8c8.36-2.8,20-8.17,27.8-17.87C67,88.73,77.4,77.52,80.07,70c-2.34-.81-21.56-7.3-30.92-6.41h-.07a53.66,53.66,0,0,0-14.74.77,54,54,0,0,0-13.85,4.47A48.06,48.06,0,0,0,6.38,79.14l0,0a15.87,15.87,0,0,0-4.67,6.08A13.78,13.78,0,0,0,.63,89.2Z"/></g></g></svg>