<svg xmlns="http://www.w3.org/2000/svg" viewBox="0 0 179.92 12.71"><defs><style>.cls-1{fill:#414146;}</style></defs><g id="Layer_2" data-name="Layer 2"><g id="Слой_1" data-name="Слой 1"><path class="cls-1" d="M.6,5.73C25.06,6.86,49.43,1.49,73.86,3.86a106.1,106.1,0,0,1,18.28,3.5c5.65,1.57,11.26,3.38,17,4.45,11,2,22,.34,32.72-2.43,12.36-3.18,24.57-7.52,37.42-8.13.8,0,.8-1.29,0-1.25C157,1.05,136.12,13.77,113.46,11.2c-6.09-.69-12-2.47-17.86-4.16A124.34,124.34,0,0,0,78.25,3.12c-12-1.64-24.11-1.18-36.13-.36C28.3,3.71,14.47,5.12.6,4.48c-.8,0-.8,1.22,0,1.25Z"/></g></g></svg>