<?xml version="1.0" encoding="utf-8"?>
<!-- Generator: Adobe Illustrator 23.0.1, SVG Export Plug-In . SVG Version: 6.00 Build 0)  -->
<svg version="1.1" id="Слой_1" xmlns="http://www.w3.org/2000/svg" xmlns:xlink="http://www.w3.org/1999/xlink" x="0px" y="0px"
	 viewBox="0 0 194.07 44.2" style="enable-background:new 0 0 194.07 44.2;" xml:space="preserve">
<style type="text/css">
	.st0{fill:none;stroke:#ffffff;stroke-width:0.75;stroke-miterlimit:10;}
	.st1{fill:#ffffff;stroke:#ffffff;stroke-width:0.25;stroke-miterlimit:10;}
</style>
<g>
	<path class="st0" d="M38.59,23.95v-4.58c0-1.94,1.3-3.41,3.3-3.41c2.03,0,3.3,1.48,3.3,3.41v4.58c0,1.94-1.28,3.41-3.3,3.41
		C39.89,27.36,38.59,25.88,38.59,23.95z M44.21,23.95v-4.58c0-1.43-0.86-2.49-2.31-2.49c-1.43,0-2.31,1.06-2.31,2.49v4.58
		c0,1.43,0.88,2.49,2.31,2.49C43.35,26.43,44.21,25.38,44.21,23.95z"/>
	<path class="st0" d="M47.38,23.95v-4.51c0-2.03,1.3-3.48,3.24-3.48c1.87,0,3.13,1.28,3.21,3.08c0,0.11-0.07,0.2-0.18,0.2h-0.62
		c-0.11,0-0.18-0.07-0.18-0.2c-0.09-1.28-0.92-2.14-2.25-2.14c-1.39,0-2.25,1.01-2.25,2.53v4.51c0,1.45,0.88,2.47,2.29,2.47
		c1.34,0,2.22-0.97,2.29-2.4c0-0.13,0.09-0.18,0.2-0.18h0.59c0.11,0,0.2,0.07,0.2,0.18c-0.11,1.96-1.39,3.35-3.28,3.35
		C48.7,27.36,47.38,25.93,47.38,23.95z"/>
	<path class="st0" d="M57.51,26.98V17.1h-2.49c-0.11,0-0.18-0.09-0.18-0.2v-0.57c0-0.11,0.07-0.18,0.18-0.18h5.97
		c0.11,0,0.18,0.07,0.18,0.18v0.57c0,0.11-0.07,0.2-0.18,0.2h-2.51v9.89c0,0.11-0.07,0.18-0.18,0.18h-0.62
		C57.57,27.16,57.51,27.1,57.51,26.98z"/>
	<path class="st0" d="M62.37,23.92c0-1.78,1.3-3.13,3.39-3.13h2.2v-1.45c0-1.48-0.84-2.44-2.22-2.44c-1.32,0-2.11,0.88-2.2,2.14
		c-0.02,0.13-0.09,0.2-0.2,0.2h-0.59c-0.11,0-0.2-0.09-0.2-0.2c0.11-1.78,1.3-3.08,3.19-3.08c1.96,0,3.21,1.39,3.21,3.39v4.58
		c0,2-1.23,3.41-3.21,3.41C63.67,27.34,62.37,25.97,62.37,23.92z M67.97,23.92v-2.2h-2.2c-1.54,0-2.4,0.92-2.4,2.2
		c0,1.52,0.86,2.49,2.38,2.49C67.15,26.41,67.97,25.42,67.97,23.92z"/>
	<path class="st0" d="M77.92,23.97c0,1.83-1.43,3.19-3.52,3.19h-2.27c-0.53,0-0.81-0.29-0.81-0.81v-7.38c0-1.81,1.17-3.02,3.02-3.02
		c1.87,0,3.06,1.21,3.06,2.91c0,1.12-0.57,1.96-1.5,2.36C77.21,21.63,77.92,22.67,77.92,23.97z M72.3,20.8h1.98
		c1.43,0,2.14-0.88,2.14-1.94c0-1.17-0.75-1.96-2.09-1.96c-1.32,0-2.03,0.77-2.03,2.07V20.8z M76.95,23.97
		c0-1.28-0.92-2.22-2.49-2.22H72.3v4.47h2.09C75.96,26.21,76.95,25.27,76.95,23.97z"/>
	<path class="st0" d="M79.99,23.88v-7.55c0-0.11,0.09-0.18,0.2-0.18h0.59c0.11,0,0.2,0.07,0.2,0.18v7.55c0,1.41,0.97,2.38,2.38,2.38
		h1.89v-9.93c0-0.11,0.07-0.18,0.18-0.18h0.62c0.11,0,0.18,0.07,0.18,0.18v10.06c0,0.51-0.29,0.79-0.79,0.79h-2.07
		C81.42,27.18,79.99,25.8,79.99,23.88z"/>
	<path class="st0" d="M90.8,26.98V17.1h-2.49c-0.11,0-0.18-0.09-0.18-0.2v-0.57c0-0.11,0.07-0.18,0.18-0.18h5.97
		c0.11,0,0.18,0.07,0.18,0.18v0.57c0,0.11-0.07,0.2-0.18,0.2h-2.51v9.89c0,0.11-0.07,0.18-0.18,0.18h-0.62
		C90.86,27.16,90.8,27.1,90.8,26.98z"/>
	<path class="st0" d="M96.37,26.39V16.33c0-0.11,0.07-0.18,0.18-0.18h0.62c0.11,0,0.18,0.07,0.18,0.18v4.12h2.14
		c1.98,0,3.35,1.41,3.35,3.35c0,1.96-1.37,3.39-3.35,3.39h-2.29C96.65,27.18,96.37,26.9,96.37,26.39z M99.47,26.26
		c1.45,0,2.38-0.99,2.38-2.47c0-1.43-0.92-2.42-2.38-2.42h-2.14v4.89H99.47z"/>
	<path class="st0" d="M109.49,24.17c0-0.11,0.09-0.2,0.2-0.2h0.59c0.11,0,0.2,0.07,0.2,0.2c0.07,1.3,0.95,2.25,2.31,2.25
		c1.39,0,2.31-0.9,2.31-2.4c0-1.32-0.82-2.27-2.4-2.27h-1.1c-0.11,0-0.18-0.07-0.18-0.18V21c0-0.11,0.07-0.18,0.18-0.18h1.06
		c1.39,0,2.09-0.88,2.09-1.96c0-1.19-0.71-1.96-2.03-1.96c-1.28,0-1.96,0.73-2.03,2.14c0,0.11-0.07,0.2-0.18,0.2h-0.62
		c-0.11,0-0.18-0.09-0.18-0.2c0.07-1.94,1.19-3.08,3-3.08c1.83,0,2.99,1.21,2.99,2.93c0,1.12-0.62,1.96-1.58,2.36
		c1.25,0.42,1.96,1.41,1.96,2.77c0,2-1.39,3.35-3.3,3.35C110.9,27.36,109.6,25.99,109.49,24.17z"/>
	<path class="st0" d="M117.92,23.92c0-1.78,1.3-3.13,3.39-3.13h2.2v-1.45c0-1.48-0.84-2.44-2.22-2.44c-1.32,0-2.11,0.88-2.2,2.14
		c-0.02,0.13-0.09,0.2-0.2,0.2h-0.59c-0.11,0-0.2-0.09-0.2-0.2c0.11-1.78,1.3-3.08,3.19-3.08c1.96,0,3.21,1.39,3.21,3.39v4.58
		c0,2-1.23,3.41-3.21,3.41C119.22,27.34,117.92,25.97,117.92,23.92z M123.52,23.92v-2.2h-2.2c-1.54,0-2.4,0.92-2.4,2.2
		c0,1.52,0.86,2.49,2.38,2.49C122.7,26.41,123.52,25.42,123.52,23.92z"/>
	<path class="st0" d="M132.94,19.21v7.77c0,0.11-0.07,0.18-0.18,0.18h-0.62c-0.11,0-0.18-0.07-0.18-0.18V22.8h-2.44l-2.29,4.23
		c-0.04,0.09-0.13,0.13-0.22,0.13h-0.71c-0.13,0-0.22-0.09-0.15-0.22l2.4-4.34c-1.28-0.44-2.14-1.63-2.14-3.24
		c0-2.03,1.45-3.41,3.41-3.41C131.71,15.95,132.94,17.3,132.94,19.21z M131.97,19.21c0-1.39-0.79-2.31-2.14-2.31
		c-1.43,0-2.44,0.95-2.44,2.47c0,1.54,0.97,2.49,2.38,2.49h2.2V19.21z"/>
	<path class="st0" d="M142.1,23.97c0,1.83-1.43,3.19-3.52,3.19h-2.27c-0.53,0-0.81-0.29-0.81-0.81v-7.38c0-1.81,1.17-3.02,3.02-3.02
		c1.87,0,3.06,1.21,3.06,2.91c0,1.12-0.57,1.96-1.5,2.36C141.4,21.63,142.1,22.67,142.1,23.97z M136.48,20.8h1.98
		c1.43,0,2.14-0.88,2.14-1.94c0-1.17-0.75-1.96-2.09-1.96c-1.32,0-2.03,0.77-2.03,2.07V20.8z M141.13,23.97
		c0-1.28-0.92-2.22-2.49-2.22h-2.16v4.47h2.09C140.14,26.21,141.13,25.27,141.13,23.97z"/>
	<path class="st0" d="M150.44,24.19v2.8c0,0.11-0.07,0.18-0.18,0.18h-0.62c-0.11,0-0.18-0.07-0.18-0.18v-2.8
		c0-1.41-0.92-2.29-2.33-2.29h-1.96v5.09c0,0.11-0.07,0.18-0.18,0.18h-0.62c-0.11,0-0.18-0.07-0.18-0.18V16.33
		c0-0.11,0.07-0.18,0.18-0.18h0.62c0.11,0,0.18,0.07,0.18,0.18v4.62h1.58l2.75-4.67c0.04-0.09,0.13-0.13,0.22-0.13h0.71
		c0.13,0,0.2,0.09,0.13,0.22l-2.8,4.69C149.39,21.33,150.44,22.52,150.44,24.19z"/>
	<path class="st0" d="M159.01,16.33v12.04c0,2-1.28,3.41-3.24,3.41c-1.87,0-3.15-1.39-3.24-3.35c0-0.11,0.09-0.18,0.2-0.18h0.59
		c0.11,0,0.2,0.04,0.2,0.18c0.04,1.45,0.86,2.4,2.25,2.4c1.43,0,2.25-0.99,2.25-2.47v-2.62c-0.51,0.75-1.3,1.25-2.25,1.25
		c-1.96,0-3.24-1.45-3.24-3.43v-7.24c0-0.11,0.09-0.18,0.2-0.18h0.59c0.11,0,0.2,0.07,0.2,0.18v7.24c0,1.45,0.84,2.51,2.25,2.51
		s2.25-1.06,2.25-2.51v-7.24c0-0.11,0.09-0.18,0.2-0.18h0.59C158.92,16.15,159.01,16.22,159.01,16.33z"/>
</g>
<g>
	<path class="st1" d="M38.33,43.06c-5.21,0-10.4-0.58-15.51-2.17c-4.74-1.47-12.67-3.94-12.75-12.59
		C10,21.17,10.93,11.72,15.74,7.23c3.92-3.66,8.92-5.01,15.74-4.24c1.77,0.2,3.57,0.51,5.3,0.82c3.52,0.62,7.16,1.26,10.75,0.96
		c2.34-0.19,4.72-0.79,7.02-1.37c4.19-1.05,8.52-2.13,12.73-0.83c1.32,0.41,2.62,1.05,3.88,1.67c1.71,0.85,3.48,1.72,5.29,1.99
		c2.94,0.43,5.88-0.73,8.72-1.85c1.62-0.64,3.29-1.3,4.96-1.67c4.7-1.05,9.47,0.16,14.09,1.34c3.58,0.91,7.29,1.86,10.95,1.73
		c3.19-0.1,6.39-1.01,9.49-1.9c3.05-0.87,6.2-1.77,9.36-1.9c3.77-0.16,7.57,0.77,11.23,1.67c3.76,0.92,7.64,1.88,11.49,1.64
		c2.06-0.12,4.37-0.56,6.82-1.03c7.44-1.42,15.88-3.02,20.75,3.79c2.57,3.59,3.95,9.16,3.61,14.53c-0.31,4.87-1.98,8.88-4.57,11
		l-0.1-0.39l0.1,0.39c-5.31,4.35-13.44,4.13-19.97,3.95c-0.87-0.02-1.71-0.05-2.51-0.06l-20.3-0.29c-5.55-0.08-11.3-0.16-16.95,0.45
		c-2.66,0.29-5.36,0.74-7.97,1.18c-4.48,0.75-9.08,1.54-13.68,1.51c-3.23-0.01-6.51-0.42-9.67-0.81c-2.18-0.27-4.43-0.55-6.64-0.7
		c-8.59-0.58-17.36,0.77-25.85,2.07C52.72,41.96,45.51,43.06,38.33,43.06z M27.97,3.64c-5,0-8.86,1.42-12.01,4.35
		c-4.59,4.29-5.48,13.4-5.41,20.29c0.07,7.94,8.06,10.42,12.35,11.76c12.1,3.76,24.68,1.84,36.84-0.02c8.5-1.3,17.29-2.64,25.9-2.07
		c2.22,0.15,4.48,0.43,6.66,0.7c3.16,0.39,6.42,0.8,9.64,0.81c0.04,0,0.09,0,0.13,0c4.52,0,9.09-0.77,13.51-1.51
		c2.61-0.44,5.32-0.89,7.98-1.18c5.66-0.62,11.42-0.54,16.98-0.46l20.3,0.29c0.8,0.01,1.65,0.03,2.52,0.06
		c6.48,0.18,14.55,0.4,19.77-3.87v0c2.44-1.99,4-5.75,4.3-10.31c0.33-5.07-0.98-10.34-3.42-13.74c-4.72-6.6-13.06-5.01-20.41-3.61
		c-2.46,0.47-4.78,0.91-6.85,1.03c-3.88,0.23-7.79-0.72-11.57-1.65c-3.65-0.89-7.42-1.82-11.16-1.66c-3.12,0.13-6.26,1.03-9.29,1.89
		c-3.11,0.89-6.33,1.8-9.56,1.91c-3.69,0.11-7.42-0.83-11.02-1.74c-4.59-1.16-9.33-2.37-13.96-1.33c-1.65,0.37-3.31,1.03-4.92,1.66
		c-2.88,1.14-5.85,2.31-8.86,1.87c-1.85-0.27-3.65-1.16-5.38-2.02c-1.25-0.62-2.54-1.25-3.84-1.66c-4.14-1.28-8.43-0.21-12.58,0.83
		c-2.31,0.58-4.7,1.18-7.06,1.37c-3.62,0.3-7.28-0.34-10.81-0.96c-1.73-0.3-3.52-0.62-5.29-0.81C30.23,3.71,29.07,3.64,27.97,3.64z"
		/>
</g>
</svg>
