<svg xmlns="http://www.w3.org/2000/svg" viewBox="0 0 201.62 5.48"><defs><style>.cls-1{fill:#678187;}</style></defs><g id="Layer_2" data-name="Layer 2"><g id="Слой_1" data-name="Слой 1"><path class="cls-1" d="M201.3,3.18a22.79,22.79,0,0,0-7.54-1.93c-4.26-.58-8.56-.82-12.84-1C168.31-.21,155.68,0,143.08.36c-15.85.4-31.69,1-47.52,1.64-16.24.63-32.48,1.28-48.72,1.73-14,.38-28,.67-41.93.36C3.47,4.06,2,4,.6,4c-.8,0-.8,1.22,0,1.25,13.45.45,26.93.23,40.38-.09,16.05-.39,32.1-1,48.15-1.63s31.8-1.26,47.7-1.72c13.14-.38,26.3-.7,39.45-.4,4.74.1,9.49.28,14.21.74a38.75,38.75,0,0,1,8.95,1.61,7.87,7.87,0,0,1,1.23.53c.71.37,1.35-.71.63-1.08Z"/></g></g></svg>