<svg xmlns="http://www.w3.org/2000/svg" viewBox="0 0 204.97 10.23"><defs><style>.cls-1{fill:#678187;}</style></defs><g id="Layer_2" data-name="Layer 2"><g id="Слой_1" data-name="Слой 1"><path class="cls-1" d="M.78,6.13A222.08,222.08,0,0,1,30.12,1.54,121.83,121.83,0,0,1,51.3,2c8.6.86,17.16,2.12,25.75,3.1,14.33,1.64,28.71,2.77,43.11,3.53,24.18,1.28,48.4,1.65,72.61,1.64,3.86,0,7.73,0,11.59,0a.63.63,0,0,0,0-1.25c-25.81.15-51.63-.08-77.42-1.26C111.59,7,96.25,5.91,81,4.25,71.88,3.26,62.83,2,53.74,1A130.1,130.1,0,0,0,32.67.13,192.55,192.55,0,0,0,4.91,4L.45,4.92C-.34,5.09,0,6.29.78,6.13Z"/></g></g></svg>