<svg xmlns="http://www.w3.org/2000/svg" viewBox="0 0 318.57 99.86"><defs><style>.cls-1{fill:#313031;}.cls-2{fill:#cb999e;}.cls-3{fill:#b2cebe;}.cls-4{fill:#d3d063;}.cls-5{fill:#7d7c79;}</style></defs><g id="Layer_2" data-name="Layer 2"><g id="Слой_1" data-name="Слой 1"><polygon class="cls-1" points="154.19 60.3 159.97 60.3 159.97 49.76 161.2 49.76 161.2 60.3 166.98 60.3 166.98 49.76 168.22 49.76 168.22 61.41 152.95 61.41 152.95 49.76 154.19 49.76 154.19 60.3"/><path class="cls-1" d="M171.94,49.76h1.24V61.41h-1.24Zm7.81,11.65-6.15-6.15,5.91-5.5h1.8l-6.15,5.5,6.38,6.15Z"/><path class="cls-1" d="M192.58,60a6.86,6.86,0,0,1-9.22,0,6.33,6.33,0,0,1,0-8.78,6.86,6.86,0,0,1,9.22,0,6.33,6.33,0,0,1,0,8.78m-4.61.8a4.93,4.93,0,0,0,3.67-1.51,5.3,5.3,0,0,0,0-7.35,5.18,5.18,0,0,0-7.35,0,5.33,5.33,0,0,0,0,7.35A4.92,4.92,0,0,0,188,60.78"/><path class="cls-1" d="M194.73,61.41V60.3h.74A1.75,1.75,0,0,0,197.15,59a14.1,14.1,0,0,0,.51-4.61V49.76H206V61.41h-1.24V50.88H198.9V54.4c0,4.68-1.14,7-3.43,7Zm22.36-2.26a5.82,5.82,0,0,1-4.56,2.61,4.16,4.16,0,0,1-2.84-.91,3,3,0,0,1-1-2.4A2.92,2.92,0,0,1,209.75,56a5.67,5.67,0,0,1,2.66-1.13,37,37,0,0,1,4.68-.3V53.42a2.65,2.65,0,0,0-.84-2.27,3.86,3.86,0,0,0-2.33-.62,5.1,5.1,0,0,0-3.7,1.61l-.79-.84a6.49,6.49,0,0,1,4.73-1.88,5.53,5.53,0,0,1,2,.32,3.67,3.67,0,0,1,1.25.73,2.78,2.78,0,0,1,.63,1.08,4,4,0,0,1,.24,1c0,.23,0,.52,0,.86v8h-1.24Zm-4.56,1.49q2.63,0,4.56-3v-2a32,32,0,0,0-4.47.28,4.27,4.27,0,0,0-.71.17,5.85,5.85,0,0,0-.88.4,2.35,2.35,0,0,0-.81.76,1.93,1.93,0,0,0-.33,1.11,1.81,1.81,0,0,0,.83,1.69,3.36,3.36,0,0,0,1.81.5"/><path class="cls-1" d="M163.3,93V85.17H154V93h-1.31V76.73H154V84h9.32V76.73h1.3V93Zm11.62-16.31L181.4,93h-1.3l-1.89-4.75h-8.06L168.26,93H167l6.47-16.31Zm-.74,1.42-3.57,8.93h7.11Zm19.27,13.68V76.73h1.3v15.1h8.39V76.73h1.3V93H183.75V76.73h1.31v15.1ZM219.3,93V78.92L209.75,93h-1.3V76.73h1.3V90.87l9.55-14.14h1.31V93Zm21.76,0V77.94h-9.31V93h-1.31V76.73h11.93V93ZM257,91.83V93H246.38V76.73h10.39v1.21h-9.09v6h8.39v1.22h-8.39v6.66ZM270.68,93V85.17h-9.32V93h-1.31V76.73h1.31V84h9.32V76.73H272V93ZM282.3,76.73,288.78,93h-1.31l-1.89-4.75h-8.06L275.64,93h-1.31l6.48-16.31Zm-.74,1.42L278,87.08h7.11Zm20.08-1.42v1.21h-5.32V93H295V77.94h-5.31V76.73Zm3.89,0v6.76h4.33a5.37,5.37,0,0,1,3.82,1.35,4.9,4.9,0,0,1,.08,6.88,5.38,5.38,0,0,1-3.9,1.32h-5.64V76.73Zm0,15.1h4.38a4.06,4.06,0,0,0,2.9-1,3.39,3.39,0,0,0,1-2.58,3.47,3.47,0,0,0-1-2.61,4,4,0,0,0-2.9-1h-4.38Zm11.74-15.1h1.3V93h-1.3Z"/><path class="cls-2" d="M61.7,77.53c9.1-13.91,11.93-26.95,14.16-43.42a6.29,6.29,0,0,0-.37-4c-.94-1.59-3-2-4.81-2.35-4.27-.72-8.82-1.41-12.77.36C53.43,30.1,50.75,35,50,39.83s.21,9.8,1.13,14.63C52.8,63,54.87,72.22,61.7,77.53"/><path class="cls-3" d="M63.38,78.74c20.29,5.23,37,3.34,57.57-.66,1.71-.33,3.53-.76,4.66-2.07,1.52-1.77,1.24-4.4.87-6.7-.86-5.38-1.89-11.1-5.59-15.1-4.22-4.54-11.11-5.77-17.2-4.65s-11.63,4.22-17,7.27C77.18,62.21,67,68.43,63.38,78.74"/><path class="cls-4" d="M59.14,84.64q-7.62-10.2-15.23-20.42c-1.4-1.87-2.84-3.79-5.13-4.81a16,16,0,0,0-7-.95c-4.15.18-9.54,1.73-12.19,5.52a10,10,0,0,0-1.58,6.29c.33,12.61,8.25,22.36,20.74,25.55A21,21,0,0,0,49,96.11c3.75-.89,7.42-3.65,10.1-6.56,1.39-1.51,2.51-1,0-3.78"/><path class="cls-5" d="M55.64,83.24l0-.28c-1.07-6.2,1.23-21.65,1.36-22.51.18-4.39,2.24-11,6.13-19.49,2.89-6.36,5.77-11.5,5.79-11.55,4.56-7.51,12-17.61,21.63-23.15,5.78-3.34,9.56-3.43,9.72-3.43h0a25.12,25.12,0,0,1,14.78,4.42,18.9,18.9,0,0,1,4.62,4.47A23.67,23.67,0,0,1,126,27.6a25.51,25.51,0,0,1-1.06,8C123.11,46.11,111.21,57.48,110.7,58c-3.91,4.87-9.59,9.48-13.67,12.49-4.42,3.26-8,5.4-8,5.42-7.34,5-32.06,7.25-33.11,7.34ZM100.27,3.42h0s-3.82.11-9.48,3.38C81.27,12.29,73.91,22.29,69.4,29.71c-.11.2-11.44,20.48-11.85,30.78v0c0,.16-2.36,15.73-1.41,22.07,2.79-.26,25.75-2.57,32.56-7.22,0,0,3.58-2.16,8-5.41,4-3,9.7-7.56,13.56-12.39l0,0c.12-.11,12.27-11.56,14-22.08v-.05a25.55,25.55,0,0,0,1-7.82,23.07,23.07,0,0,0-6.14-15.48l0,0C119.12,12,113.37,3.4,100.27,3.42Z"/><path class="cls-5" d="M68.5,99.86l-.29-.43A279.4,279.4,0,0,1,38.32,42.67c-1.4-4.32-2.62-11.61-.51-21.86A59,59,0,0,1,41,10.32,15,15,0,0,1,50.6,1.08,19.79,19.79,0,0,1,57.28,0c16.29.1,21.06,5.7,21.44,6.18,7.83,7,10,19,10.11,19.46,1.45,5.9-.75,19.75-.89,20.59C87.65,58.43,69.5,97.72,68.72,99.39ZM57,.6a20.4,20.4,0,0,0-6.22,1,14.16,14.16,0,0,0-9.25,8.88v0c-.08.17-7.4,17.2-2.63,31.93A278.54,278.54,0,0,0,68.4,98.66c2.12-4.61,18.69-41.12,18.95-52.46v0c0-.14,2.34-14.55.9-20.38v0c0-.12-2.14-12.23-9.94-19.14l0,0c0-.06-4.66-5.88-21-6Z"/><path class="cls-5" d="M63.34,90.33l-.27,0c-10.39-1.9-27-12.11-27.2-12.21C21.85,70.63,13,58.51,8.07,49.66A82.66,82.66,0,0,1,.62,32.05a18.33,18.33,0,0,1,3.05-15.7,23.47,23.47,0,0,1,5.66-5.59C18.51,4,26.49,4.07,31.56,5.36a22.21,22.21,0,0,1,8.89,4.48A58.73,58.73,0,0,1,56.23,24.13a55.94,55.94,0,0,1,8,14.74A51.06,51.06,0,0,1,67.41,55c1.13,4.58.81,11.86-1,21.66-1.33,7.3-3,13.34-3,13.4ZM26,5.27c-4.52,0-10.14,1.38-16.35,6h0a23.06,23.06,0,0,0-5.51,5.45A17.77,17.77,0,0,0,1.2,31.91,82.58,82.58,0,0,0,8.6,49.38c4.9,8.78,13.67,20.79,27.57,28.17.18.11,16.44,10.09,26.74,12.09.71-2.65,6.44-24.41,3.91-34.52V55a50,50,0,0,0-3.16-16,55.53,55.53,0,0,0-7.91-14.56A58.24,58.24,0,0,0,40.11,10.33l0,0a21.91,21.91,0,0,0-8.68-4.37A22.16,22.16,0,0,0,26,5.27Z"/></g></g></svg>